<svg width="25" height="25" viewBox="0 0 25 25" fill="none" xmlns="http://www.w3.org/2000/svg">
<path fill-rule="evenodd" clip-rule="evenodd" d="M1.50008 25C0.671583 25 0 24.3284 0 23.4999V8.50012V8.4998C0.000176389 7.67151 0.671689 7 1.50008 7C10.4999 7 -3.4998 7 5.49999 7C6.32827 7 6.99979 7.67151 7 8.4998V8.50012V10.0843C8.80678 8.5046 10.9517 6.93131 12.4728 5.12459C13.3251 4.1129 14.0001 2.86939 14.0001 1.50012C14.0001 0.671619 14.6713 0 15.4998 0H15.9998H16.4999V0.0337961C17.9188 0.228918 19 1.26612 19 3.0002C19 4.92122 18.3256 6.67333 17.2168 8.00012H22.9999H23.0003C24.1048 8.00041 25 9.11942 25 10.4999C25 11.646 24.383 12.612 23.5414 12.9072C23.8278 13.3398 23.9999 13.8948 23.9999 14.5001C23.9999 15.6462 23.3829 16.6119 22.5414 16.9071C22.8277 17.3396 22.9999 17.8947 22.9999 18.5C22.9999 19.646 22.3828 20.612 21.5415 20.9072C21.8278 21.3397 21.9998 21.8946 21.9998 22.4998C21.9998 23.8805 21.1045 25 20.0001 25H12.5C10.1841 25 8.15129 24.2546 7 23.1324V23.4999C7 24.3284 6.32838 25 5.49999 25C-3.4998 25 10.4999 25 1.50008 25ZM7 11.4203V21.0001C7 22.6567 9.46239 23.9999 12.5 23.9999H20.0001C20.5523 23.9999 21.0001 23.3283 21.0001 22.4998C21.0001 21.6718 20.5523 21.0001 20.0001 21.0001H19.5C19.2239 21.0001 19 20.7762 19 20.5001C19 20.224 19.2239 20.0001 19.5 20.0001H20.0001H21.0001C21.5523 20.0001 21.9998 19.3285 21.9998 18.5C21.9998 17.6819 21.5633 17.0168 21.0207 17.0003H20.5001V16.9998C20.224 16.9998 20.0001 16.7759 20.0001 16.4998C20.0001 16.2238 20.224 15.9998 20.5001 15.9998L20.5181 16.0002H21.0001V15.9998L21.0342 16.0002H21.9998V15.9998C22.552 15.9998 22.9999 15.3286 22.9999 14.5001C22.9999 13.6717 22.552 13 21.9998 13H21.5002H21.5001C21.2241 13 21.0001 12.7761 21.0001 12.5C21.0001 12.2239 21.2241 12 21.5001 12H21.5002H21.9998H22.9999H23.0003C23.5523 11.9997 23.9999 11.3281 23.9999 10.4999C23.9999 9.67201 23.5523 9.0005 23.0003 9.00021H22.9999H16.0337L16.0208 9.00043L16.0079 9.00021H16.0002V8.9999C15.7337 8.98921 15.5208 8.7696 15.5208 8.5004C15.5208 8.35082 15.5866 8.21641 15.6907 8.12479L15.6936 8.12232L15.6939 8.12201C17.0977 6.93202 18 5.08032 18 3.0002C18 1.79299 17.1046 1.00009 15.9998 1.00009H15.4998C15.2239 1.00009 15.0002 1.22382 15.0002 1.50012C15.0002 3.0002 14.3368 4.43262 13.2661 5.73772C11.6065 7.76013 9.12178 9.42302 7 11.4203ZM3.49977 21.9998C4.3283 21.9998 4.99989 21.3282 4.99989 20.5001C4.99989 19.6716 4.3283 19 3.49977 19C2.67169 19 2.00007 19.6716 2.00007 20.5001C2.00007 21.3282 2.67169 21.9998 3.49977 21.9998ZM3.49977 21.0001C3.7761 21.0001 3.9999 20.776 3.9999 20.5001C3.9999 20.2238 3.7761 20.0001 3.49977 20.0001C3.2239 20.0001 3.0002 20.2238 3.0002 20.5001C3.0002 20.776 3.2239 21.0001 3.49977 21.0001ZM5.99998 8.50012V8.4998C5.9998 8.22371 5.7761 8.00012 5.49999 8.00012C-3.4998 8.00012 10.4999 8.00012 1.50008 8.00012C1.22389 8.00012 1.0003 8.22371 1.00009 8.4998V8.50012V23.4999C1.00009 23.7762 1.22379 23.9999 1.50008 23.9999C10.4999 23.9999 -3.4998 23.9999 5.49999 23.9999C5.77618 23.9999 5.99998 23.7762 5.99998 23.4999V21.0001V12.4229V10.9999V8.50012Z" fill="#BBCD55"/>
</svg>
