<svg width="30" height="30" viewBox="0 0 30 30" fill="none" xmlns="http://www.w3.org/2000/svg">
<path d="M0 4C0 1.79086 1.79086 0 4 0H26C28.2091 0 30 1.79086 30 4V26C30 28.2091 28.2091 30 26 30H4C1.79086 30 0 28.2091 0 26V4Z" fill="#BBCD55"/>
<g clip-path="url(#clip0_129_1844)">
<path d="M16.8403 17.2755C17.269 16.2575 16.7915 15.0847 15.7739 14.6559C14.7563 14.2271 13.5839 14.7047 13.1552 15.7227C12.7266 16.7407 13.2041 17.9135 14.2217 18.3423C15.2393 18.7711 16.4117 18.2935 16.8403 17.2755Z" fill="white"/>
<path d="M14.9973 21.5C11.9584 21.5 9.12942 19.77 7.61996 16.98C7.53999 16.83 7.5 16.67 7.5 16.5C7.5 16.33 7.53999 16.17 7.61996 16.02C9.12942 13.23 11.9584 11.5 14.9973 11.5C18.0362 11.5 20.8652 13.23 22.3747 16.02C22.4547 16.17 22.4946 16.33 22.4946 16.5C22.4946 16.67 22.4547 16.83 22.3747 16.98C20.8652 19.77 18.0362 21.5 14.9973 21.5ZM9.65923 16.5C10.8688 18.36 12.8681 19.5 14.9973 19.5C17.1266 19.5 19.1258 18.36 20.3354 16.5C19.1258 14.64 17.1266 13.5 14.9973 13.5C12.8681 13.5 10.8688 14.64 9.65923 16.5Z" fill="white"/>
<path d="M8.49962 11.49C8.18973 11.49 7.88983 11.35 7.6999 11.09C7.37002 10.65 7.45999 10.02 7.90983 9.69C10.5589 7.71 13.7477 7.5 14.9973 7.5C15.5471 7.5 15.9969 7.95 15.9969 8.5C15.9969 9.05 15.5471 9.5 14.9973 9.5C14.1776 9.5 11.3286 9.63 9.0994 11.29C8.91947 11.42 8.70954 11.49 8.49962 11.49Z" fill="white"/>
<path d="M21.495 11.49C21.2851 11.49 21.0752 11.43 20.9052 11.29C18.666 9.63 15.817 9.5 14.9973 9.5C14.4475 9.5 13.9977 9.05 13.9977 8.5C13.9977 7.95 14.4475 7.5 14.9973 7.5C16.2469 7.5 19.4357 7.71 22.0948 9.68C22.5346 10.01 22.6346 10.64 22.3047 11.08C22.1048 11.35 21.8049 11.49 21.495 11.49Z" fill="white"/>
</g>
<defs>
<clipPath id="clip0_129_1844">
<rect width="15" height="15" fill="white" transform="translate(7.5 7.5)"/>
</clipPath>
</defs>
</svg>
