<svg width="15" height="18" viewBox="0 0 15 18" fill="none" xmlns="http://www.w3.org/2000/svg">
<path fill-rule="evenodd" clip-rule="evenodd" d="M8.10832 16.0399C10.8388 13.4943 13 10.0912 13 6.22491C13 3.13218 10.5375 0.625 7.49993 0.625C4.46237 0.625 2 3.13218 2 6.22491C2 10.0912 4.16106 13.4943 6.89153 16.0399C7.07515 16.2111 7.24473 16.375 7.49993 16.375C7.75513 16.375 7.92474 16.2111 8.10832 16.0399ZM7.5 4.5625C8.60462 4.5625 9.5 5.56981 9.5 6.8125C9.5 8.05515 8.60462 9.0625 7.5 9.0625C6.39542 9.0625 5.5 8.05515 5.5 6.8125C5.5 5.56981 6.39542 4.5625 7.5 4.5625ZM7.49998 5.6875C8.05229 5.6875 8.5 6.19117 8.5 6.81252C8.5 7.43387 8.05229 7.9375 7.49998 7.9375C6.94771 7.9375 6.5 7.43387 6.5 6.81252C6.5 6.19117 6.94771 5.6875 7.49998 5.6875ZM6.29986 13.9782C5.38113 12.9354 4.59426 11.7921 4.06737 10.6838C3.57778 9.65397 3.2529 8.61714 3.0954 7.58841C2.89049 6.25085 2.99374 5.03478 3.6206 3.96154C4.43807 2.5622 5.91374 1.75566 7.50004 1.75C9.08637 1.75566 10.5619 2.56212 11.3794 3.96154C12.0063 5.03478 12.1095 6.25085 11.9046 7.58841C11.7471 8.61714 11.4222 9.65397 10.9326 10.6838C10.4057 11.7921 9.61887 12.9354 8.70014 13.9782C8.31373 14.4171 7.89957 14.8285 7.49753 15.25C7.09711 14.8303 6.68528 14.4159 6.29986 13.9782V13.9782Z" fill="#333333"/>
</svg>
