<svg width="30" height="30" viewBox="0 0 30 30" fill="none" xmlns="http://www.w3.org/2000/svg">
<path d="M0 4C0 1.79086 1.79086 0 4 0H26C28.2091 0 30 1.79086 30 4V26C30 28.2091 28.2091 30 26 30H4C1.79086 30 0 28.2091 0 26V4Z" fill="#BBCD55"/>
<g clip-path="url(#clip0_129_1891)">
<path d="M15 21.5C14.73 21.5 14.47 21.39 14.28 21.2L8.67 15.43C7.92 14.67 7.5 13.64 7.5 12.56C7.5 10.32 9.29 8.5 11.5 8.5C12.6 8.5 13.66 8.96 14.41 9.78C14.47 9.84 14.52 9.9 14.57 9.96C14.69 10.1 14.81 10.21 15 10.21C15.19 10.21 15.31 10.1 15.37 10.04C15.48 9.9 15.53 9.84 15.59 9.78C16.34 8.96 17.4 8.5 18.5 8.5C20.71 8.5 22.5 10.32 22.5 12.56C22.5 13.65 22.08 14.67 21.32 15.43L15.72 21.2C15.53 21.39 15.27 21.5 15 21.5ZM11.5 10.5C10.4 10.5 9.5 11.42 9.5 12.56C9.5 13.12 9.71 13.64 10.1 14.03L15 19.07L19.9 14.04C20.29 13.64 20.5 13.12 20.5 12.57C20.5 11.42 19.6 10.5 18.5 10.5C17.95 10.5 17.44 10.73 17.05 11.14L16.87 11.36C15.92 12.44 14.08 12.44 13.13 11.36L12.94 11.13C12.56 10.73 12.05 10.5 11.5 10.5Z" fill="white"/>
</g>
<defs>
<clipPath id="clip0_129_1891">
<rect width="15" height="15" fill="white" transform="translate(7.5 7.5)"/>
</clipPath>
</defs>
</svg>
