<svg width="15" height="15" viewBox="0 0 15 15" fill="none" xmlns="http://www.w3.org/2000/svg">
<path fill-rule="evenodd" clip-rule="evenodd" d="M14.5 0C14.7759 0 15 0.22412 15 0.500027C15 0.604696 14.9679 0.701816 14.9127 0.782002L8.95928 14.698C8.88248 14.8757 8.70571 15 8.50011 15C8.22381 15 8.00001 14.7759 8.00001 14.5L7.99888 6.99883L0.499992 7.00003C0.224084 7.00003 0 6.77622 0 6.49993C0 6.29472 0.124001 6.11822 0.300813 6.04111L0.302013 6.04072L14.2207 0.0854075C14.3004 0.0313972 14.3964 0 14.5 0ZM13.5298 1.46911L2.94008 5.9992L8.50011 5.9999C8.74529 5.9999 8.9494 6.17682 8.99181 6.41001L9.0001 6.49993V12.0596L13.5298 1.46911Z" fill="#333333"/>
</svg>
