<svg width="30" height="30" viewBox="0 0 30 30" fill="none" xmlns="http://www.w3.org/2000/svg">
<path d="M0 4C0 1.79086 1.79086 0 4 0H26C28.2091 0 30 1.79086 30 4V26C30 28.2091 28.2091 30 26 30H4C1.79086 30 0 28.2091 0 26V4Z" fill="#BBCD55"/>
<g clip-path="url(#clip0)">
<path d="M13 22.5C13.8284 22.5 14.5 21.8284 14.5 21C14.5 20.1716 13.8284 19.5 13 19.5C12.1716 19.5 11.5 20.1716 11.5 21C11.5 21.8284 12.1716 22.5 13 22.5Z" fill="white"/>
<path d="M18 22.5C18.8284 22.5 19.5 21.8284 19.5 21C19.5 20.1716 18.8284 19.5 18 19.5C17.1716 19.5 16.5 20.1716 16.5 21C16.5 21.8284 17.1716 22.5 18 22.5Z" fill="white"/>
<path d="M18.5 18.5C19.0523 18.5 19.5 18.0523 19.5 17.5C19.5 16.9477 19.0523 16.5 18.5 16.5C17.9477 16.5 17.5 16.9477 17.5 17.5C17.5 18.0523 17.9477 18.5 18.5 18.5Z" fill="white"/>
<path d="M8.5 9.5C9.05228 9.5 9.5 9.05228 9.5 8.5C9.5 7.94772 9.05228 7.5 8.5 7.5C7.94772 7.5 7.5 7.94772 7.5 8.5C7.5 9.05228 7.94772 9.5 8.5 9.5Z" fill="white"/>
<path d="M21.5 7.5H8.5V9.5H21.5V7.5Z" fill="white"/>
<path d="M18.5 16.5H13.5V18.5H18.5V16.5Z" fill="white"/>
<path d="M19.5 12.5H12.5V14.5H19.5V12.5Z" fill="white"/>
<path d="M19.5 14.4999C19.38 14.4999 19.25 14.4799 19.13 14.4299C18.62 14.2199 18.37 13.6399 18.57 13.1299L20.57 8.12989C20.78 7.61989 21.35 7.36989 21.87 7.56989C22.38 7.77989 22.63 8.35989 22.43 8.86989L20.43 13.8699C20.27 14.2599 19.9 14.4999 19.5 14.4999Z" fill="white"/>
<path d="M13.5 9.5H11.5V13.5H13.5V9.5Z" fill="white"/>
<path fill-rule="evenodd" clip-rule="evenodd" d="M13.55 16.4902C13 16.4902 12.55 16.0402 12.55 15.4902C12.55 14.9402 13 14.4902 13.55 14.4902V12.4902C11.89 12.4902 10.55 13.8302 10.55 15.4902C10.55 17.1502 11.89 18.4902 13.55 18.4902V16.4902Z" fill="white"/>
</g>
<defs>
<clipPath id="clip0">
<rect width="15" height="15" fill="white" transform="translate(7.5 7.5)"/>
</clipPath>
</defs>
</svg>
