<svg width="30" height="30" viewBox="0 0 30 30" fill="none" xmlns="http://www.w3.org/2000/svg">
<path d="M0 4C0 1.79086 1.79086 0 4 0H26C28.2091 0 30 1.79086 30 4V26C30 28.2091 28.2091 30 26 30H4C1.79086 30 0 28.2091 0 26V4Z" fill="#BBCD55"/>
<g clip-path="url(#clip0)">
<path d="M8.5 10.5C9.05228 10.5 9.5 10.0523 9.5 9.5C9.5 8.94772 9.05228 8.5 8.5 8.5C7.94772 8.5 7.5 8.94772 7.5 9.5C7.5 10.0523 7.94772 10.5 8.5 10.5Z" fill="white"/>
<path d="M21.5 10.5C22.0523 10.5 22.5 10.0523 22.5 9.5C22.5 8.94772 22.0523 8.5 21.5 8.5C20.9477 8.5 20.5 8.94772 20.5 9.5C20.5 10.0523 20.9477 10.5 21.5 10.5Z" fill="white"/>
<path d="M21.5 8.5H8.5V10.5H21.5V8.5Z" fill="white"/>
<path d="M8.5 21.5C9.05228 21.5 9.5 21.0523 9.5 20.5C9.5 19.9477 9.05228 19.5 8.5 19.5C7.94772 19.5 7.5 19.9477 7.5 20.5C7.5 21.0523 7.94772 21.5 8.5 21.5Z" fill="white"/>
<path d="M15.5 15.5C16.0523 15.5 16.5 15.0523 16.5 14.5C16.5 13.9477 16.0523 13.5 15.5 13.5C14.9477 13.5 14.5 13.9477 14.5 14.5C14.5 15.0523 14.9477 15.5 15.5 15.5Z" fill="white"/>
<path d="M21.5 21.5C22.0523 21.5 22.5 21.0523 22.5 20.5C22.5 19.9477 22.0523 19.5 21.5 19.5C20.9477 19.5 20.5 19.9477 20.5 20.5C20.5 21.0523 20.9477 21.5 21.5 21.5Z" fill="white"/>
<path d="M21.5 19.5H8.5V21.5H21.5V19.5Z" fill="white"/>
<path d="M9.5 9.5H7.5V20.5H9.5V9.5Z" fill="white"/>
<path d="M22.5 9.5H20.5V20.5H22.5V9.5Z" fill="white"/>
<path d="M20.85 13.5H15.55V15.5H20.85V13.5Z" fill="white"/>
<path d="M16.5 9.6001H14.5V14.5001H16.5V9.6001Z" fill="white"/>
</g>
<defs>
<clipPath id="clip0">
<rect width="15" height="15" fill="white" transform="translate(7.5 7.5)"/>
</clipPath>
</defs>
</svg>
