<svg width="15" height="15" viewBox="0 0 15 15" fill="none" xmlns="http://www.w3.org/2000/svg">
<path d="M6.50388 8.00262C6.78047 8.00262 7.0047 7.7784 7.0047 7.5018C7.0047 7.2252 6.78047 7.00098 6.50388 7.00098C6.22728 7.00098 6.00305 7.2252 6.00305 7.5018C6.00305 7.7784 6.22728 8.00262 6.50388 8.00262Z" fill="#333333"/>
<path d="M9.50528 7.9992C9.78187 7.9992 10.0061 7.77498 10.0061 7.49838C10.0061 7.22179 9.78187 6.99756 9.50528 6.99756C9.22868 6.99756 9.00446 7.22179 9.00446 7.49838C9.00446 7.77498 9.22868 7.9992 9.50528 7.9992Z" fill="#333333"/>
<path d="M10.9161 11.3003C11.5721 10.5808 12.0024 9.37103 12.0024 8.00259V7.99906C12.0024 7.18434 12.0024 6.36609 12.0024 5.55137C12.3268 4.25699 12.6478 2.96614 12.9723 1.67176C12.9899 1.61886 13.004 1.56243 13.004 1.50247C13.004 1.22737 12.7783 1.00165 12.5032 1.00165C12.4362 1.00165 12.3727 1.01575 12.3162 1.03691L9.64284 1.92923C9.05737 1.34728 8.47543 0.761815 7.88643 0.176346C7.79473 0.0670115 7.65718 0 7.50553 0C7.34329 0 7.20221 0.0775923 7.11051 0.193981C6.52857 0.772396 5.95015 1.35081 5.37174 1.92923L2.6948 1.03691C2.63837 1.01223 2.57489 1.00165 2.50788 1.00165C2.23278 1.00165 2.00705 1.22737 2.00705 1.50247C2.00705 1.56243 2.01763 1.61886 2.0388 1.67176C2.35975 2.96614 2.6807 4.25699 3.00517 5.55137V8.99365C3.00517 8.99718 3.0087 8.99718 3.0087 9.0007H3.00517C3.00517 9.94239 3.51305 10.7853 4.30661 11.332C2.96638 11.8822 2.03527 13.0602 2.00353 14.4322C2 14.4533 2 14.4745 2 14.4956C2 14.6332 2.05643 14.7602 2.14813 14.8519C2.23983 14.9436 2.36327 15 2.50435 15C2.52551 15 2.54315 15 2.56078 14.9965H12.4432C12.4609 15 12.482 15 12.4996 15C12.7747 15 13.0005 14.7743 13.0005 14.4992C13.0005 14.478 13.0005 14.4569 12.9969 14.4357C12.9793 13.0355 12.1293 11.8363 10.9161 11.3003ZM5.35763 2.98025C5.40348 2.99436 5.45286 3.00141 5.50576 3.00141C5.64331 3.00141 5.76675 2.94498 5.85845 2.85681C6.40865 2.30661 6.95885 1.75993 7.50905 1.20973C8.04162 1.7423 8.57418 2.27134 9.10675 2.80743C9.19845 2.92735 9.34305 3.00141 9.50176 3.00141C9.55467 3.00141 9.60404 2.99436 9.65342 2.97672V2.98025L11.7943 2.26781C11.565 3.18128 11.3393 4.09123 11.11 5.00117H3.89748C3.66823 4.09123 3.43898 3.18128 3.21326 2.26781L5.35763 2.98025ZM3.06513 14.0019C3.34376 12.8627 4.55349 12.0021 6.00306 12.0021V11.9668H6.00658V12.0056H6.51799C6.78956 11.9986 7.00823 11.7799 7.00823 11.5048C7.00823 11.2297 6.78251 11.004 6.50741 11.004C6.50388 11.004 6.50388 11.004 6.50035 11.004V11.0005C5.12133 11.0005 4.00329 10.1046 4.00329 9.0007H3.99976C3.99976 8.99718 4.00329 8.99718 4.00329 8.99365C4.00329 7.99553 4.00329 6.99741 4.00329 5.99929H11.0042V7.99906V8.00259C11.0042 9.63908 10.3518 10.9652 9.53703 11.0005C9.52645 11.0005 9.51234 10.9969 9.50176 10.9969C9.22666 10.9969 9.00094 11.2227 9.00094 11.4978C9.00094 11.7729 9.22666 11.9986 9.50176 11.9986H9.50529V12.0021C10.7115 12.0021 11.7202 12.8592 11.953 14.0019H3.06513Z" fill="#333333"/>
<path d="M9.33247 9.67801C9.43828 9.58631 9.50176 9.45228 9.50176 9.30063C9.50176 9.02553 9.27604 8.7998 9.00094 8.7998C8.87044 8.7998 8.75406 8.84918 8.66588 8.9303C8.61651 8.97615 8.37668 9.19835 7.9993 9.19835C7.65718 9.19835 7.42793 9.01495 7.35387 8.94793C7.35034 8.94441 7.34329 8.94088 7.33976 8.93735L7.33623 8.93383C7.24806 8.85271 7.12815 8.80333 6.99765 8.80333C6.72255 8.80333 6.49683 9.02905 6.49683 9.30415C6.49683 9.46287 6.57089 9.60042 6.68375 9.69212C6.79661 9.7944 7.26922 10.2 7.9993 10.2035C8.74348 10.2035 9.23019 9.77676 9.33247 9.67801Z" fill="#333333"/>
</svg>
