<svg width="247" height="72" viewBox="0 0 247 72" fill="none" xmlns="http://www.w3.org/2000/svg">
<g clip-path="url(#clip0)">
<path fill-rule="evenodd" clip-rule="evenodd" d="M51.4862 2H54.2342V20.4621C54.0239 19.7576 53.822 19.018 53.6302 18.2526C53.1071 16.1636 52.6583 13.8818 52.3088 11.5776C51.9554 9.24779 51.7032 6.90262 51.5772 4.7175C51.5233 3.77786 51.4924 2.86737 51.4862 2ZM43.5952 2H50.289C50.2949 2.88726 50.3261 3.81719 50.3807 4.77475C50.5088 7.00983 50.7645 9.39691 51.1225 11.756C51.2712 12.7364 51.7951 15.9157 52.7493 18.9764C53.1616 20.2984 53.6548 21.5994 54.2342 22.6949V24.922C53.1356 23.412 52.0169 21.7901 51.0581 20.1008C49.7237 17.7488 48.6727 15.4528 47.5726 12.9663C46.4058 10.3294 45.3869 7.67797 44.5559 5.15741C44.1994 4.07533 43.8782 3.01876 43.5952 2ZM36.2566 2H42.3029C42.6121 3.13811 42.9687 4.32148 43.3685 5.53491C44.2096 8.08705 45.2452 10.7815 46.4342 13.4691C46.9202 14.5675 48.6636 18.1893 50.798 21.5709C51.879 23.2831 53.0613 24.9357 54.2342 26.1742V27.2194H53.4388C51.5913 25.4236 49.7135 23.5446 47.9918 21.4463C45.9812 18.9965 44.068 16.3919 42.3289 13.692C40.6839 11.1385 39.1911 8.49659 37.9149 5.81811C37.3118 4.55244 36.7565 3.27782 36.2566 2ZM29.4118 2H34.9741C35.5268 3.44804 36.1488 4.89213 36.831 6.32408C38.1307 9.05403 39.6497 11.743 41.3221 14.339C42.0538 15.4745 44.7418 19.3833 48.035 23.1108C49.3196 24.5646 50.6972 25.992 52.0898 27.2194H49.7522C48.8786 26.5822 48.0265 25.9215 47.1951 25.2388C44.6767 23.1714 42.3442 20.9001 40.1695 18.4702C37.9395 15.9796 35.8739 13.3196 33.9422 10.5408C32.3448 8.24315 30.8406 5.86837 29.4118 3.44242V2ZM42.0121 27.2194L29.4118 13.4651V5.68054C30.6454 7.70515 31.9321 9.68618 33.282 11.6069C35.1564 14.2736 37.1572 16.8321 39.3127 19.2403C41.3624 21.5299 43.5551 23.6854 45.915 25.6703C46.5435 26.1995 47.1838 26.716 47.8362 27.2194H42.0121Z" fill="#C3D82D"/>
<path fill-rule="evenodd" clip-rule="evenodd" d="M51.6933 2.15479H54.4414V20.6171C54.231 19.9124 54.0291 19.1729 53.8375 18.4074C53.3143 16.3184 52.8655 14.0366 52.5159 11.7324C52.1625 9.40258 51.9105 7.05741 51.7843 4.87244C51.7304 3.93264 51.6996 3.02215 51.6933 2.15479ZM43.8023 2.15479H50.4962C50.5022 3.04204 50.5334 3.97182 50.5879 4.92954C50.7159 7.16461 50.9716 9.55169 51.3298 11.9111C51.4783 12.8912 52.0022 16.0705 52.9564 19.1314C53.3687 20.4531 53.8619 21.7542 54.4414 22.8496V25.0768C53.3427 23.5668 52.224 21.9448 51.2654 20.2556C49.9308 17.9036 48.8799 15.6075 47.7797 13.1211C46.6129 10.4842 45.594 7.8326 44.7631 5.3122C44.4065 4.23042 44.0854 3.17385 43.8023 2.15479ZM36.4637 2.15479H42.5102C42.8194 3.2929 43.1759 4.47642 43.5756 5.6897C44.4167 8.24199 45.4523 10.9361 46.6414 13.6238C47.1274 14.7223 48.8708 18.3443 51.0051 21.7256C52.0862 23.4377 53.2685 25.0906 54.4414 26.329V27.3742H53.646C51.7984 25.5782 49.9206 23.6994 48.199 21.6011C46.1883 19.1513 44.2752 16.5465 42.536 13.8466C40.891 11.2933 39.3982 8.65138 38.1221 5.9729C37.5189 4.70723 36.9636 3.4326 36.4637 2.15479ZM29.6191 2.15479H35.1813C35.7339 3.60282 36.3559 5.04692 37.0382 6.47901C38.3378 9.20897 39.8568 11.8978 41.5293 14.4938C42.2609 15.6292 44.9491 19.5381 48.2422 23.2656C49.5267 24.7192 50.9045 26.1466 52.2969 27.3742H49.9594C49.0858 26.737 48.2336 26.0763 47.4022 25.3936C44.8839 23.3261 42.5515 21.0549 40.3766 18.625C38.1467 16.1342 36.081 13.4744 34.1494 10.6957C32.5521 8.39809 31.0477 6.02316 29.6191 3.59705V2.15479ZM42.2193 27.3742L29.6191 13.6202V5.83532C30.8526 7.86009 32.1392 9.84097 33.4893 11.7617C35.3636 14.4283 37.3643 16.9869 39.52 19.3951C41.5695 21.6845 43.7622 23.8402 46.1221 25.8251C46.7508 26.3543 47.391 26.8706 48.0433 27.3742H42.2193Z" fill="url(#paint0_linear)"/>
<path fill-rule="evenodd" clip-rule="evenodd" d="M47.8253 50.8703C47.6663 50.9659 47.5002 51.0166 47.3301 51.0166C47.1347 51.0166 46.9461 50.9501 46.7669 50.8269C46.7216 51.0064 46.6407 51.1599 46.5203 51.2805C46.3824 51.4191 46.2028 51.506 45.9893 51.545C46.0843 51.7037 46.1344 51.8698 46.1344 52.0403C46.1344 52.2355 46.0684 52.4244 45.9457 52.6034C46.125 52.6485 46.2781 52.7293 46.3986 52.8499C46.5362 52.9877 46.6238 53.1677 46.6626 53.3809C46.8214 53.2864 46.9874 53.2357 47.1588 53.2357C47.3533 53.2357 47.5419 53.3013 47.7211 53.4251C47.7667 53.2451 47.8474 53.0919 47.9683 52.971C48.1059 52.8336 48.2851 52.7471 48.4993 52.7073C48.4041 52.549 48.3536 52.3817 48.3536 52.2119C48.3536 52.0165 48.4198 51.8282 48.5432 51.6483C48.3625 51.6035 48.2098 51.5227 48.0892 51.4024C47.9513 51.2642 47.8647 51.084 47.8253 50.8703ZM47.3301 44.1319C48.4922 44.1319 49.435 42.8912 49.435 45.782C49.435 46.3025 49.4044 46.8058 49.3476 47.2792C49.6317 46.9215 49.9518 46.5631 50.3021 46.2127C52.3461 44.1681 52.1354 45.7122 52.957 46.5346C53.2343 46.8119 53.5942 46.9711 53.8704 47.1395L53.8646 48.5489C53.7155 48.7341 53.5225 48.9463 53.279 49.1903C52.9112 49.5581 52.5346 49.8911 52.1578 50.1855C52.6129 50.1348 53.0925 50.1065 53.5884 50.1065C53.6829 50.1065 53.7725 50.1076 53.8578 50.1094L53.84 54.3141C53.7597 54.3157 53.6757 54.3167 53.5877 54.3167C53.0682 54.3167 52.5651 54.2867 52.0909 54.2294C52.448 54.5135 52.8073 54.8336 53.1579 55.1841C53.4542 55.4802 53.675 55.7292 53.8332 55.9406L53.8288 56.9727L47.1857 56.9967H45.1381L45.1409 56.9727L45.1217 56.9967H43.5329H40.4464C40.0454 56.6857 40.0096 56.2625 41.2092 55.0628C41.577 54.695 41.9543 54.3609 42.3292 54.0662C41.8753 54.1176 41.3956 54.1457 40.9 54.1457C38.0091 54.1457 39.2505 53.2031 39.2505 52.0403C39.2505 50.8776 38.0091 49.9357 40.9002 49.9357C41.4207 49.9357 41.9235 49.9661 42.3974 50.0229C42.0401 49.738 41.6805 49.4184 41.3302 49.0671C39.499 47.2361 40.5485 47.2156 41.3771 46.6395H43.5329V45.4022C43.7484 45.5618 44.0029 45.7866 44.3077 46.0912C44.6748 46.459 45.0088 46.8361 45.3043 47.212C45.252 46.7575 45.2253 46.2776 45.2253 45.782C45.2253 42.8912 46.1675 44.1319 47.3301 44.1319Z" fill="#8E268E"/>
<path fill-rule="evenodd" clip-rule="evenodd" d="M48.6771 31.8311C48.5628 31.9726 48.4161 32.1337 48.231 32.3194C47.9461 32.6028 47.6547 32.8604 47.3644 33.0885C47.7162 33.0487 48.0863 33.0273 48.4686 33.0273C50.7008 33.0273 49.7428 33.7544 49.7428 34.6521C49.7428 35.5506 50.7008 36.2781 48.4682 36.2781C48.0679 36.2781 47.679 36.254 47.313 36.2112C47.5891 36.4303 47.8665 36.6764 48.1362 36.9479C49.715 38.5263 48.5225 38.3632 47.8883 38.9981C47.2526 39.6331 47.4155 40.8247 45.8378 39.2463C45.5533 38.9622 45.2959 38.6711 45.0678 38.3812C45.1074 38.732 45.1294 39.1022 45.1294 39.4853C45.1294 41.6932 44.4173 40.7794 43.5329 40.7595V35.4436C43.6734 35.4499 43.8091 35.5002 43.9383 35.5898C43.9731 35.4504 44.0361 35.3316 44.1288 35.239C44.2357 35.1324 44.3738 35.0655 44.5394 35.0354C44.4659 34.9128 44.4264 34.7842 44.4264 34.6521C44.4264 34.5019 44.4779 34.356 44.5734 34.218C44.4343 34.1829 44.3157 34.12 44.2221 34.0273C44.116 33.9208 44.049 33.7822 44.0184 33.6168C43.8957 33.6912 43.7678 33.7293 43.636 33.7293C43.6014 33.7293 43.5669 33.7267 43.5329 33.7214V31.8311H48.6771V31.8311Z" fill="#8E268E"/>
<path fill-rule="evenodd" clip-rule="evenodd" d="M37.3479 46.6396C37.1906 46.8161 36.8028 46.9195 35.9616 46.9195C35.5601 46.9195 35.1719 46.8957 34.8052 46.8519C35.0819 47.0712 35.3586 47.3181 35.6299 47.5892C37.2079 49.1673 36.0152 49.0036 35.3816 49.639C34.7463 50.2749 34.9092 51.4663 33.3308 49.8877C33.0463 49.6039 32.789 49.3127 32.5607 49.0225C32.601 49.3732 32.6221 49.7439 32.6221 50.1266C32.6221 52.3588 31.894 51.3998 30.9967 51.3998C30.1665 51.3998 29.4809 52.2204 29.3831 50.5748V49.6396C29.3944 49.4098 29.4135 49.186 29.4393 48.9695L29.3831 49.0395V46.6396H37.3479Z" fill="#8E268E"/>
<path fill-rule="evenodd" clip-rule="evenodd" d="M53.89 44.1536C53.5975 44.2256 53.4009 44.1805 53.4009 43.2744C53.4009 43.0288 53.4154 42.7918 53.4426 42.5684C53.3082 42.737 53.1573 42.9058 52.9918 43.0712C52.0284 44.0353 52.1274 43.3072 51.7404 42.9198C51.3526 42.5321 50.6246 42.6317 51.5884 41.6679C51.7615 41.4945 51.9394 41.3368 52.1162 41.1977C51.9026 41.2221 51.6763 41.2353 51.4424 41.2353C50.0794 41.2353 50.6645 40.7909 50.6645 40.2428C50.6645 39.6948 50.0794 39.2502 51.4427 39.2502C51.6883 39.2502 51.9247 39.2649 52.1487 39.2915C51.98 39.1568 51.8113 39.0066 51.6459 38.8419C50.6818 37.8775 51.4098 37.9771 51.7972 37.5897C52.185 37.2016 52.0851 36.4736 53.049 37.438C53.223 37.6111 53.3791 37.7888 53.5193 37.9662C53.4942 37.7519 53.4819 37.5255 53.4819 37.2921C53.4819 36.4718 53.6427 36.3578 53.89 36.396V39.9984C53.8745 40.0028 53.8585 40.0064 53.8418 40.0093C53.8625 40.0436 53.8787 40.0781 53.89 40.1136V40.3718C53.8751 40.4181 53.8517 40.4636 53.8213 40.5083C53.8452 40.514 53.8682 40.5215 53.89 40.5303V44.1536Z" fill="#8E268E"/>
<path fill-rule="evenodd" clip-rule="evenodd" d="M34.3346 53.2695C34.8831 53.2695 35.3269 52.6841 35.3269 54.047C35.3269 54.2925 35.3125 54.5296 35.2864 54.7531C35.4203 54.585 35.571 54.4149 35.7363 54.2499C36.6994 53.2865 36.6001 54.0148 36.9879 54.4022C37.3751 54.7892 38.1031 54.689 37.1396 55.654C36.9665 55.8268 36.7887 55.9838 36.611 56.1243C36.8257 56.0994 37.0512 56.0863 37.2857 56.0863C38.5803 56.0863 38.1173 56.4871 38.0674 56.9968H34.8258C34.8389 56.9337 34.8664 56.8722 34.9066 56.8135C34.8216 56.7915 34.7499 56.7539 34.6931 56.6966C34.6272 56.6315 34.587 56.5471 34.5685 56.4468C34.4936 56.4916 34.4149 56.5149 34.3346 56.5149C34.2427 56.5149 34.1539 56.4845 34.0693 56.4256C34.0481 56.5106 34.0096 56.5832 33.9527 56.6398C33.888 56.7047 33.8036 56.7461 33.7022 56.7644C33.7468 56.8381 33.7711 56.9171 33.7714 56.9968H30.5252C30.5242 56.4493 29.941 56.0056 31.3032 56.0056C31.5483 56.0056 31.7857 56.02 32.0084 56.0466C31.8405 55.9128 31.671 55.7618 31.5059 55.5968C30.5422 54.6328 31.2703 54.732 31.658 54.3451C32.0456 53.9576 31.9457 53.229 32.9101 54.1929C33.0832 54.366 33.2404 54.5445 33.3796 54.7215C33.3553 54.5073 33.3423 54.281 33.3423 54.047C33.3423 52.6841 33.7863 53.2695 34.3346 53.2695Z" fill="#8E268E"/>
<path fill-rule="evenodd" clip-rule="evenodd" d="M2.4302 2H0V19.3488C0.0974876 18.9902 0.193001 18.6245 0.286389 18.2526C0.809511 16.1636 1.25808 13.8818 1.60779 11.5776C1.96114 9.24779 2.21336 6.90262 2.3394 4.7175C2.3933 3.77786 2.42413 2.86737 2.4302 2ZM10.3214 2H3.62739C3.62162 2.88726 3.59049 3.81719 3.53582 4.77475C3.40766 7.00983 3.1521 9.39691 2.79404 11.756C2.64538 12.7364 2.12149 15.9157 1.16712 18.9764C0.832592 20.0498 0.444313 21.1095 0 22.0563V24.4829C0.99492 23.0992 1.99197 21.6273 2.85812 20.1008C4.19288 17.7488 5.24353 15.4528 6.34398 12.9663C7.5108 10.3294 8.52971 7.67797 9.36048 5.15741C9.71717 4.07533 10.0382 3.01876 10.3214 2ZM17.66 2H11.6135C11.3045 3.13811 10.9479 4.32148 10.5482 5.53491C9.707 8.08705 8.67123 10.7815 7.4824 13.4691C6.99633 14.5675 5.25279 18.1893 3.11839 21.5709C2.13486 23.1285 1.06766 24.6372 0 25.8292V27.2194H0.477568C2.32528 25.4236 4.2029 23.5446 5.92472 21.4463C7.93537 18.9965 9.84852 16.3919 11.5877 13.692C13.2326 11.1385 14.7255 8.49659 16.0016 5.81811C16.6048 4.55244 17.1599 3.27782 17.66 2ZM24.8223 2H18.9425C18.3898 3.44804 17.7678 4.89213 17.0855 6.32408C15.7859 9.05403 14.2669 11.743 12.5944 14.339C11.8627 15.4745 9.17477 19.3833 5.8816 23.1108C4.59695 24.5646 3.21906 25.992 1.82675 27.2194H4.16433C5.03792 26.5821 5.88995 25.9215 6.72148 25.2388C9.23991 23.1714 11.5723 20.9001 13.7471 18.4702C15.9769 15.9796 18.0426 13.3196 19.9742 10.5408C21.6905 8.07232 23.2989 5.51472 24.8223 2.90032V2ZM11.7157 27.2194L24.8223 13.4329V5.15696C23.4924 7.36379 22.1007 9.52097 20.6346 11.6069C18.7601 14.2736 16.7592 16.8321 14.6035 19.2403C12.5542 21.5299 10.3615 23.6854 8.00157 25.6703C7.37276 26.1995 6.73241 26.716 6.08007 27.2194H11.7157Z" fill="#C3D82D"/>
<path fill-rule="evenodd" clip-rule="evenodd" d="M22.5496 29.709H26.4869V33.6463H22.5496V29.709Z" fill="#8E268E"/>
<path fill-rule="evenodd" clip-rule="evenodd" d="M22.5496 34.5117H26.4869V38.4492H22.5496V34.5117Z" fill="#8E268E"/>
<path fill-rule="evenodd" clip-rule="evenodd" d="M5.04356 31.8311L3.76833 34.3709L2.43752 31.8311H5.04356ZM10.3872 32.6825L9.37918 34.3976L8.18078 31.8311H10.3872V32.6825ZM0.0300903 33.0228L0.662241 31.8311H0.91416L3.1828 36.1603L3.7943 37.327L4.38514 36.1491L6.55356 31.8311H6.68536L8.69525 36.1339L9.23933 37.2998L9.89198 36.1891L10.3872 35.3464V38.1972L9.37918 39.9125L7.25981 35.374L6.66866 34.1091L6.04137 35.3581L3.76833 39.8853L1.39021 35.3474L0.794806 34.2119L0.193784 35.3453L0.0300903 35.6537V33.0228ZM0.0300903 55.0821L0.788884 53.652L2.54169 56.9968H0.0300903V55.0821ZM4.99376 56.9968L6.62189 53.7542L8.13553 56.9968H4.99376ZM10.6275 56.9968L12.6716 53.5193L14.7908 56.9968H10.6275ZM17.3874 56.9968L19.1624 53.652L20.9152 56.9968H17.3874ZM23.4377 56.9968L24.9313 54.3262V56.9968H23.4377ZM24.9313 51.5583L24.7532 51.8769L22.1733 56.4907L19.7636 51.8927L19.1688 50.7569L18.5669 51.8903L16.0975 56.5432L13.2387 51.8529L12.6512 50.8888L12.0786 51.8634L9.37918 56.4573L7.25981 51.9188L6.66866 50.6539L6.04137 51.9033L3.76833 56.4301L1.39021 51.8927L0.794806 50.7564L0.193784 51.8903L0.0300903 52.1982V49.5679L0.788884 48.1373L3.1828 52.7048L3.7943 53.8719L4.38514 52.6943L6.62189 48.2401L8.69525 52.679L9.23933 53.8447L9.89198 52.7344L12.6716 48.0041L15.5607 52.7446L16.179 53.7592L16.7369 52.708L19.1624 48.1373L21.556 52.7048L22.1359 53.811L22.7452 52.721L24.9313 48.8114V51.5583ZM11.9076 46.6396L9.37918 50.9427L7.25981 46.4036L6.66866 45.139L6.04137 46.3887L3.76833 50.9154L1.39021 46.378L0.794806 45.2418L0.193784 46.3754L0.0300903 46.6835V46.6396V44.0521L0.788884 42.6217L3.1828 47.1902L3.7943 48.3563L4.38514 47.1797L6.62189 42.7252L8.69525 47.1635L9.23933 48.3295L9.89198 47.2195L10.3872 46.3767V46.6396H11.9076ZM18.4267 46.6396L16.0975 51.0279L13.4223 46.6396H15.2008L15.5607 47.2297L16.179 48.2437L16.7369 47.1925L17.0301 46.6396H18.4267ZM21.2678 46.6396L21.556 47.1902L22.1359 48.2963L22.7451 47.2058L23.0619 46.6396H24.5976L22.1733 50.9758L19.9007 46.6396H21.2678ZM10.3872 43.7124L9.37918 45.4277L7.25981 40.8892L6.66866 39.6238L6.04137 40.8733L3.76833 45.4005L1.39021 40.8628L0.794806 39.7266L0.193784 40.8597L0.0300903 41.1678V38.5377L0.788884 37.1072L3.1828 41.6753L3.7943 42.8421L4.38514 41.6645L6.62189 37.21L8.69525 41.6488L9.23933 42.815L9.89198 41.7045L10.3872 40.8616V43.7124Z" fill="#8E268E"/>
<path fill-rule="evenodd" clip-rule="evenodd" d="M27.524 29.709H31.4611V33.6463H27.524V29.709Z" fill="#8E268E"/>
<path fill-rule="evenodd" clip-rule="evenodd" d="M27.524 34.5117H31.4611V38.4492H27.524V34.5117Z" fill="#8E268E"/>
<path fill-rule="evenodd" clip-rule="evenodd" d="M31.6844 29.709H27.7469V33.6463H31.6844V29.709Z" fill="#8E268E"/>
<path fill-rule="evenodd" clip-rule="evenodd" d="M31.6844 34.5117H27.7469V38.4492H31.6844V34.5117Z" fill="#8E268E"/>
<path fill-rule="evenodd" clip-rule="evenodd" d="M26.71 29.709H22.7726V33.6463H26.71V29.709Z" fill="#8E268E"/>
<path fill-rule="evenodd" clip-rule="evenodd" d="M26.71 34.5117H22.7726V38.4492H26.71V34.5117Z" fill="#8E268E"/>
<path fill-rule="evenodd" clip-rule="evenodd" d="M2.63736 2.15479H0.207153V19.5039C0.304641 19.145 0.400154 18.7793 0.493542 18.4074C1.01666 16.3184 1.46523 14.0366 1.81494 11.7324C2.16829 9.40258 2.42052 7.05741 2.54655 4.87244C2.60046 3.93264 2.63128 3.02215 2.63736 2.15479ZM10.5285 2.15479H3.83454C3.82877 3.04204 3.79764 3.97182 3.74298 4.92954C3.61481 7.16461 3.35925 9.55169 3.00119 11.9111C2.85253 12.8912 2.32865 16.0705 1.37427 19.1314C1.03975 20.2046 0.651618 21.2642 0.207153 22.2111V24.6377C1.20207 23.2543 2.19927 21.7824 3.06527 20.2556C4.40003 17.9036 5.45083 15.6075 6.55113 13.1211C7.7181 10.4842 8.73686 7.8326 9.56763 5.3122C9.92433 4.23042 10.2453 3.17385 10.5285 2.15479ZM17.8671 2.15479H11.8208C11.5116 3.2929 11.1551 4.47642 10.7554 5.6897C9.91415 8.24199 8.87838 10.9361 7.68955 13.6238C7.20348 14.7223 5.45994 18.3443 3.32554 21.7256C2.34201 23.2833 1.27481 24.7919 0.207153 25.984V27.3742H0.684721C2.53243 25.5782 4.41005 23.6994 6.13188 21.6011C8.14252 19.1513 10.0557 16.5465 11.7948 13.8466C13.4398 11.2933 14.9326 8.65138 16.2088 5.9729C16.8119 4.70723 17.3671 3.4326 17.8671 2.15479ZM25.0294 2.15479H19.1497C18.5969 3.60282 17.9749 5.04692 17.2928 6.47901C15.993 9.20897 14.474 11.8978 12.8016 14.4938C12.0698 15.6292 9.38192 19.5381 6.08875 23.2656C4.80425 24.7192 3.42622 26.1466 2.03391 27.3742H4.37148C5.24523 26.7367 6.0971 26.0763 6.92863 25.3936C9.44706 23.3261 11.7795 21.0549 13.9544 18.625C16.184 16.1342 18.2498 13.4744 20.1813 10.6957C21.8977 8.22711 23.5061 5.6695 25.0294 3.0551V2.15479ZM11.9228 27.3742L25.0294 13.5877V5.31159C23.6997 7.51842 22.3078 9.6756 20.8417 11.7617C18.9673 14.4283 16.9664 16.9869 14.8107 19.3951C12.7613 21.6845 10.5686 23.8402 8.20873 25.8251C7.57992 26.3543 6.93957 26.8706 6.28737 27.3742H11.9228Z" fill="url(#paint1_linear)"/>
<path fill-rule="evenodd" clip-rule="evenodd" d="M171.949 16.5755V33.2158H162.782L167.699 16.5755H171.949ZM162.782 10.4004L155.972 33.2158H152.387V38.9699H159.044H176.405H181.895V33.2158H178.761V10.4004H162.782Z" fill="#8E268E"/>
<path fill-rule="evenodd" clip-rule="evenodd" d="M196.094 16.1359C197.314 16.1443 198.424 16.3666 199.423 16.8016C200.412 17.2371 201.275 17.8432 201.992 18.62C202.709 19.3964 203.264 20.2928 203.648 21.3169C204.04 22.3498 204.237 23.4507 204.237 24.6372C204.237 25.832 204.031 26.9419 203.639 27.9573C203.246 28.973 202.692 29.8609 201.975 30.6201C201.249 31.38 200.396 31.969 199.397 32.3957C198.407 32.8137 197.306 33.0274 196.094 33.036C194.813 33.0274 193.644 32.8054 192.595 32.3612C191.553 31.9178 190.648 31.2945 189.898 30.4919C189.146 29.6984 188.566 28.7681 188.156 27.7013C187.755 26.6342 187.542 25.4736 187.542 24.2275C187.55 23.0411 187.78 21.9572 188.233 20.9755C188.694 19.9938 189.317 19.1403 190.111 18.415C190.905 17.6896 191.809 17.1346 192.833 16.7333C193.858 16.3408 194.941 16.1359 196.094 16.1359ZM195.787 9.47852C193.602 9.49552 191.588 9.89671 189.761 10.6819C187.935 11.4673 186.339 12.5595 184.998 13.9424C183.649 15.3337 182.6 16.9468 181.857 18.765C181.115 20.5912 180.739 22.5463 180.731 24.6372C180.739 26.7112 181.123 28.6574 181.865 30.4666C182.617 32.2762 183.658 33.872 185.016 35.2549C186.364 36.6378 187.952 37.7215 189.786 38.4985C191.613 39.2836 193.61 39.6764 195.787 39.6934C197.963 39.6764 199.977 39.2836 201.821 38.4985C203.674 37.7215 205.287 36.6378 206.661 35.2549C208.043 33.872 209.11 32.2762 209.879 30.4666C210.647 28.6574 211.039 26.7112 211.048 24.6372C211.039 22.5463 210.647 20.5912 209.887 18.765C209.127 16.9468 208.061 15.3337 206.686 13.9424C205.312 12.5595 203.699 11.4673 201.847 10.6819C199.995 9.89671 197.972 9.49552 195.787 9.47852Z" fill="#8E268E"/>
<path fill-rule="evenodd" clip-rule="evenodd" d="M66.2747 10.4004V16.4434H72.5738V38.7716H79.3848V16.4434H85.6837V10.4004H66.2747Z" fill="#8E268E"/>
<path fill-rule="evenodd" clip-rule="evenodd" d="M101.037 16.1359C102.258 16.1443 103.368 16.3666 104.366 16.8016C105.356 17.2371 106.218 17.8432 106.935 18.62C107.652 19.3964 108.207 20.2928 108.591 21.3169C108.984 22.3498 109.18 23.4507 109.18 24.6372C109.18 25.832 108.975 26.9419 108.582 27.9573C108.19 28.973 107.635 29.8609 106.918 30.6201C106.193 31.38 105.339 31.969 104.34 32.3957C103.35 32.8137 102.249 33.0274 101.037 33.036C99.7568 33.0274 98.5879 32.8054 97.5379 32.3612C96.4965 31.9178 95.5917 31.2945 94.8407 30.4919C94.0898 29.6984 93.5091 28.7681 93.0994 27.7013C92.6986 26.6342 92.4851 25.4736 92.4851 24.2275C92.4937 23.0411 92.7239 21.9572 93.1764 20.9755C93.6373 19.9938 94.26 19.1403 95.0539 18.415C95.8478 17.6896 96.7528 17.1346 97.7766 16.7333C98.8011 16.3408 99.8851 16.1359 101.037 16.1359ZM100.73 9.47852C98.5451 9.49552 96.5308 9.89671 94.7042 10.6819C92.8779 11.4673 91.2818 12.5595 89.9413 13.9424C88.5928 15.3337 87.5429 16.9468 86.8004 18.765C86.0579 20.5912 85.6822 22.5463 85.6738 24.6372C85.6822 26.7112 86.0664 28.6574 86.8091 30.4666C87.5603 32.2762 88.6012 33.872 89.9586 35.2549C91.307 36.6378 92.8947 37.7215 94.7295 38.4985C96.5563 39.2836 98.5534 39.6764 100.73 39.6934C102.907 39.6764 104.921 39.2836 106.765 38.4985C108.617 37.7215 110.23 36.6378 111.604 35.2549C112.987 33.872 114.053 32.2762 114.822 30.4666C115.59 28.6574 115.983 26.7112 115.991 24.6372C115.983 22.5463 115.59 20.5912 114.83 18.765C114.071 16.9468 113.004 15.3337 111.63 13.9424C110.255 12.5595 108.642 11.4673 106.79 10.6819C104.938 9.89671 102.915 9.49552 100.73 9.47852Z" fill="#8E268E"/>
<path fill-rule="evenodd" clip-rule="evenodd" d="M151.012 38.8523L149.59 10.6582H138.839L136.58 18.7896C135.677 21.997 134.683 26.2886 133.825 29.9928H133.644C133.012 26.2886 132.108 22.2228 131.295 18.8347L129.262 10.6582H118.285L116.57 38.8523H124.025L124.383 30.2184C124.519 26.7403 124.7 22.2228 124.88 17.9314H124.971C125.648 22.0872 126.597 26.6046 127.365 29.9023L129.545 38.8523H136.771L139.336 29.8569C140.33 26.5142 141.595 21.9517 142.543 17.9314H142.679C142.633 22.6744 142.724 26.7403 142.814 30.2184L143.1 38.8523H151.012Z" fill="#8E268E"/>
<path fill-rule="evenodd" clip-rule="evenodd" d="M245.919 38.8523L244.496 10.6582H233.745L231.486 18.7896C230.582 21.997 229.589 26.2886 228.73 29.9928H228.55C227.917 26.2886 227.013 22.2228 226.2 18.8347L224.168 10.6582H213.191L211.475 38.8523H218.931L219.289 30.2184C219.424 26.7403 219.605 22.2228 219.786 17.9314H219.876C220.554 22.0872 221.502 26.6046 222.271 29.9023L224.451 38.8523H231.677L234.242 29.8569C235.236 26.5142 236.501 21.9517 237.449 17.9314H237.585C237.54 22.6744 237.629 26.7403 237.72 30.2184L238.007 38.8523H245.919Z" fill="#8E268E"/>
<path fill-rule="evenodd" clip-rule="evenodd" d="M172.217 16.5967V33.2373H163.05L167.967 16.5967H172.217ZM163.05 10.4219L156.239 33.2373H152.654V38.9912H159.312H176.673H182.163V33.2373H179.028V10.4219H163.05Z" fill="url(#paint2_linear)"/>
<path fill-rule="evenodd" clip-rule="evenodd" d="M196.362 16.1579C197.582 16.1662 198.692 16.3885 199.691 16.8236C200.68 17.2591 201.542 17.8651 202.26 18.642C202.977 19.4183 203.531 20.3148 203.915 21.3387C204.308 22.3717 204.504 23.4726 204.504 24.659C204.504 25.854 204.299 26.9638 203.907 27.9792C203.514 28.9948 202.96 29.8827 202.242 30.6421C201.517 31.4019 200.664 31.991 199.665 32.4177C198.675 32.8356 197.574 33.0494 196.362 33.0579C195.081 33.0494 193.912 32.8272 192.863 32.383C191.821 31.9396 190.916 31.3164 190.165 30.5139C189.414 29.7204 188.834 28.7901 188.424 27.7232C188.023 26.6562 187.81 25.4956 187.81 24.2495C187.818 23.063 188.048 21.979 188.501 20.9975C188.962 20.0158 189.585 19.1619 190.378 18.437C191.172 17.7113 192.077 17.1566 193.101 16.7553C194.125 16.3627 195.209 16.1579 196.362 16.1579ZM196.055 9.50049C193.87 9.5175 191.856 9.91868 190.029 10.7039C188.203 11.4891 186.607 12.5814 185.266 13.9644C183.917 15.3557 182.868 16.9688 182.125 18.7869C181.382 20.6132 181.007 22.5681 180.998 24.659C181.007 26.733 181.391 28.6794 182.133 30.4886C182.885 32.2982 183.926 33.8939 185.283 35.2768C186.632 36.6597 188.219 37.7433 190.054 38.5202C191.881 39.3054 193.878 39.6984 196.055 39.7154C198.231 39.6984 200.245 39.3054 202.089 38.5202C203.942 37.7433 205.554 36.6597 206.929 35.2768C208.311 33.8939 209.378 32.2982 210.146 30.4886C210.915 28.6794 211.307 26.733 211.316 24.659C211.307 22.5681 210.915 20.6132 210.155 18.7869C209.395 16.9688 208.329 15.3557 206.954 13.9644C205.58 12.5814 203.967 11.4891 202.115 10.7039C200.262 9.91868 198.24 9.5175 196.055 9.50049Z" fill="url(#paint3_linear)"/>
<path fill-rule="evenodd" clip-rule="evenodd" d="M66.5425 10.4219V16.4649H72.8416V38.793H79.6526V16.4649H85.9515V10.4219H66.5425Z" fill="url(#paint4_linear)"/>
<path fill-rule="evenodd" clip-rule="evenodd" d="M101.305 16.1579C102.526 16.1662 103.635 16.3885 104.634 16.8236C105.624 17.2591 106.486 17.8651 107.203 18.642C107.92 19.4183 108.475 20.3148 108.859 21.3387C109.251 22.3717 109.448 23.4726 109.448 24.659C109.448 25.854 109.243 26.9638 108.85 27.9792C108.458 28.9948 107.903 29.8827 107.186 30.6421C106.46 31.4019 105.607 31.991 104.608 32.4177C103.618 32.8356 102.517 33.0494 101.305 33.0579C100.025 33.0494 98.8557 32.8272 97.8055 32.383C96.7643 31.9396 95.8596 31.3164 95.1085 30.5139C94.3576 29.7204 93.7769 28.7901 93.3673 27.7232C92.9664 26.6562 92.7529 25.4956 92.7529 24.2495C92.7615 23.063 92.9916 21.979 93.4442 20.9975C93.9051 20.0158 94.5278 19.1619 95.3217 18.437C96.1156 17.7113 97.0206 17.1566 98.0444 16.7553C99.0689 16.3627 100.153 16.1579 101.305 16.1579ZM100.998 9.50049C98.8129 9.5175 96.7986 9.91868 94.972 10.7039C93.1457 11.4891 91.5496 12.5814 90.2091 13.9644C88.8607 15.3557 87.8108 16.9688 87.0682 18.7869C86.3255 20.6132 85.95 22.5681 85.9417 24.659C85.95 26.733 86.3342 28.6794 87.0767 30.4886C87.8281 32.2982 88.869 33.8939 90.2264 35.2768C91.5747 36.6597 93.1624 37.7433 94.9974 38.5202C96.8241 39.3054 98.8212 39.6984 100.998 39.7154C103.174 39.6984 105.189 39.3054 107.032 38.5202C108.885 37.7433 110.498 36.6597 111.872 35.2768C113.255 33.8939 114.321 32.2982 115.09 30.4886C115.858 28.6794 116.25 26.733 116.259 24.659C116.25 22.5681 115.858 20.6132 115.098 18.7869C114.339 16.9688 113.272 15.3557 111.897 13.9644C110.523 12.5814 108.91 11.4891 107.058 10.7039C105.206 9.91868 103.183 9.5175 100.998 9.50049Z" fill="url(#paint5_linear)"/>
<path fill-rule="evenodd" clip-rule="evenodd" d="M151.28 38.8741L149.858 10.6797H139.107L136.848 18.8111C135.945 22.0185 134.951 26.3102 134.092 30.0143H133.912C133.279 26.3102 132.376 22.2444 131.563 18.8563L129.53 10.6797H118.553L116.838 38.8741H124.293L124.651 30.2402C124.787 26.7619 124.967 22.2444 125.148 17.953H125.238C125.916 22.109 126.865 26.6263 127.633 29.9239L129.813 38.8741H137.039L139.604 29.8787C140.598 26.536 141.862 21.9735 142.811 17.953H142.947C142.901 22.6962 142.991 26.7619 143.082 30.2402L143.368 38.8741H151.28Z" fill="url(#paint6_linear)"/>
<path fill-rule="evenodd" clip-rule="evenodd" d="M246.186 38.8741L244.764 10.6797H234.013L231.754 18.8111C230.85 22.0185 229.857 26.3102 228.998 30.0143H228.818C228.185 26.3102 227.281 22.2444 226.468 18.8563L224.435 10.6797H213.458L211.743 38.8741H219.198L219.557 30.2402C219.692 26.7619 219.873 22.2444 220.054 17.953H220.144C220.822 22.109 221.77 26.6263 222.539 29.9239L224.718 38.8741H231.945L234.51 29.8787C235.503 26.536 236.768 21.9735 237.717 17.953H237.852C237.807 22.6962 237.897 26.7619 237.988 30.2402L238.275 38.8741H246.186Z" fill="url(#paint7_linear)"/>
<path d="M72.932 53H71.936V44.996H77.18V45.884H72.932V53ZM81.0437 53H80.0837V44.996H81.0797V51.248L85.6877 44.996H86.7077V53H85.7117V46.616L81.0437 53ZM96.8018 53H95.8058V45.884H91.1258V53H90.1298V44.996H96.8018V53ZM105.467 53H100.223V44.996H105.467V45.884H101.219V48.464H105.383V49.352H101.219V52.112H105.467V53ZM109.601 53H108.605V44.996H111.821C112.597 44.996 113.209 45.228 113.657 45.692C114.105 46.156 114.329 46.728 114.329 47.408C114.329 48.088 114.101 48.66 113.645 49.124C113.197 49.588 112.589 49.82 111.821 49.82H109.601V53ZM111.701 48.932C112.173 48.932 112.557 48.792 112.853 48.512C113.149 48.224 113.297 47.856 113.297 47.408C113.297 46.96 113.149 46.596 112.853 46.316C112.557 46.028 112.173 45.884 111.701 45.884H109.601V48.932H111.701ZM125.034 53H124.038V46.412L121.314 53H120.906L118.194 46.412V53H117.198V44.996H118.626L121.11 51.02L123.606 44.996H125.034V53ZM135.303 53H134.163L133.455 51.224H129.471L128.763 53H127.623L130.839 44.996H132.075L135.303 53ZM133.155 50.336L131.463 46.028L129.759 50.336H133.155ZM138.895 53H137.899V44.996H141.115C141.891 44.996 142.503 45.228 142.951 45.692C143.399 46.156 143.623 46.728 143.623 47.408C143.623 48.088 143.395 48.66 142.939 49.124C142.491 49.588 141.883 49.82 141.115 49.82H138.895V53ZM140.995 48.932C141.467 48.932 141.851 48.792 142.147 48.512C142.443 48.224 142.591 47.856 142.591 47.408C142.591 46.96 142.443 46.596 142.147 46.316C141.851 46.028 141.467 45.884 140.995 45.884H138.895V48.932H140.995ZM152.564 53H151.328L148.292 49.4L147.488 50.312V53H146.492V44.996H147.488V49.136L151.028 44.996H152.276L148.94 48.8L152.564 53ZM160.493 53H155.249V44.996H160.493V45.884H156.245V48.464H160.409V49.352H156.245V52.112H160.493V53ZM166.607 53H165.611V45.884H163.079V44.996H169.151V45.884H166.607V53ZM185.297 44.996H186.293V53H176.669V44.996H177.665V52.112H180.989V44.996H181.985V52.112H185.297V44.996ZM192.691 53H191.695V45.884H189.163V44.996H195.235V45.884H192.691V53ZM201.429 53.144C200.253 53.144 199.297 52.752 198.561 51.968C197.825 51.184 197.457 50.196 197.457 49.004C197.457 47.812 197.825 46.824 198.561 46.04C199.297 45.256 200.253 44.864 201.429 44.864C202.597 44.864 203.549 45.256 204.285 46.04C205.029 46.824 205.401 47.812 205.401 49.004C205.401 50.196 205.029 51.184 204.285 51.968C203.549 52.752 202.597 53.144 201.429 53.144ZM201.429 52.256C202.309 52.256 203.017 51.952 203.553 51.344C204.097 50.728 204.369 49.948 204.369 49.004C204.369 48.052 204.097 47.272 203.553 46.664C203.017 46.056 202.309 45.752 201.429 45.752C200.541 45.752 199.829 46.056 199.293 46.664C198.757 47.272 198.489 48.052 198.489 49.004C198.489 49.948 198.757 50.728 199.293 51.344C199.829 51.952 200.541 52.256 201.429 52.256ZM209.502 53H208.506V44.996H211.722C212.498 44.996 213.11 45.228 213.558 45.692C214.006 46.156 214.23 46.728 214.23 47.408C214.23 48.088 214.002 48.66 213.546 49.124C213.098 49.588 212.49 49.82 211.722 49.82H209.502V53ZM211.602 48.932C212.074 48.932 212.458 48.792 212.754 48.512C213.05 48.224 213.198 47.856 213.198 47.408C213.198 46.96 213.05 46.596 212.754 46.316C212.458 46.028 212.074 45.884 211.602 45.884H209.502V48.932H211.602ZM231.727 48.8C231.143 48.8 230.671 48.612 230.311 48.236C229.959 47.852 229.783 47.38 229.783 46.82C229.783 46.26 229.959 45.792 230.311 45.416C230.671 45.032 231.143 44.84 231.727 44.84C232.319 44.84 232.791 45.032 233.143 45.416C233.503 45.792 233.683 46.26 233.683 46.82C233.683 47.38 233.503 47.852 233.143 48.236C232.791 48.612 232.319 48.8 231.727 48.8ZM231.727 48.224C232.111 48.224 232.415 48.092 232.639 47.828C232.863 47.564 232.975 47.228 232.975 46.82C232.975 46.42 232.863 46.092 232.639 45.836C232.415 45.572 232.111 45.44 231.727 45.44C231.351 45.44 231.051 45.572 230.827 45.836C230.611 46.092 230.503 46.42 230.503 46.82C230.503 47.228 230.611 47.564 230.827 47.828C231.051 48.092 231.351 48.224 231.727 48.224ZM228.367 53H227.407L222.739 46.616V53H221.743V44.996H222.763L227.371 51.248V44.996H228.367V53ZM238.848 53H237.852V46.316L236.568 47.672L235.968 47.06L237.972 44.996H238.848V53Z" fill="#CBD74D"/>
</g>
<path d="M95.6941 68H94.6981V61.316L93.4141 62.672L92.8141 62.06L94.8181 59.996H95.6941V68ZM100.325 68.144C99.7885 68.144 99.3165 68.032 98.9085 67.808C98.5005 67.584 98.1765 67.28 97.9365 66.896C97.7045 66.504 97.5285 66.068 97.4085 65.588C97.2965 65.1 97.2405 64.576 97.2405 64.016C97.2405 63.264 97.3525 62.584 97.5765 61.976C97.8005 61.368 98.1605 60.868 98.6565 60.476C99.1605 60.076 99.7725 59.876 100.493 59.876C101.413 59.876 102.153 60.196 102.713 60.836L102.209 61.58C101.745 61.036 101.173 60.764 100.493 60.764C99.9965 60.764 99.5725 60.92 99.2205 61.232C98.8765 61.544 98.6245 61.932 98.4645 62.396C98.3125 62.852 98.2365 63.356 98.2365 63.908C98.2365 64.044 98.2405 64.148 98.2485 64.22C98.4485 63.9 98.7565 63.612 99.1725 63.356C99.5965 63.1 100.045 62.972 100.517 62.972C101.277 62.972 101.901 63.196 102.389 63.644C102.885 64.084 103.133 64.712 103.133 65.528C103.133 66.256 102.877 66.876 102.365 67.388C101.853 67.892 101.173 68.144 100.325 68.144ZM100.289 67.256C100.865 67.256 101.313 67.084 101.633 66.74C101.961 66.388 102.125 65.996 102.125 65.564C102.125 65.004 101.953 64.576 101.609 64.28C101.265 63.984 100.821 63.836 100.277 63.836C99.8845 63.836 99.5085 63.948 99.1485 64.172C98.7885 64.388 98.4965 64.676 98.2725 65.036C98.3285 65.628 98.5205 66.148 98.8485 66.596C99.1765 67.036 99.6565 67.256 100.289 67.256ZM109.862 68H104.366V67.208C105.198 66.552 105.842 66.032 106.298 65.648C106.762 65.256 107.206 64.844 107.63 64.412C108.062 63.972 108.366 63.584 108.542 63.248C108.718 62.904 108.806 62.564 108.806 62.228C108.806 61.748 108.642 61.384 108.314 61.136C107.986 60.888 107.594 60.764 107.138 60.764C106.218 60.764 105.494 61.1 104.966 61.772L104.354 61.136C104.658 60.736 105.054 60.428 105.542 60.212C106.038 59.988 106.57 59.876 107.138 59.876C107.866 59.876 108.494 60.08 109.022 60.488C109.558 60.896 109.826 61.476 109.826 62.228C109.826 62.972 109.506 63.716 108.866 64.46C108.226 65.196 107.25 66.08 105.938 67.112H109.862V68ZM114.647 62.204H115.547V63.836C115.547 64.356 115.667 64.716 115.907 64.916C116.147 65.116 116.519 65.216 117.023 65.216C117.647 65.216 118.159 65.112 118.559 64.904V62.204H119.459V68H118.559V65.636C118.047 65.892 117.459 66.02 116.795 66.02C116.043 66.02 115.495 65.868 115.151 65.564C114.815 65.26 114.647 64.776 114.647 64.112V62.204ZM123.875 68.144C123.011 68.144 122.303 67.864 121.751 67.304C121.199 66.736 120.923 66 120.923 65.096C120.923 64.248 121.195 63.532 121.739 62.948C122.283 62.356 122.963 62.06 123.779 62.06C124.635 62.06 125.311 62.356 125.807 62.948C126.311 63.532 126.563 64.272 126.563 65.168V65.396H121.871C121.911 65.964 122.119 66.44 122.495 66.824C122.871 67.208 123.359 67.4 123.959 67.4C124.679 67.4 125.275 67.156 125.747 66.668L126.179 67.256C125.587 67.848 124.819 68.144 123.875 68.144ZM125.675 64.736C125.667 64.24 125.499 63.796 125.171 63.404C124.843 63.004 124.375 62.804 123.767 62.804C123.191 62.804 122.735 63 122.399 63.392C122.071 63.784 121.895 64.232 121.871 64.736H125.675ZM127.337 68.144V67.4C127.609 67.4 127.833 67.22 128.009 66.86C128.185 66.5 128.329 65.9 128.441 65.06L128.813 62.204H132.845V68H131.945V62.996H129.605L129.341 65.168C129.213 66.232 128.989 66.996 128.669 67.46C128.349 67.916 127.905 68.144 127.337 68.144ZM135.59 67.928C135.462 68.056 135.306 68.12 135.122 68.12C134.938 68.12 134.782 68.056 134.654 67.928C134.526 67.8 134.462 67.644 134.462 67.46C134.462 67.276 134.526 67.12 134.654 66.992C134.782 66.864 134.938 66.8 135.122 66.8C135.306 66.8 135.462 66.864 135.59 66.992C135.718 67.12 135.782 67.276 135.782 67.46C135.782 67.644 135.718 67.8 135.59 67.928ZM143.057 68.144C142.201 68.144 141.505 67.856 140.969 67.28C140.433 66.696 140.165 65.968 140.165 65.096C140.165 64.224 140.433 63.5 140.969 62.924C141.505 62.348 142.201 62.06 143.057 62.06C143.953 62.06 144.661 62.396 145.181 63.068L144.581 63.62C144.213 63.116 143.721 62.864 143.105 62.864C142.497 62.864 142.009 63.072 141.641 63.488C141.281 63.904 141.101 64.44 141.101 65.096C141.101 65.752 141.281 66.292 141.641 66.716C142.009 67.132 142.497 67.34 143.105 67.34C143.713 67.34 144.205 67.088 144.581 66.584L145.181 67.136C144.661 67.808 143.953 68.144 143.057 68.144ZM149.059 68.144C148.195 68.144 147.487 67.864 146.935 67.304C146.383 66.736 146.107 66 146.107 65.096C146.107 64.248 146.379 63.532 146.923 62.948C147.467 62.356 148.147 62.06 148.963 62.06C149.819 62.06 150.495 62.356 150.991 62.948C151.495 63.532 151.747 64.272 151.747 65.168V65.396H147.055C147.095 65.964 147.303 66.44 147.679 66.824C148.055 67.208 148.543 67.4 149.143 67.4C149.863 67.4 150.459 67.156 150.931 66.668L151.363 67.256C150.771 67.848 150.003 68.144 149.059 68.144ZM150.859 64.736C150.851 64.24 150.683 63.796 150.355 63.404C150.027 63.004 149.559 62.804 148.951 62.804C148.375 62.804 147.919 63 147.583 63.392C147.255 63.784 147.079 64.232 147.055 64.736H150.859ZM154.068 68H153.204V62.204H154.104V66.632L157.14 62.204H158.028V68H157.128V63.488L154.068 68ZM157.716 60.488C157.196 61.192 156.496 61.544 155.616 61.544C154.744 61.544 154.04 61.192 153.504 60.488L153.948 60.104C154.364 60.68 154.92 60.968 155.616 60.968C156.32 60.968 156.872 60.68 157.272 60.104L157.716 60.488ZM159.705 62.204H160.605V63.836C160.605 64.356 160.725 64.716 160.965 64.916C161.205 65.116 161.577 65.216 162.081 65.216C162.705 65.216 163.217 65.112 163.617 64.904V62.204H164.517V68H163.617V65.636C163.105 65.892 162.517 66.02 161.853 66.02C161.101 66.02 160.553 65.868 160.209 65.564C159.873 65.26 159.705 64.776 159.705 64.112V62.204ZM170.842 68H169.942V67.34C169.454 67.876 168.814 68.144 168.022 68.144C167.486 68.144 167.014 67.972 166.606 67.628C166.198 67.284 165.994 66.816 165.994 66.224C165.994 65.616 166.194 65.148 166.594 64.82C167.002 64.484 167.478 64.316 168.022 64.316C168.846 64.316 169.486 64.58 169.942 65.108V64.064C169.942 63.68 169.806 63.38 169.534 63.164C169.262 62.948 168.91 62.84 168.478 62.84C167.798 62.84 167.206 63.108 166.702 63.644L166.282 63.02C166.898 62.38 167.67 62.06 168.598 62.06C169.262 62.06 169.802 62.22 170.218 62.54C170.634 62.86 170.842 63.352 170.842 64.016V68ZM168.346 67.496C169.066 67.496 169.598 67.256 169.942 66.776V65.684C169.598 65.204 169.066 64.964 168.346 64.964C167.93 64.964 167.586 65.084 167.314 65.324C167.05 65.556 166.918 65.86 166.918 66.236C166.918 66.604 167.05 66.908 167.314 67.148C167.586 67.38 167.93 67.496 168.346 67.496ZM175.202 68.144C174.346 68.144 173.65 67.856 173.114 67.28C172.578 66.696 172.31 65.968 172.31 65.096C172.31 64.224 172.578 63.5 173.114 62.924C173.65 62.348 174.346 62.06 175.202 62.06C176.098 62.06 176.806 62.396 177.326 63.068L176.726 63.62C176.358 63.116 175.866 62.864 175.25 62.864C174.642 62.864 174.154 63.072 173.786 63.488C173.426 63.904 173.246 64.44 173.246 65.096C173.246 65.752 173.426 66.292 173.786 66.716C174.154 67.132 174.642 67.34 175.25 67.34C175.858 67.34 176.35 67.088 176.726 66.584L177.326 67.136C176.806 67.808 176.098 68.144 175.202 68.144ZM184.933 68H181.681V62.204H184.873C185.377 62.204 185.773 62.34 186.061 62.612C186.357 62.884 186.505 63.244 186.505 63.692C186.505 64.02 186.413 64.304 186.229 64.544C186.053 64.776 185.833 64.932 185.569 65.012C185.865 65.084 186.113 65.256 186.313 65.528C186.521 65.8 186.625 66.1 186.625 66.428C186.625 66.9 186.473 67.28 186.169 67.568C185.873 67.856 185.461 68 184.933 68ZM184.753 67.208C185.041 67.208 185.269 67.128 185.437 66.968C185.605 66.808 185.689 66.592 185.689 66.32C185.689 66.072 185.605 65.86 185.437 65.684C185.269 65.508 185.041 65.42 184.753 65.42H182.581V67.208H184.753ZM184.717 64.628C184.989 64.628 185.201 64.556 185.353 64.412C185.505 64.26 185.581 64.064 185.581 63.824C185.581 63.568 185.505 63.368 185.353 63.224C185.201 63.072 184.989 62.996 184.717 62.996H182.581V64.628H184.717ZM188.325 62.204H189.225V64.448H191.397C191.973 64.448 192.421 64.62 192.741 64.964C193.061 65.3 193.221 65.72 193.221 66.224C193.221 66.728 193.057 67.152 192.729 67.496C192.409 67.832 191.965 68 191.397 68H188.325V62.204ZM191.301 65.24H189.225V67.208H191.301C191.621 67.208 191.865 67.12 192.033 66.944C192.209 66.76 192.297 66.52 192.297 66.224C192.297 65.928 192.209 65.692 192.033 65.516C191.865 65.332 191.621 65.24 191.301 65.24ZM195.069 68H194.169V62.204H195.069V68ZM197.984 66.692C198.336 67.124 198.808 67.34 199.4 67.34C199.992 67.34 200.46 67.124 200.804 66.692C201.148 66.252 201.32 65.716 201.32 65.084C201.32 64.468 201.148 63.944 200.804 63.512C200.46 63.08 199.992 62.864 199.4 62.864C198.808 62.864 198.336 63.08 197.984 63.512C197.64 63.944 197.468 64.468 197.468 65.084C197.468 65.716 197.64 66.252 197.984 66.692ZM199.4 68.144C198.528 68.144 197.832 67.836 197.312 67.22C196.792 66.604 196.532 65.808 196.532 64.832C196.532 63.456 196.78 62.44 197.276 61.784C197.772 61.12 198.536 60.72 199.568 60.584C200.184 60.488 200.608 60.396 200.84 60.308C201.08 60.22 201.2 60.116 201.2 59.996H202.076C202.076 60.22 202.008 60.416 201.872 60.584C201.736 60.744 201.54 60.872 201.284 60.968C201.036 61.064 200.8 61.14 200.576 61.196C200.36 61.244 200.1 61.288 199.796 61.328C198.996 61.44 198.416 61.66 198.056 61.988C197.704 62.316 197.472 62.752 197.36 63.296C197.888 62.472 198.616 62.06 199.544 62.06C200.344 62.06 200.996 62.352 201.5 62.936C202.004 63.52 202.256 64.236 202.256 65.084C202.256 65.948 201.996 66.676 201.476 67.268C200.956 67.852 200.264 68.144 199.4 68.144ZM204.658 68H203.794V62.204H204.694V66.632L207.73 62.204H208.618V68H207.718V63.488L204.658 68ZM213.271 68.144C212.455 68.144 211.803 67.804 211.315 67.124V70.208H210.415V62.204H211.315V63.068C211.531 62.764 211.811 62.52 212.155 62.336C212.499 62.152 212.871 62.06 213.271 62.06C214.039 62.06 214.659 62.336 215.131 62.888C215.611 63.432 215.851 64.168 215.851 65.096C215.851 66.024 215.611 66.764 215.131 67.316C214.659 67.868 214.039 68.144 213.271 68.144ZM213.043 67.34C213.611 67.34 214.063 67.132 214.399 66.716C214.735 66.292 214.903 65.752 214.903 65.096C214.903 64.44 214.735 63.904 214.399 63.488C214.063 63.072 213.611 62.864 213.043 62.864C212.699 62.864 212.363 62.956 212.035 63.14C211.715 63.316 211.475 63.532 211.315 63.788V66.404C211.475 66.668 211.715 66.892 212.035 67.076C212.363 67.252 212.699 67.34 213.043 67.34ZM221.806 68H220.906V67.34C220.418 67.876 219.778 68.144 218.986 68.144C218.45 68.144 217.978 67.972 217.57 67.628C217.162 67.284 216.958 66.816 216.958 66.224C216.958 65.616 217.158 65.148 217.558 64.82C217.966 64.484 218.442 64.316 218.986 64.316C219.81 64.316 220.45 64.58 220.906 65.108V64.064C220.906 63.68 220.77 63.38 220.498 63.164C220.226 62.948 219.874 62.84 219.442 62.84C218.762 62.84 218.17 63.108 217.666 63.644L217.246 63.02C217.862 62.38 218.634 62.06 219.562 62.06C220.226 62.06 220.766 62.22 221.182 62.54C221.598 62.86 221.806 63.352 221.806 64.016V68ZM219.31 67.496C220.03 67.496 220.562 67.256 220.906 66.776V65.684C220.562 65.204 220.03 64.964 219.31 64.964C218.894 64.964 218.55 65.084 218.278 65.324C218.014 65.556 217.882 65.86 217.882 66.236C217.882 66.604 218.014 66.908 218.278 67.148C218.55 67.38 218.894 67.496 219.31 67.496ZM228.471 68.144C227.671 68.144 227.011 67.888 226.491 67.376C225.979 66.856 225.691 66.2 225.627 65.408H224.511V68H223.611V62.204H224.511V64.616H225.639C225.735 63.872 226.035 63.26 226.539 62.78C227.051 62.3 227.695 62.06 228.471 62.06C229.335 62.06 230.031 62.352 230.559 62.936C231.087 63.512 231.351 64.232 231.351 65.096C231.351 65.96 231.087 66.684 230.559 67.268C230.031 67.852 229.335 68.144 228.471 68.144ZM228.471 67.34C229.071 67.34 229.543 67.124 229.887 66.692C230.231 66.252 230.403 65.72 230.403 65.096C230.403 64.472 230.231 63.944 229.887 63.512C229.543 63.08 229.071 62.864 228.471 62.864C227.887 62.864 227.419 63.084 227.067 63.524C226.723 63.956 226.551 64.48 226.551 65.096C226.551 65.72 226.723 66.252 227.067 66.692C227.411 67.124 227.879 67.34 228.471 67.34ZM234.766 68H233.866V62.996H232.186V62.204H236.458V62.996H234.766V68Z" fill="#666666"/>
<path fill-rule="evenodd" clip-rule="evenodd" d="M70.9598 68.9998V67.1696C70.9598 67.1196 70.9749 67.0727 70.9996 67.0344C71.7017 65.7027 72.9812 64.6625 74.547 64.1714C74.585 64.1592 74.6237 64.1484 74.6611 64.1365C74.9516 64.0454 75.1611 63.7873 75.1611 63.4833C75.1611 63.2797 75.0666 63.0975 74.9181 62.9711C74.9062 62.9621 74.8954 62.9527 74.8842 62.943C74.1949 62.3406 73.7485 61.3817 73.7485 60.3012C73.7485 58.5067 74.9794 57.0453 76.5135 57.001C76.5563 56.9996 76.5982 56.9999 76.6412 57.0007C78.1825 57.0353 79.4223 58.4996 79.4223 60.3012C79.4223 61.3817 78.9757 62.3406 78.2866 62.943C78.2755 62.9527 78.2646 62.9621 78.2528 62.9711C78.104 63.0975 78.0097 63.2797 78.0097 63.4833C78.0097 63.7873 78.2193 64.0454 78.5098 64.1365C78.5473 64.1484 78.5859 64.1592 78.624 64.1714C80.1897 64.6625 81.4691 65.7027 82.1712 67.0344C82.196 67.0727 82.2111 67.1196 82.2111 67.1696V68.9998C78.4584 68.9972 74.7124 69.0006 70.9598 68.9998ZM80.6967 63.9273C80.8166 63.8776 80.9389 63.8327 81.0645 63.7933C81.0898 63.785 81.1155 63.778 81.1403 63.77C81.3338 63.7093 81.4737 63.5372 81.4737 63.3348C81.4737 63.1991 81.4105 63.0776 81.3118 62.9936C81.3037 62.9873 81.2968 62.9814 81.2892 62.9746C80.8295 62.5734 80.5322 61.9341 80.5322 61.2142C80.5322 60.0187 81.3526 59.0444 82.3747 59.0152C82.4035 59.0143 82.4312 59.0143 82.46 59.0149C83.4869 59.0379 84.3134 60.0139 84.3134 61.2142C84.3134 61.9341 84.0158 62.5734 83.5565 62.9746C83.5489 62.9814 83.5419 62.9873 83.5338 62.9936C83.4347 63.0776 83.3719 63.1991 83.3719 63.3348C83.3719 63.5372 83.5117 63.7093 83.7053 63.77C83.7301 63.778 83.7557 63.785 83.7811 63.7933C84.8247 64.1206 85.6772 64.8139 86.145 65.701C86.1616 65.7266 86.1716 65.7581 86.1716 65.791V67.0106L83.3457 67.01V67.0055C83.3457 66.8357 83.2988 66.6764 83.217 66.5376C82.6484 65.4796 81.7742 64.5794 80.6967 63.9273ZM67 67.0106V65.791C67 65.7581 67.0099 65.7266 67.0265 65.701C67.4943 64.8139 68.3468 64.1206 69.3904 63.7933C69.4157 63.785 69.4414 63.778 69.4662 63.77C69.6597 63.7093 69.7996 63.5372 69.7996 63.3348C69.7996 63.1991 69.7364 63.0776 69.6377 62.9936C69.6296 62.9873 69.6227 62.9814 69.6151 62.9746C69.1554 62.5734 68.858 61.9341 68.858 61.2142C68.858 60.0187 69.6785 59.0444 70.7006 59.0152C70.7294 59.0143 70.7571 59.0143 70.7858 59.0149C71.8128 59.0379 72.6393 60.0139 72.6393 61.2142C72.6393 61.9341 72.3416 62.5734 71.8824 62.9746C71.8748 62.9814 71.8677 62.9873 71.8597 62.9936C71.7606 63.0776 71.6978 63.1991 71.6978 63.3348C71.6978 63.5372 71.8376 63.7093 72.0312 63.77C72.056 63.778 72.0816 63.785 72.107 63.7933C72.2323 63.8327 72.3552 63.8776 72.4745 63.927C71.3967 64.5788 70.5224 65.4793 69.9539 66.5376C69.872 66.6764 69.8252 66.8357 69.8252 67.0055V67.0103L67 67.0106Z" fill="#BBCD55"/>
<defs>
<linearGradient id="paint0_linear" x1="53.9887" y1="27.5412" x2="53.9887" y2="3.215" gradientUnits="userSpaceOnUse">
<stop stop-color="#CDD656" stop-opacity="0.01"/>
<stop offset="1" stop-color="#CDD656"/>
</linearGradient>
<linearGradient id="paint1_linear" x1="24.5756" y1="27.5412" x2="24.5756" y2="3.215" gradientUnits="userSpaceOnUse">
<stop stop-color="#CDD656" stop-opacity="0.01"/>
<stop offset="1" stop-color="#CDD656"/>
</linearGradient>
<linearGradient id="paint2_linear" x1="182.385" y1="39.3851" x2="182.385" y2="10.3671" gradientUnits="userSpaceOnUse">
<stop stop-color="#AA60A5" stop-opacity="0.01"/>
<stop offset="0.25098" stop-color="#AA60A5" stop-opacity="0.01"/>
<stop offset="1" stop-color="#AA60A5"/>
</linearGradient>
<linearGradient id="paint3_linear" x1="210.702" y1="39.3854" x2="210.702" y2="10.3674" gradientUnits="userSpaceOnUse">
<stop stop-color="#AA60A5" stop-opacity="0.01"/>
<stop offset="0.25098" stop-color="#AA60A5" stop-opacity="0.01"/>
<stop offset="1" stop-color="#AA60A5"/>
</linearGradient>
<linearGradient id="paint4_linear" x1="86.1698" y1="39.3851" x2="86.1698" y2="10.3671" gradientUnits="userSpaceOnUse">
<stop stop-color="#AA60A5" stop-opacity="0.01"/>
<stop offset="0.25098" stop-color="#AA60A5" stop-opacity="0.01"/>
<stop offset="1" stop-color="#AA60A5"/>
</linearGradient>
<linearGradient id="paint5_linear" x1="115.645" y1="39.3854" x2="115.645" y2="10.3674" gradientUnits="userSpaceOnUse">
<stop stop-color="#AA60A5" stop-opacity="0.01"/>
<stop offset="0.25098" stop-color="#AA60A5" stop-opacity="0.01"/>
<stop offset="1" stop-color="#AA60A5"/>
</linearGradient>
<linearGradient id="paint6_linear" x1="151.777" y1="39.3851" x2="151.777" y2="10.367" gradientUnits="userSpaceOnUse">
<stop stop-color="#AA60A5" stop-opacity="0.01"/>
<stop offset="0.25098" stop-color="#AA60A5" stop-opacity="0.01"/>
<stop offset="1" stop-color="#AA60A5"/>
</linearGradient>
<linearGradient id="paint7_linear" x1="246.684" y1="39.3851" x2="246.684" y2="10.367" gradientUnits="userSpaceOnUse">
<stop stop-color="#AA60A5" stop-opacity="0.01"/>
<stop offset="0.25098" stop-color="#AA60A5" stop-opacity="0.01"/>
<stop offset="1" stop-color="#AA60A5"/>
</linearGradient>
<clipPath id="clip0">
<rect width="247" height="55" fill="white" transform="translate(0 2)"/>
</clipPath>
</defs>
</svg>
