<svg width="50" height="50" viewBox="0 0 50 50" fill="none" xmlns="http://www.w3.org/2000/svg">
<path fill-rule="evenodd" clip-rule="evenodd" d="M18.9999 9.5V13.5C18.9999 18.7467 14.7466 23 9.49997 23C4.25326 23 0 18.7467 0 13.5V9.5C0 4.25329 4.25326 0 9.49997 0C14.7466 0 18.9999 4.25329 18.9999 9.5ZM41.5905 3.8712C41.8493 3.47761 41.9999 3.0064 41.9999 2.5001C41.9999 1.1194 40.8806 0.000105833 39.4999 0.000105833C38.6337 0.000105833 37.8705 0.440618 37.4219 1.10991L7.42236 46.1094C7.15566 46.507 6.99998 46.9853 6.99998 47.5C6.99998 48.8807 8.11927 50 9.49997 50C10.3606 50 11.1196 49.5652 11.5693 48.9032L41.5905 3.8712ZM38.2472 1.67513C38.5155 1.26862 38.9764 1.00012 39.4999 1.00012C40.3283 1.00012 40.9999 1.6717 40.9999 2.5001C40.9999 2.79682 40.9138 3.07332 40.7651 3.30619L10.7359 48.3501C10.4654 48.7427 10.0128 49 9.49997 49C8.67158 49 7.99996 48.3284 7.99996 47.5C7.99996 47.2041 8.08575 46.9282 8.23367 46.6957L38.2472 1.67513ZM47.9999 36.4999V40.4999C47.9999 45.7466 43.7466 49.9999 38.4999 49.9999C33.2532 49.9999 28.9999 45.7466 28.9999 40.4999V36.4999C28.9999 31.2533 33.2532 27 38.4999 27C43.7466 27 47.9999 31.2533 47.9999 36.4999ZM42.9999 36.4999V40.4999C42.9999 42.9852 40.9852 44.9999 38.4999 44.9999C36.0146 44.9999 33.9999 42.9852 33.9999 40.4999V36.4999C33.9999 34.0147 36.0146 31.9999 38.4999 31.9999C40.9852 31.9999 42.9999 34.0147 42.9999 36.4999ZM43.9999 40.4999V36.4999C43.9999 33.4623 41.5375 31 38.4999 31C35.4623 31 32.9999 33.4623 32.9999 36.4999V40.4999C32.9999 43.5375 35.4623 45.9999 38.4999 45.9999C41.5375 45.9999 43.9999 43.5375 43.9999 40.4999ZM46.9999 36.4999V40.4999C46.9999 45.1943 43.1943 48.9999 38.4999 48.9999C33.8055 48.9999 29.9999 45.1943 29.9999 40.4999V36.4999C29.9999 31.8055 33.8055 27.9999 38.4999 27.9999C43.1943 27.9999 46.9999 31.8055 46.9999 36.4999ZM14 9.5V13.5C14 15.9853 11.9852 18 9.49997 18C7.01465 18 4.99998 15.9853 4.99998 13.5V9.5C4.99998 7.01469 7.01465 5.00001 9.49997 5.00001C11.9852 5.00001 14 7.01469 14 9.5ZM14.9999 13.5V9.5C14.9999 6.46242 12.5376 4 9.49997 4C6.46238 4 3.99996 6.46242 3.99996 9.5V13.5C3.99996 16.5376 6.46238 19 9.49997 19C12.5376 19 14.9999 16.5376 14.9999 13.5ZM18 9.5V13.5C18 18.1944 14.1943 21.9999 9.49997 21.9999C4.80556 21.9999 0.999982 18.1944 0.999982 13.5V9.5C0.999982 4.8056 4.80556 1.00002 9.49997 1.00002C14.1943 1.00002 18 4.8056 18 9.5Z" fill="#9BAB31"/>
</svg>
