<svg width="50" height="50" viewBox="0 0 50 50" fill="none" xmlns="http://www.w3.org/2000/svg">
<path fill-rule="evenodd" clip-rule="evenodd" d="M2.9145 1.99999H47.0853H48.4998C48.7759 1.99999 48.9998 1.77609 48.9998 1.5C48.9998 1.22389 48.7759 0.99998 48.4998 0.99998H47.0853H2.9145H1.5C1.22392 0.99998 1.00001 1.22389 1.00001 1.5C1.00001 1.77609 1.22392 1.99999 1.5 1.99999H2.9145ZM37.6257 33.9998C30.7684 28.7886 26 17.2471 26 3.84378V2.99997H48V18.9999C48.051 23.7551 47.5605 31.1393 47.0822 34.0017C47.0549 34.0005 47.0275 33.9998 47 33.9998H42.5759C37.9454 29.5557 34.5609 23.8275 32.9873 17.387L32.9855 17.3797C32.9317 17.1617 32.7347 16.9999 32.5001 16.9999C32.224 16.9999 32.0001 17.2238 32.0001 17.4999C32.0001 17.5466 32.0065 17.5919 32.0185 17.6348L32.0191 17.6368C33.5561 23.9152 36.7658 29.5379 41.1533 33.9998H37.6257ZM25.0001 2.99997V3.84378H24.9999V2.99997H25.0001ZM25 3.86128C25.0042 17.526 29.9138 29.3093 37.0001 34.7493V37.3676C36.4716 38.2719 36.0894 39.1435 35.7765 39.9998H14.2236C13.9106 39.1434 13.5284 38.2719 12.9999 37.3676V34.7493C20.0862 29.3093 24.9958 17.526 25 3.86128ZM48.9305 48.2455C48.5577 47.3968 48.2951 46.5861 48.0899 45.7953C49.2059 45.3599 50 44.2754 50 42.9998C50 42.8043 49.9813 42.6133 49.9456 42.4282L48.8842 38.3278C48.7692 38.0055 48.5741 37.7216 48.3227 37.4998C48.738 37.1334 49 36.5973 49 35.9998C49 35.2776 48.618 34.6467 48.0464 34.2952C48.5314 31.4981 49.0516 23.8134 49 18.9999V2.9145C49.5824 2.70847 49.9998 2.15299 49.9998 1.5C49.9998 0.67158 49.3282 0 48.4998 0H1.5C0.671615 0 0 0.67158 0 1.5C0 2.1531 0.417511 2.70858 1.00001 2.9145V18.9999C0.948404 23.8134 1.46861 31.4981 1.9536 34.2952C1.382 34.6467 1.00001 35.2776 1.00001 35.9998C1.00001 36.5973 1.26202 37.1334 1.67731 37.4998C1.42592 37.7216 1.2308 38.0055 1.1158 38.3278L0.0543981 42.4282C0.0186971 42.6133 0 42.8043 0 42.9998C0 44.2754 0.794205 45.3598 1.91021 45.7952C1.70511 46.586 1.44229 47.3967 1.06951 48.2455C1.02541 48.32 1.00001 48.407 1.00001 48.4998C1.00001 48.684 1.09982 48.8451 1.24812 48.9317L1.24802 48.9318L1.24922 48.9324C1.27222 48.9458 1.29642 48.9574 1.3215 48.967C2.80439 49.6684 4.60578 49.9998 6.49997 49.9998C7.22898 49.9998 7.93108 49.8991 8.59416 49.7135C9.51406 49.9063 10.4939 49.9998 11.5 49.9998C13.5985 49.9998 15.4751 49.1664 16.8361 47.8699L16.8449 47.8617L16.847 47.8596C16.9412 47.7687 16.9999 47.6411 16.9999 47.4998C16.9999 47.3912 16.9652 47.2906 16.9063 47.2086C16.0545 45.7428 15.5837 44.3643 15.1692 42.9998H34.8308C34.4164 44.3643 33.9456 45.7427 33.0937 47.2086C33.0349 47.2906 33.0001 47.3912 33.0001 47.4998C33.0001 47.6411 33.0588 47.7687 33.153 47.8596L33.1551 47.8617L33.1639 47.8699C34.525 49.1664 36.4016 49.9998 38.5001 49.9998C39.5061 49.9998 40.4859 49.9063 41.4058 49.7135C42.0689 49.8991 42.771 49.9998 43.5 49.9998C45.3942 49.9998 47.1956 49.6684 48.6785 48.967C48.7036 48.9574 48.7278 48.9458 48.7508 48.9324L48.752 48.9318L48.7519 48.9317C48.9002 48.8451 49 48.684 49 48.4998C49 48.407 48.9746 48.32 48.9305 48.2455ZM47.1363 45.9967C47.3158 46.7251 47.5399 47.469 47.8504 48.2427C46.579 48.7607 45.0811 48.9998 43.5 48.9998C41.8083 48.9998 40.2852 48.379 39.1318 47.3974C39.4522 46.8224 39.7296 46.2591 39.9558 45.7056H39.9559L39.9573 45.7023C39.9848 45.6405 40 45.5719 40 45.4998C40 45.2237 39.7761 44.9998 39.5 44.9998C39.2908 44.9998 39.1118 45.1283 39.0371 45.3105L39.0362 45.3127L39.0353 45.3151L39.0347 45.3165L39.0342 45.3176C39.0132 45.37 38.9685 45.5017 38.9494 45.5458C38.7129 46.0895 38.4233 46.6421 38.0943 47.2076C38.035 47.2898 38 47.3907 38 47.4998C38 47.6411 38.0587 47.7687 38.1529 47.8596L38.155 47.8617L38.1638 47.8699C38.5986 48.284 39.086 48.6508 39.6164 48.9583C39.2503 48.9861 38.8775 48.9998 38.5001 48.9998C36.8075 48.9998 35.2839 48.3785 34.1303 47.396C35.9135 44.1303 35.9018 41.2769 37.7847 37.9998H41.5H41.5027H41.5054H41.6505C40.8676 39.5004 40.4454 40.924 40.0249 42.3436L40.0248 42.3442C40.0088 42.3931 40 42.4455 40 42.4998C40 42.7759 40.2239 42.9998 40.5 42.9998C40.7396 42.9998 40.9398 42.8312 40.9887 42.6063C41.4257 41.142 41.8852 39.5756 42.7849 37.9998H45.2677C45.2077 38.1036 45.1567 38.2133 45.1158 38.3278L44.0544 42.4282C44.0187 42.6133 44 42.8043 44 42.9998C44 44.6567 45.3431 45.9998 47 45.9998C47.0457 45.9998 47.0911 45.9988 47.1363 45.9967ZM31.6562 12.9998C31.3976 12.9998 31.1848 12.8034 31.1589 12.5517H31.1585C31.0539 11.4506 30.9999 10.3343 30.9999 9.20517C30.9999 7.26977 31.0001 8.43887 31.0001 6.49997C31.0001 6.22385 31.224 5.99998 31.5001 5.99998C31.7762 5.99998 32.0001 6.22385 32.0001 6.49997C32.0001 8.43887 31.9999 7.26987 31.9999 9.20527C31.9999 10.2945 32.0517 11.372 32.1521 12.4352C32.1548 12.4564 32.1562 12.4779 32.1562 12.4998C32.1562 12.7759 31.9323 12.9998 31.6562 12.9998ZM38 9.49995C38 11.4388 37.9999 8.26985 37.9999 10.2053C37.9999 15.2231 39.0272 19.9965 40.9555 24.2934L40.9558 24.2941L40.9589 24.3011C40.9854 24.3621 41 24.4293 41 24.4999C41 24.776 40.7761 24.9999 40.5 24.9999C40.2791 24.9999 40.0916 24.8565 40.0255 24.6578C38.0492 20.2459 36.9998 15.3543 36.9998 10.2051C36.9998 8.26975 37.0001 11.4388 37.0001 9.49995C37.0001 9.22386 37.224 8.99996 37.5 8.99996C37.7762 8.99996 38 9.22386 38 9.49995ZM35.1296 41.9998C35.2288 41.667 35.3293 41.3341 35.4361 40.9998H14.5637C14.6704 41.3341 14.7711 41.6671 14.8703 41.9998H35.1296ZM38 34.9998V35.4659V36.9998H41.5H45.2677C45.0975 36.7056 45 36.3641 45 35.9998C45 35.6356 45.0975 35.294 45.2677 34.9998H38ZM47 34.9998C47.5523 34.9998 48 35.4476 48 35.9998C48 36.5521 47.5523 36.9998 47 36.9998C46.4477 36.9998 46 36.5521 46 35.9998C46 35.4476 46.4477 34.9998 47 34.9998ZM47 44.9998C45.8954 44.9998 45 44.1044 45 42.9998C45 42.8839 45.0129 42.7772 45.0257 42.6631L46.0459 38.7161L46.0723 38.6259C46.2204 38.2588 46.5801 37.9998 47 37.9998C47.4199 37.9998 47.7796 38.2588 47.9277 38.6259L47.9541 38.7161L48.9743 42.6631C48.9871 42.7772 49 42.8839 49 42.9998C49 44.1044 48.1046 44.9998 47 44.9998ZM12.3743 33.9998C19.2316 28.7886 24 17.2471 24 3.84378V2.99997H1.99999V18.9999C1.94902 23.7551 2.43948 31.1393 2.91781 34.0017C2.94508 34.0005 2.97249 33.9998 3.00001 33.9998H7.42407C12.0546 29.5557 15.4391 23.8275 17.0127 17.387L17.0145 17.3797C17.0683 17.1617 17.2653 16.9999 17.4999 16.9999C17.776 16.9999 17.9999 17.2238 17.9999 17.4999C17.9999 17.5466 17.9935 17.5919 17.9815 17.6348L17.9809 17.6368C16.4439 23.9152 13.2342 29.5379 8.84668 33.9998H12.3743ZM2.8637 45.9967C2.6842 46.725 2.46009 47.4691 2.14961 48.2427C3.42101 48.7607 4.9189 48.9998 6.49997 48.9998C8.19168 48.9998 9.71475 48.379 10.8682 47.3974C10.5478 46.8224 10.2704 46.2591 10.0442 45.7056H10.0441L10.0427 45.7023C10.0152 45.6405 9.99997 45.5719 9.99997 45.4998C9.99997 45.2237 10.2239 44.9998 10.5 44.9998C10.7092 44.9998 10.8882 45.1283 10.9629 45.3105L10.9638 45.3127L10.9648 45.3151L10.9653 45.3165L10.9658 45.3176C10.9868 45.37 11.0315 45.5017 11.0506 45.5458C11.2871 46.0895 11.5767 46.6421 11.9057 47.2076C11.965 47.2898 12 47.3907 12 47.4998C12 47.6411 11.9413 47.7687 11.8471 47.8596L11.845 47.8617L11.8362 47.8699C11.4014 48.284 10.914 48.6508 10.3837 48.9583C10.7497 48.9861 11.1225 48.9998 11.5 48.9998C13.1925 48.9998 14.7161 48.3785 15.8697 47.396C14.0865 44.1303 14.0982 41.2769 12.2153 37.9998H8.49997H8.49729H8.49457H8.34947C9.13235 39.5004 9.55456 40.924 9.97507 42.3436L9.97517 42.3442C9.99115 42.3931 9.99997 42.4455 9.99997 42.4998C9.99997 42.7759 9.77606 42.9998 9.49998 42.9998C9.26038 42.9998 9.06018 42.8312 9.01139 42.6063C8.57426 41.142 8.11477 39.5756 7.21509 37.9998H4.73228C4.79229 38.1036 4.8433 38.2133 4.88419 38.3278L5.94559 42.4282C5.98129 42.6133 5.99998 42.8043 5.99998 42.9998C5.99998 44.6567 4.65689 45.9998 3.00001 45.9998C2.95429 45.9998 2.90878 45.9988 2.8637 45.9967ZM18.3438 12.9998C18.6024 12.9998 18.8152 12.8034 18.8411 12.5517H18.8415C18.9461 11.4506 19.0001 10.3343 19.0001 9.20517C19.0001 7.26977 18.9999 8.43887 18.9999 6.49997C18.9999 6.22385 18.776 5.99998 18.4999 5.99998C18.2238 5.99998 17.9999 6.22385 17.9999 6.49997C17.9999 8.43887 18.0001 7.26987 18.0001 9.20527C18.0001 10.2945 17.9483 11.372 17.8479 12.4352C17.8452 12.4564 17.8438 12.4779 17.8438 12.4998C17.8438 12.7759 18.0677 12.9998 18.3438 12.9998ZM12 9.49995C12 11.4388 12.0001 8.26985 12.0001 10.2053C12.0001 15.2231 10.9728 19.9965 9.04448 24.2934L9.04416 24.2941L9.04106 24.3011C9.01456 24.3621 8.99996 24.4293 8.99996 24.4999C8.99996 24.776 9.22386 24.9999 9.49998 24.9999C9.72086 24.9999 9.90836 24.8565 9.97447 24.6578C11.9508 20.2459 13.0002 15.3543 13.0002 10.2051C13.0002 8.26975 12.9999 11.4388 12.9999 9.49995C12.9999 9.22386 12.776 8.99996 12.5 8.99996C12.2239 8.99996 12 9.22386 12 9.49995ZM12 34.9998V35.4659V36.9998H8.49997H4.73228C4.9025 36.7056 5 36.3641 5 35.9998C5 35.6356 4.9025 35.294 4.73228 34.9998H12ZM3.00001 34.9998C2.4477 34.9998 1.99999 35.4476 1.99999 35.9998C1.99999 36.5521 2.4477 36.9998 3.00001 36.9998C3.55228 36.9998 3.99999 36.5521 3.99999 35.9998C3.99999 35.4476 3.55228 34.9998 3.00001 34.9998ZM3.00001 44.9998C4.10459 44.9998 5 44.1044 5 42.9998C5 42.8839 4.98709 42.7772 4.97429 42.6631L3.95409 38.7161L3.9277 38.6259C3.77961 38.2588 3.41988 37.9998 3.00001 37.9998C2.5801 37.9998 2.22041 38.2588 2.07231 38.6259L2.04589 38.7161L1.0257 42.6631C1.01289 42.7772 1.00001 42.8839 1.00001 42.9998C1.00001 44.1044 1.8954 44.9998 3.00001 44.9998V44.9998Z" fill="#92478E"/>
</svg>
