<svg width="50" height="50" viewBox="0 0 50 50" fill="none" xmlns="http://www.w3.org/2000/svg">
<path fill-rule="evenodd" clip-rule="evenodd" d="M2.91448 2H47.0855H48.5C48.7761 2 49 1.7761 49 1.50001C49 1.22389 48.7761 0.999985 48.5 0.999985H47.0855H2.91448H1.49998C1.22389 0.999985 0.999985 1.22389 0.999985 1.50001C0.999985 1.7761 1.22389 2 1.49998 2H2.91448ZM49 48V49C33 49 17 49 0.999985 49V48C17 48 33 48 49 48ZM49.5 50C49.7761 50 50 49.7761 50 49.5V47.5C50 47.2239 49.7761 47 49.5 47H45V35H46.5C46.7761 35 47 34.7761 47 34.5V2.99999H48V4.5C48 4.77608 48.2239 4.99999 48.5 4.99999C48.7761 4.99999 49 4.77608 49 4.5V2.91451C49.5825 2.70859 50 2.15311 50 1.50001C50 0.671583 49.3284 0 48.5 0H1.49998C0.671583 0 0 0.671583 0 1.50001C0 2.15311 0.417477 2.70859 0.999985 2.91451V34.5C0.999985 34.7761 1.22389 35 1.49998 35H2.99999V47H0.499992C0.223873 47 0 47.2239 0 47.5V49.5C0 49.7761 0.223873 50 0.499992 50C16.8333 50 33.1667 50 49.5 50ZM44 47H43V35H44V47ZM42 47H26V35H42V47ZM25 47H24V35H25V47ZM23 47H5.99998V35H23V47ZM4.99999 47H3.99997V35H4.99999V47ZM46 2.99999V34H2V2.99999H46ZM49 35.5C49 35.2239 48.7761 35 48.5 35C48.2239 35 48 35.2239 48 35.5V36.5C48 36.7761 48.2239 37 48.5 37C48.7761 37 49 36.7761 49 36.5V35.5ZM49 31.5C49 31.2239 48.7761 31 48.5 31C48.2239 31 48 31.2239 48 31.5V32.5C48 32.7761 48.2239 33 48.5 33C48.7761 33 49 32.7761 49 32.5V31.5ZM49 27.5C49 27.2239 48.7761 27 48.5 27C48.2239 27 48 27.2239 48 27.5V28.5C48 28.7761 48.2239 29 48.5 29C48.7761 29 49 28.7761 49 28.5V27.5ZM49 23.5C49 23.2239 48.7761 23 48.5 23C48.2239 23 48 23.2239 48 23.5V24.5C48 24.7761 48.2239 25 48.5 25C48.7761 25 49 24.7761 49 24.5V23.5ZM49 19.5C49 19.2239 48.7761 19 48.5 19C48.2239 19 48 19.2239 48 19.5V20.5C48 20.7761 48.2239 21 48.5 21C48.7761 21 49 20.7761 49 20.5V19.5ZM49 15.5C49 15.2239 48.7761 15 48.5 15C48.2239 15 48 15.2239 48 15.5V16.5C48 16.7761 48.2239 17 48.5 17C48.7761 17 49 16.7761 49 16.5V15.5ZM49 11.5C49 11.2239 48.7761 11 48.5 11C48.2239 11 48 11.2239 48 11.5V12.5C48 12.7761 48.2239 13 48.5 13C48.7761 13 49 12.7761 49 12.5V11.5ZM49 7.49999C49 7.22391 48.7761 7 48.5 7C48.2239 7 48 7.22391 48 7.49999V8.50001C48 8.77609 48.2239 9 48.5 9C48.7761 9 49 8.77609 49 8.50001V7.49999Z" fill="#92478E"/>
</svg>
