<svg width="50" height="50" viewBox="0 0 50 50" fill="none" xmlns="http://www.w3.org/2000/svg">
<path fill-rule="evenodd" clip-rule="evenodd" d="M39.5001 30C39.7761 30 40 29.7761 40 29.5C40 29.2239 39.7761 29 39.5001 29C39.224 29 39.0001 29.2239 39.0001 29.5C39.0001 29.7761 39.224 30 39.5001 30ZM35.7512 5.48075L34.9849 3.63343C34.6674 2.86825 33.7897 2.50524 33.0245 2.82253L31.1772 3.58905L29.1147 4.44835L29.0841 4.46793L29.0793 4.46313L29.073 4.46574L29.0522 4.43593L27.4749 2.85365L26.0607 1.43932C25.4749 0.853637 24.5251 0.853637 23.9393 1.43932L22.5251 2.85365L20.9158 4.46793L20.9094 4.46383L20.9051 4.47004L18.8001 3.59554L16.952 2.83114C16.1864 2.51452 15.3091 2.87852 14.9924 3.64405L14.2281 5.49225L13.3774 7.55806L13.3696 7.59376H13.3628L13.3602 7.59993L13.3249 7.59365L11.0902 7.59016L9.09017 7.59005C8.26177 7.59016 7.59015 8.26174 7.59004 9.09014L7.59015 11.0901L7.59364 13.3697L7.58627 13.3713L7.58758 13.3787L5.48074 14.2488L3.63345 15.0151C2.86824 15.3326 2.50523 16.2103 2.82256 16.9755L3.58904 18.8228L4.44834 20.8853L4.46795 20.9159L4.46315 20.9207L4.46577 20.927L4.43596 20.9478L2.85364 22.5251L1.43935 23.9393C0.853628 24.5251 0.853628 25.4749 1.43935 26.0607L2.85364 27.4749L4.46795 29.0842L4.46386 29.0906L4.47003 29.0949L3.59553 31.1999L2.83113 33.048C2.51455 33.8136 2.87854 34.6909 3.64404 35.0076L5.49225 35.7719L7.55805 36.6226L7.59375 36.6304V36.6372L7.59996 36.6398L7.59364 36.6751L7.59015 38.9098L7.59004 40.9098C7.59015 41.7382 8.26177 42.4098 9.09017 42.41L11.0902 42.4099L13.3697 42.4064L13.3713 42.4137L13.3786 42.4124L14.2488 44.5193L15.0151 46.3665C15.3326 47.1318 16.2103 47.4948 16.9755 47.1774L18.8228 46.411L20.8852 45.5517L20.9158 45.532L20.9206 45.5368L20.9269 45.5343L20.9477 45.564L22.5251 47.1464L23.9393 48.5607C24.5251 49.1464 25.4749 49.1464 26.0607 48.5607L27.4749 47.1464L29.0841 45.532L29.0905 45.5361L29.0948 45.53L31.1999 46.4045L33.048 47.1689C33.8136 47.4855 34.6909 47.1215 35.0076 46.356L35.772 44.5078L36.6225 42.4417L36.6303 42.4064H36.6371L36.6398 42.4L36.6756 42.4065L38.9099 42.4099L40.9099 42.41C41.7383 42.4098 42.4099 41.7382 42.4099 40.9098L42.4099 38.9098L42.4062 36.6304L42.4137 36.6288L42.4123 36.6214L44.5193 35.7512L46.3666 34.9849C47.1318 34.6674 47.4948 33.7897 47.1775 33.0245L46.411 31.1772L45.5517 29.1148L45.5321 29.0842L45.5369 29.0794L45.5343 29.0731L45.5641 29.0523L47.1464 27.4749L48.5607 26.0607C49.1464 25.4749 49.1464 24.5251 48.5607 23.9393L47.1464 22.5251L45.5321 20.9159L45.5362 20.9095L45.53 20.9052L46.4045 18.8001L47.1689 16.952C47.4855 16.1864 47.1215 15.3091 46.356 14.9924L44.5078 14.2281L42.4418 13.3775L42.4063 13.3697V13.3629L42.4001 13.3603L42.4065 13.3244L42.4099 11.0901L42.4099 9.09014C42.4099 8.26174 41.7383 7.59016 40.9099 7.59005L38.9099 7.59016L36.6304 7.59376L36.6287 7.58624L36.6213 7.58755L35.7512 5.48075ZM29.3145 3.27903L32.6413 1.89892C33.9167 1.36982 35.3795 1.97494 35.9087 3.25024L37.2941 6.59014L40.9099 6.59003C42.2906 6.59003 43.41 7.70943 43.41 9.09014L43.4099 12.6919L46.7382 14.0683C48.0141 14.596 48.6207 16.0583 48.093 17.3342L46.711 20.6755L49.2678 23.2322C50.2441 24.2085 50.2441 25.7915 49.2678 26.7678L46.721 29.3145L48.1011 32.6413C48.6302 33.9167 48.0251 35.3795 46.7498 35.9086L43.4099 37.294L43.41 40.9098C43.41 42.2905 42.2906 43.4099 40.9099 43.4099L37.3081 43.4098L35.9317 46.7382C35.404 48.0141 33.9417 48.6207 32.6658 48.093L29.3245 46.711L26.7678 49.2678C25.7915 50.2441 24.2085 50.2441 23.2322 49.2678L20.6855 46.7209L17.3587 48.1011C16.0833 48.6302 14.6205 48.0251 14.0914 46.7498L12.706 43.4098L9.09017 43.4099C7.70946 43.4099 6.59006 42.2905 6.59006 40.9098L6.59016 37.3081L3.26184 35.9317C1.98594 35.404 1.37934 33.9417 1.90703 32.6658L3.28904 29.3245L0.732237 26.7678C-0.244079 25.7915 -0.244079 24.2085 0.732237 23.2322L3.27905 20.6855L1.89895 17.3587C1.36985 16.0833 1.97493 14.6205 3.25023 14.0914L6.59016 12.7059L6.59006 9.09014C6.59006 7.70943 7.70946 6.59003 9.09017 6.59003L12.6919 6.59014L14.0683 3.26185C14.596 1.98592 16.0583 1.37931 17.3342 1.90703L20.6755 3.28904L23.2322 0.73221C24.2085 -0.24407 25.7915 -0.24407 26.7678 0.73221L29.3145 3.27903ZM10.5 30C10.7761 30 11 29.7761 11 29.5V22.9999L16.0894 29.7852C16.0963 29.7951 16.1035 29.8047 16.111 29.814L16.1115 29.8147C16.2032 29.9277 16.3431 30 16.5 30C16.7761 30 17 29.7761 17 29.5V21.5C17 21.2239 16.7761 21 16.5 21C16.2239 21 16 21.2239 16 21.5V27.9994L10.8998 21.1997C10.8085 21.0784 10.6634 21 10.5 21C10.2239 21 9.99998 21.2239 9.99998 21.5V29.5C9.99998 29.7761 10.2239 30 10.5 30ZM19 29.5C19 29.7761 19.2239 30 19.5 30H25.5C25.7761 30 26 29.7761 26 29.5C26 29.2239 25.7761 29 25.5 29H20V26H25.5C25.7761 26 26 25.7761 26 25.5C26 25.2239 25.7761 25 25.5 25H20V22H25.5C25.7761 22 26 21.7761 26 21.5C26 21.2239 25.7761 21 25.5 21H19.5C19.2239 21 19 21.2239 19 21.5V29.5ZM29.5 30C29.7029 30 29.8775 29.8791 29.9559 29.7055L29.9577 29.7062L32.5 22.9245L35.0423 29.7062L35.0441 29.7055C35.1225 29.8791 35.2971 30 35.5 30C35.7341 30 35.9308 29.839 35.9851 29.6216L37.9824 21.6319C37.9939 21.5899 38 21.5457 38 21.5C38 21.2239 37.7762 21 37.5 21C37.2621 21 37.0627 21.1664 37.0124 21.3892L35.4041 27.8225L32.9714 21.3331C32.9027 21.139 32.7176 21 32.5 21C32.2824 21 32.0973 21.139 32.0286 21.3331L29.5959 27.8225L27.9877 21.3892C27.9373 21.1664 27.738 21 27.5 21C27.2239 21 27 21.2239 27 21.5C27 21.5457 27.0061 21.5899 27.0176 21.6319L29.0149 29.6216C29.0692 29.839 29.2659 30 29.5 30ZM40 21.5V26.5C40 26.7761 39.7761 27 39.5001 27C39.224 27 39.0001 26.7761 39.0001 26.5V21.5C39.0001 21.2239 39.224 21 39.5001 21C39.7761 21 40 21.2239 40 21.5V21.5Z" fill="#92478E"/>
</svg>
