<svg width="50" height="50" viewBox="0 0 50 50" fill="none" xmlns="http://www.w3.org/2000/svg">
<path fill-rule="evenodd" clip-rule="evenodd" d="M44 28H6.00001C4.34322 28 3.00002 29.3432 3.00002 31H2.98051L1.16141 47.0384L1.00002 48.4612L1.0015 48.4613C1.00051 48.474 1.00002 48.487 1.00002 48.5C1.00002 48.7761 1.22393 49 1.50001 49C4.0622 49.025 7.02832 46.834 8.08492 45.2209L8.0851 45.221C8.17492 45.0877 8.32721 45 8.5 45C8.68673 45 8.8495 45.1023 8.93533 45.2539C10.2342 47.3802 16.9315 49 25 49C33.0685 49 39.7658 47.3802 41.0647 45.2539C41.1505 45.1023 41.3133 45 41.5 45C41.6728 45 41.8251 45.0877 41.9149 45.221L41.9151 45.2209C42.9717 46.834 45.9378 49.025 48.5 49C48.7761 49 49 48.7761 49 48.5C49 48.487 48.9995 48.474 48.9985 48.4613L49 48.4612L48.8386 47.0384L47.0195 31H47C47 29.3432 45.6568 28 44 28ZM38.5 32C38.3837 32 38.2765 32.0399 38.1916 32.1065V32.1064L38.1914 32.1066C38.1357 32.1503 38.0896 32.2056 38.0566 32.2688C37.0197 33.5009 35.9016 34.4667 34.3529 35.022C34.1486 35.0848 34 35.2751 34 35.5C34 35.7761 34.2239 36 34.5 36C34.5659 36 34.6287 35.9873 34.6863 35.9641C36.2474 35.5254 37.7095 34.3007 38.8601 32.8469C38.9467 32.7569 39 32.6347 39 32.5C39 32.2239 38.7761 32 38.5 32ZM11.5 32C11.6163 32 11.7235 32.0399 11.8084 32.1065V32.1064L11.8086 32.1066C11.8643 32.1503 11.9104 32.2056 11.9434 32.2688C12.9803 33.5009 14.0984 34.4667 15.6471 35.022C15.8514 35.0848 16 35.2751 16 35.5C16 35.7761 15.7761 36 15.5 36C15.4341 36 15.3713 35.9873 15.3137 35.9641C13.7526 35.5254 12.2905 34.3007 11.1399 32.8469C11.0533 32.7569 11 32.6347 11 32.5C11 32.2239 11.2239 32 11.5 32ZM41.5 31C41.7761 31 42 31.2239 42 31.5C42 31.5665 41.9869 31.6299 41.9634 31.6879L41.9652 31.6886C41.6082 36.2246 39.5856 41.4393 36.8384 43.8681L36.8362 43.8701L36.8348 43.8713C36.7462 43.9513 36.6287 44 36.5 44C36.2239 44 36 43.7761 36 43.5C36 43.3635 36.0547 43.2397 36.1435 43.1495C39.3279 39.7558 40.5478 36.0497 41.0116 31.6071C41.0041 31.5726 41 31.5368 41 31.5C41 31.2239 41.2239 31 41.5 31ZM42.9962 42.5616C43.6595 39.9996 44 37.3248 43.9981 34.5519L43.9973 34.5518C43.9991 34.5348 44 34.5175 44 34.5C44 34.2239 43.7761 34 43.5 34C43.2239 34 43 34.2239 43 34.5C43 34.5244 43.0018 34.5483 43.0052 34.5717C42.987 37.2166 42.6249 39.7668 42.0279 42.3349C42.0098 42.3866 42 42.4421 42 42.5C42 42.7761 42.2239 43 42.5 43C42.7553 43 42.9659 42.8086 42.9962 42.5616ZM25 50C16.8756 50 10.0833 48.4913 8.40101 46.4746C6.79912 48.3859 3.77973 50.0222 1.50001 50C0.671618 50 0 49.3284 0 48.5C0 48.449 0.00261055 48.3985 0.00762 48.3488L0.00642055 48.3487L2 30.7718V4.5C2 4.2708 2.15413 4.07772 2.36442 4.0186C2.13321 3.61802 2 3.14731 2 2.64361C2 1.1835 3.11923 0 4.5 0C5.8808 0 7.00003 1.1835 7.00003 2.64361C7.00003 3.14731 6.86682 3.61802 6.63561 4.0186C6.8459 4.07772 7.00003 4.2708 7.00003 4.5L6.99992 4.50642V4.68122C11.2977 2.5588 18.2537 1.03332 25 1.00009C31.7463 1.03332 38.7023 2.5588 43.0001 4.68122V4.50642L43 4.5C43 4.2708 43.1541 4.07772 43.3644 4.0186C43.1332 3.61802 43 3.14731 43 2.64361C43 1.1835 44.1192 0 45.5 0C46.8808 0 48 1.1835 48 2.64361C48 3.14731 47.8668 3.61802 47.6356 4.0186C47.8459 4.07772 48 4.2708 48 4.5V30.5H47.969C47.9724 30.5271 47.9754 30.5541 47.9782 30.5814H47.9784L49.9936 48.3487L49.9924 48.3488C49.9974 48.3985 50 48.449 50 48.5C50 49.3284 49.3284 50 48.5 50C46.2203 50.0222 43.2009 48.3859 41.599 46.4746C39.9167 48.4913 33.1244 50 25 50ZM47 28.3546V4.99992H46.5092L46.5 4.99999C46.2238 4.99999 46 4.77622 46 4.5C46 4.32731 46.0874 4.1753 46.2205 4.08541L46.2201 4.08481L46.22 4.08471C46.6848 3.80559 47 3.26471 47 2.6429C47 1.73549 46.3285 1.00002 45.5 1.00002C44.6715 1.00002 44 1.73549 44 2.6429C44 3.26281 44.3133 3.8022 44.7757 4.0821L44.7754 4.08259C44.9107 4.17202 45 4.32562 45 4.5C45 4.77622 44.7762 4.99999 44.5 4.99999L44.491 4.99992H44.0001L44 5.50002H43.9999C43.9999 5.77621 43.7762 6.00001 43.5 6.00001C43.4341 6.00001 43.3711 5.9871 43.3135 5.96399V5.9641L43.313 5.96381C43.2772 5.94931 43.2433 5.93079 43.2121 5.90892C39.0817 3.6625 32.0522 1.9999 25 1.9999C17.9478 1.9999 10.9184 3.6625 6.7879 5.90892C6.75682 5.9309 6.72292 5.94942 6.68701 5.96381L6.68651 5.9641V5.96399C6.62891 5.98731 6.56601 6.00001 6.5 6.00001C6.22381 6.00001 6.00011 5.77621 6.00011 5.50002H6.00001L5.9999 4.99992H5.50901L5.50002 4.99999C5.22383 4.99999 5.00002 4.77622 5.00002 4.5C5.00002 4.32562 5.08931 4.17202 5.2246 4.08259L5.22432 4.0821C5.68671 3.8022 6.00001 3.26281 6.00001 2.6429C6.00001 1.73549 5.32853 1.00002 4.5 1.00002C3.6715 1.00002 3.00002 1.73549 3.00002 2.6429C3.00002 3.26471 3.31523 3.80559 3.78001 4.08471L3.77991 4.08481L3.77952 4.08541C3.91262 4.1753 4.00001 4.32731 4.00001 4.5C4.00001 4.77622 3.7762 4.99999 3.50001 4.99999L3.49081 4.99992H3.00002V28.3546C3.61632 27.6563 4.47252 27.1748 5.43973 27.0392L5.38981 27.0001C5.11351 25.4871 4.98591 23.9908 4.99911 22.5C4.97851 20.1693 5.30151 17.8252 6.00011 15.4246V9.50641L6.00001 9.50002C6.00001 9.3085 6.1075 9.14231 6.26551 9.05831L6.27172 9.05499L6.27232 9.05471C6.40863 8.9831 6.82311 8.76871 6.95463 8.70331C11.2486 6.56939 18.2299 5.0334 24.9999 4.99999H25C31.77 5.0334 38.7513 6.56939 43.0453 8.70331C43.1764 8.7685 43.5887 8.98179 43.7263 9.05401L43.7277 9.05471L43.7282 9.05499L43.7344 9.05831C43.8925 9.1422 44 9.3085 44 9.50002L43.9999 9.50641V15.4311C44.6972 17.8295 45.0196 20.1714 44.999 22.5C45.0122 23.9908 44.8846 25.4871 44.6083 27.0001L44.5784 27.0418C45.5382 27.1809 46.3875 27.6607 47 28.3546ZM7.0038 42.5616C6.34051 39.9996 6.00001 37.3248 6.00191 34.5519L6.00272 34.5518C6.00093 34.5348 6.00001 34.5175 6.00001 34.5C6.00001 34.2239 6.22392 34 6.5 34C6.77612 34 7.00003 34.2239 7.00003 34.5C7.00003 34.5244 6.99823 34.5483 6.99481 34.5717C7.01301 37.2166 7.3751 39.7668 7.97211 42.3349C7.9902 42.3866 8.00001 42.4421 8.00001 42.5C8.00001 42.7761 7.7761 43 7.50002 43C7.24471 43 7.03411 42.8086 7.0038 42.5616ZM8.5 31C8.22392 31 8.00001 31.2239 8.00001 31.5C8.00001 31.5665 8.0131 31.6299 8.03663 31.6879L8.03483 31.6886C8.39181 36.2246 10.4144 41.4393 13.1616 43.8681L13.1638 43.8701L13.1652 43.8713C13.2538 43.9513 13.3713 44 13.5 44C13.7761 44 14 43.7761 14 43.5C14 43.3635 13.9453 43.2397 13.8565 43.1495C10.6721 39.7558 9.45222 36.0497 8.98842 31.6071C8.9959 31.5726 9.00003 31.5368 9.00003 31.5C9.00003 31.2239 8.77612 31 8.5 31ZM43.5985 27H27.4014C27.1197 25.4968 26.9999 23.979 26.9998 22.5001C26.9999 20.3297 27.2577 18.0754 27.9068 15.9069C30.3491 15.2826 32.9999 15 35.4999 14.9999C37.9999 15 40.6508 15.2826 43.0931 15.9069C43.7422 18.0754 44 20.3296 44.0001 22.5C44 23.979 43.8802 25.4968 43.5985 27ZM26.3907 27H23.6074C23.8837 25.487 24.0112 23.9908 23.998 22.5C24.0054 21.6691 23.969 20.8363 23.8875 20H26.1106C26.0291 20.8363 25.9927 21.6691 26.0001 22.5C25.9869 23.9908 26.1144 25.487 26.3907 27ZM22.5967 27H6.3996C6.11791 25.4968 5.9981 23.979 5.998 22.5C5.9981 20.3296 6.25591 18.0754 6.90502 15.9069C9.3473 15.2826 11.9982 15 14.4982 14.9999C16.9982 15 19.649 15.2826 22.0913 15.9069C22.7404 18.0754 22.9982 20.3297 22.9983 22.5001C22.9982 23.979 22.8784 25.4968 22.5967 27ZM25 5.9998H24.9999C18.0671 5.9998 11.1562 7.60659 7.00003 9.7953V14.8602C9.542 14.2597 12.0257 13.9821 14.4957 14.0002C17.166 13.9806 19.8524 14.3067 22.611 15.0128L22.6145 15.0136L22.6146 15.0137C22.7894 15.0554 22.9285 15.1888 22.9783 15.3605L22.9784 15.3606L22.9791 15.3631C23.3388 16.5883 23.6005 17.7987 23.7688 19.0001H26.2293C26.3976 17.7987 26.6593 16.5883 27.019 15.3631L27.0197 15.3606L27.0198 15.3605C27.0696 15.1888 27.2087 15.0554 27.3835 15.0137L27.3836 15.0136L27.3871 15.0128C30.1457 14.3067 32.8321 13.9806 35.5024 14.0002C37.973 13.9821 40.4574 14.2599 43 14.8607V9.7953C38.8438 7.60659 31.9329 5.9998 25 5.9998ZM16.4981 17L16.4727 17.0007L16.4726 17L16.4644 17.0012C16.4375 17.003 16.4112 17.0068 16.3857 17.0127C13.6862 17.4028 11.1315 17.0678 8.71421 16.049C8.69992 16.0421 8.685 16.0358 8.67001 16.0303L8.66891 16.0299C8.61561 16.0106 8.55811 16 8.4981 16C8.22191 16 7.99811 16.2238 7.99811 16.5C7.99811 16.7031 8.11922 16.878 8.2931 16.9562L8.30351 16.9607L8.31472 16.9653C10.8144 18.0307 13.5437 18.4228 16.5522 17.9971C16.803 17.9701 16.9981 17.7579 16.9981 17.5C16.9981 17.2238 16.7743 17 16.4981 17ZM33.5 17L33.5254 17.0007L33.5255 17L33.5337 17.0012C33.5606 17.003 33.5869 17.0068 33.6124 17.0127C36.3119 17.4028 38.8666 17.0678 41.2839 16.049C41.2982 16.0421 41.3131 16.0358 41.3281 16.0303L41.3292 16.0299C41.3825 16.0106 41.44 16 41.5 16C41.7762 16 42 16.2238 42 16.5C42 16.7031 41.8789 16.878 41.705 16.9562L41.6946 16.9607L41.6834 16.9653C39.1837 18.0307 36.4544 18.4228 33.4459 17.9971C33.1951 17.9701 33 17.7579 33 17.5C33 17.2238 33.2238 17 33.5 17ZM9.49812 20C9.77431 20 9.99811 19.7762 9.99811 19.5C9.99811 19.23 9.78433 19.0101 9.51671 19.0004C9.5027 18.9999 9.49272 18.9998 9.47861 18.9986C8.83581 18.946 8.30023 18.6212 7.86843 18.1641C7.77691 18.0634 7.64501 18 7.49811 18C7.22192 18 6.99812 18.2238 6.99812 18.5C6.99812 18.6002 7.02751 18.6935 7.0781 18.7716C7.0951 18.7982 7.11711 18.8253 7.13881 18.8478C7.64293 19.4276 8.36182 19.838 9.15342 19.9637C9.25812 19.9802 9.392 20 9.49812 20ZM40.5 20C40.2238 20 40 19.7762 40 19.5C40 19.23 40.2138 19.0101 40.4814 19.0004C40.4954 18.9999 40.5054 18.9998 40.5195 18.9986C41.1623 18.946 41.6979 18.6212 42.1297 18.1641C42.2212 18.0634 42.3531 18 42.5 18C42.7762 18 43 18.2238 43 18.5C43 18.6002 42.9706 18.6935 42.92 18.7716C42.903 18.7982 42.881 18.8253 42.8593 18.8478C42.3552 19.4276 41.6363 19.838 40.8447 19.9637C40.74 19.9802 40.6061 20 40.5 20V20Z" fill="#92478E"/>
</svg>
