<svg width="50" height="50" viewBox="0 0 50 50" fill="none" xmlns="http://www.w3.org/2000/svg">
<path fill-rule="evenodd" clip-rule="evenodd" d="M2.92252 28H47.0775L47.9965 33.4408C47.9988 33.4602 48 33.48 48 33.5C48 33.7761 47.7761 34 47.5 34H2.50003C2.22391 34 2 33.7761 2 33.5C2 33.48 2.0012 33.4602 2.00353 33.4408L2.92252 28ZM47.5 20C47.7761 20 48 19.7761 48 19.5C48 19.48 47.9988 19.4602 47.9965 19.4408L47.0095 13.5971L47.005 13.5706L47.0048 13.5694C47.0017 13.5467 47 13.5236 47 13.5V2.99999H3.00002V13.5C3.00002 13.5236 2.99833 13.5467 2.99522 13.5694L2.99501 13.5706L2.99053 13.5971L2.00353 19.4408C2.0012 19.4602 2 19.48 2 19.5C2 19.7761 2.22391 20 2.50003 20H2.50363H47.5ZM48 13.4488L48.9749 19.2252C48.9914 19.3143 49 19.4061 49 19.5C49 20.1251 48.6175 20.6609 48.0738 20.8862L48.9749 26.2252C48.9914 26.3143 49 26.4061 49 26.5C49 27.1251 48.6175 27.6609 48.0738 27.8862L48.9749 33.2252C48.9914 33.3143 49 33.4061 49 33.5C49 34.3284 48.3284 35 47.5 35H47.4896H46V47H48.5C48.7761 47 49 47.2239 49 47.5V49.5C49 49.7761 48.7761 50 48.5 50H1.50001C1.22393 50 1.00002 49.7761 1.00002 49.5V47.5C1.00002 47.2239 1.22393 47 1.50001 47H4.00001V35H2.5104H2.50003C1.6716 35 1.00002 34.3284 1.00002 33.5C1.00002 33.4061 1.00863 33.3143 1.0251 33.2252L1.9262 27.8862C1.3825 27.6609 1.00002 27.1251 1.00002 26.5C1.00002 26.4061 1.00863 26.3143 1.0251 26.2252L1.9262 20.8862C1.3825 20.6609 1.00002 20.1251 1.00002 19.5C1.00002 19.4061 1.00863 19.3143 1.0251 19.2252L2 13.4488V2.99999H1.50001C0.671618 2.99999 0 2.3284 0 1.50001C0 0.671583 0.671618 0 1.50001 0H48.5C49.3284 0 50 0.671583 50 1.50001C50 2.3284 49.3284 2.99999 48.5 2.99999H48V13.4488ZM47.0775 21H2.92252L2.00353 26.4408C2.0012 26.4602 2 26.48 2 26.5C2 26.7761 2.22391 27 2.50003 27H47.5C47.7761 27 48 26.7761 48 26.5C48 26.48 47.9988 26.4602 47.9965 26.4408L47.0775 21ZM45 35H44V47H45V35ZM43 35H27V47H43V35ZM26 35H25V47H26V35ZM24 35H7.00003V47H24V35ZM6.00001 35H5.00002V47H6.00001V35ZM2 48V49H48V48H2ZM45.5 13C45.7761 13 46 13.2239 46 13.5C46 13.7761 45.7761 14 45.5 14H44.5C44.2239 14 44 13.7761 44 13.5C44 13.2239 44.2239 13 44.5 13H45.5ZM41.5 13C41.7761 13 42 13.2239 42 13.5C42 13.7761 41.7761 14 41.5 14H40.5C40.2239 14 40 13.7761 40 13.5C40 13.2239 40.2239 13 40.5 13H41.5ZM37.5 13C37.7761 13 38 13.2239 38 13.5C38 13.7761 37.7761 14 37.5 14H36.5C36.2239 14 36 13.7761 36 13.5C36 13.2239 36.2239 13 36.5 13H37.5ZM33.5 13C33.7761 13 34 13.2239 34 13.5C34 13.7761 33.7761 14 33.5 14H32.5C32.2239 14 32 13.7761 32 13.5C32 13.2239 32.2239 13 32.5 13H33.5ZM29.5 13C29.7761 13 30 13.2239 30 13.5C30 13.7761 29.7761 14 29.5 14H28.5C28.2239 14 28 13.7761 28 13.5C28 13.2239 28.2239 13 28.5 13H29.5ZM25.5 13C25.7761 13 26 13.2239 26 13.5C26 13.7761 25.7761 14 25.5 14H24.5C24.2239 14 24 13.7761 24 13.5C24 13.2239 24.2239 13 24.5 13H25.5ZM21.5 13C21.7761 13 22 13.2239 22 13.5C22 13.7761 21.7761 14 21.5 14H20.5C20.2239 14 20 13.7761 20 13.5C20 13.2239 20.2239 13 20.5 13H21.5ZM17.5 13C17.7761 13 18 13.2239 18 13.5C18 13.7761 17.7761 14 17.5 14H16.5C16.2239 14 16 13.7761 16 13.5C16 13.2239 16.2239 13 16.5 13H17.5ZM13.5 13C13.7761 13 14 13.2239 14 13.5C14 13.7761 13.7761 14 13.5 14H12.5C12.2239 14 12 13.7761 12 13.5C12 13.2239 12.2239 13 12.5 13H13.5ZM9.50002 13C9.77611 13 10 13.2239 10 13.5C10 13.7761 9.77611 14 9.50002 14H8.5C8.22392 14 8.00001 13.7761 8.00001 13.5C8.00001 13.2239 8.22392 13 8.5 13H9.50002ZM5.50002 13C5.7761 13 6.00001 13.2239 6.00001 13.5C6.00001 13.7761 5.7761 14 5.50002 14H4.5C4.22391 14 4.00001 13.7761 4.00001 13.5C4.00001 13.2239 4.22391 13 4.5 13H5.50002ZM47.0855 0.999984H2.91451H1.50001C1.22393 0.999984 1.00002 1.22389 1.00002 1.50001C1.00002 1.77609 1.22393 2 1.50001 2H2.91451H47.0855H48.5C48.7761 2 49 1.77609 49 1.50001C49 1.22389 48.7761 0.999984 48.5 0.999984H47.0855Z" fill="#92478E"/>
</svg>
