<svg width="50" height="50" viewBox="0 0 50 50" fill="none" xmlns="http://www.w3.org/2000/svg">
<path fill-rule="evenodd" clip-rule="evenodd" d="M1.79948 45.0996C0.759777 45.4025 0 46.3625 0 47.5C0 48.8807 1.11929 50 2.49999 50H43.5C45.9849 50 48 47.9849 48 45.5C48 44.0283 47.2932 42.7215 46.2005 41.9004C47.2402 41.5975 48 40.6375 48 39.5C48 39.1135 47.9123 38.7476 47.7557 38.4209H47.7558L47.755 38.4193C47.7251 38.357 47.6926 38.2963 47.6578 38.237L44.7823 32.8411C45.4981 32.5366 46 31.827 46 31C46 30.9469 45.9979 30.8943 45.9939 30.8423H46C46 30.038 45.2069 29.2025 44.6195 28.5169L44.6264 28.5111V28.511C44.3095 28.1443 44.1091 27.6034 44.1091 27C44.1091 26.804 44.1302 26.6146 44.1697 26.4356C44.7653 23.9685 45 20.4305 45 16.5C45 12.5695 44.7653 9.0315 44.1697 6.56438C44.1302 6.38538 44.1091 6.19601 44.1091 6.00001C44.1091 5.39658 44.3095 4.8557 44.6264 4.48899V4.48888L44.6195 4.4831C45.2069 3.79751 46 2.96199 46 2.15769H45.9939C45.9979 2.1057 46 2.0531 46 2C46 0.895385 45.1046 0 44 0C43.9469 0 43.8943 0.00208139 43.8423 0.00610305V0C43.038 0 42.2025 0.793115 41.5169 1.38038L42.1551 2.12979C41.6097 2.59909 40.8458 2.89091 40 2.89091C39.7696 2.89091 39.5454 2.86921 39.3299 2.82818C36.0014 2.24751 31.2387 2 26 2H22C16.7613 2 11.9986 2.24751 8.67008 2.82818C8.4546 2.86921 8.23038 2.89091 7.99998 2.89091C7.15419 2.89091 6.39029 2.59909 5.84489 2.12979L5.84789 2.1379C5.63107 1.95319 5.40558 1.76601 5.18488 1.59748C4.80529 1.30778 4.43999 1.0729 4.1577 0.999984L4.15459 1.01191C4.10418 1.00411 4.05257 0.999984 3.99997 0.999984C3.4477 0.999984 2.99999 1.44769 2.99999 2C2.99999 2.0562 3.00468 2.1112 3.01357 2.16489L2.99999 2.15769C3.07287 2.43999 3.30779 2.80529 3.59749 3.18491C3.76449 3.4036 3.94977 3.62708 4.1329 3.8421L4.12979 3.84489C4.59909 4.39028 4.89088 5.15419 4.89088 6.00001C4.89088 6.23041 4.86918 6.4546 4.82819 6.67011C4.24748 9.13151 3.99997 12.626 3.99997 16.5C3.99997 20.374 4.24748 23.8685 4.82819 26.3299C4.86918 26.5454 4.89088 26.7696 4.89088 27C4.89088 27.8458 4.59909 28.6097 4.12979 29.1551L4.1329 29.1579C3.94977 29.3729 3.76449 29.5964 3.59749 29.8151C3.30779 30.1947 3.07287 30.56 2.99999 30.8423L3.01357 30.8351C3.00468 30.8888 2.99999 30.9438 2.99999 31C2.99999 31.5523 3.4477 32 3.99997 32C4.05257 32 4.10418 31.9959 4.15459 31.9881L4.1577 32C4.43999 31.9271 4.80529 31.6922 5.18488 31.4025C5.40558 31.234 5.63107 31.0468 5.84789 30.8621L5.84489 30.8702L6.48889 31.6264H6.48899C6.85567 31.3095 7.39659 31.1091 7.99998 31.1091C8.19598 31.1091 8.38539 31.1302 8.56439 31.1697C11.9006 31.7653 16.6849 32 22 32H26C31.3151 32 36.0994 31.7653 39.4356 31.1697C39.6146 31.1302 39.804 31.1091 40 31.1091C40.6034 31.1091 41.1443 31.3095 41.511 31.6264H41.5111L42.1551 30.8702L41.5169 31.6196C42.1711 32.18 42.9618 32.9278 43.7317 32.9951L45.8814 37.0289C45.757 37.0099 45.6297 37 45.5 37H4.5C3.8323 37 3.19849 37.1456 2.62858 37.4067L4.9089 32.8012C5.46537 32.5282 6.00989 32.0249 6.4831 31.6196L5.84489 30.8702C6.39029 30.4009 7.15419 30.1091 7.99998 30.1091C8.23038 30.1091 8.4546 30.1308 8.67008 30.1718C11.9986 30.7525 16.7613 31 22 31H26C31.2387 31 36.0014 30.7525 39.3299 30.1718C39.5454 30.1308 39.7696 30.1091 40 30.1091C40.8458 30.1091 41.6097 30.4009 42.1551 30.8702L42.1521 30.8621C42.3689 31.0468 42.5944 31.234 42.8151 31.4025C43.1947 31.6922 43.56 31.9271 43.8423 32L43.8454 31.9881C43.8958 31.9959 43.9474 32 44 32C44.5523 32 45 31.5523 45 31C45 30.9438 44.9953 30.8888 44.9864 30.8351L45 30.8423C44.9271 30.56 44.6922 30.1947 44.4025 29.8151C44.2355 29.5964 44.0502 29.3729 43.8671 29.1579L43.8702 29.1551C43.4009 28.6097 43.1091 27.8458 43.1091 27C43.1091 26.7696 43.1308 26.5454 43.1718 26.3299C43.7525 23.8685 44 20.374 44 16.5C44 12.626 43.7525 9.13151 43.1718 6.67011C43.1308 6.4546 43.1091 6.23041 43.1091 6.00001C43.1091 5.15419 43.4009 4.39028 43.8702 3.84489L43.8671 3.8421C44.0502 3.62708 44.2355 3.4036 44.4025 3.18491C44.6922 2.80529 44.9271 2.43999 45 2.15769L44.9864 2.16489C44.9953 2.1112 45 2.0562 45 2C45 1.44769 44.5523 0.999984 44 0.999984C43.9474 0.999984 43.8958 1.00411 43.8454 1.01191L43.8423 0.999984C43.56 1.0729 43.1947 1.30778 42.8151 1.59748C42.5944 1.76601 42.3689 1.95319 42.1521 2.1379L42.1551 2.12979L41.5111 1.37361H41.511C41.1443 1.69051 40.6034 1.89089 40 1.89089C39.804 1.89089 39.6146 1.86979 39.4356 1.83028C36.0994 1.23469 31.3151 0.999984 26 0.999984H22C16.6849 0.999984 11.9006 1.23469 8.56439 1.83028C8.38539 1.86979 8.19598 1.89089 7.99998 1.89089C7.39659 1.89089 6.85567 1.69051 6.48899 1.37361H6.48889L5.84489 2.12979L6.4831 1.38038C5.79748 0.793115 4.962 0 4.1577 0V0.00610305C4.1057 0.00208139 4.0531 0 3.99997 0C2.89539 0 2 0.895385 2 2C2 2.0531 2.00208 2.1057 2.00607 2.15769H2C2 2.96199 2.79308 3.79751 3.38049 4.4831L3.37358 4.48888V4.48899C3.69048 4.8557 3.89089 5.39658 3.89089 6.00001C3.89089 6.19601 3.8698 6.38538 3.83028 6.56438C3.23469 9.0315 2.99999 12.5695 2.99999 16.5C2.99999 20.4305 3.23469 23.9685 3.83028 26.4356C3.8698 26.6146 3.89089 26.804 3.89089 27C3.89089 27.6034 3.69048 28.1443 3.37358 28.511V28.5111L3.38049 28.5169C2.79308 29.2025 2 30.038 2 30.8423H2.00607C2.00208 30.8943 2 30.9469 2 31C2 32.0045 2.74038 32.8359 3.7053 32.9784L0.586281 39.278H0.586387C0.213289 39.9336 0 40.6919 0 41.5C0 42.9717 0.70679 44.2785 1.79948 45.0996ZM41.5 15.9898C41.7761 15.9898 42 15.7659 42 15.4898V14.4898C42 14.2137 41.7761 13.9898 41.5 13.9898C41.2239 13.9898 41 14.2137 41 14.4898V15.4898C41 15.7659 41.2239 15.9898 41.5 15.9898ZM41.2451 9.9846C41.5183 9.94509 41.7078 9.6914 41.6682 9.41811L41.5249 8.4285C41.4853 8.1552 41.2316 7.96569 40.9584 8.0053C40.6851 8.04488 40.4956 8.2986 40.5352 8.57179L40.6786 9.56151C40.7181 9.8347 40.9718 10.0242 41.2451 9.9846ZM41.5393 12.9883C41.8145 12.9666 42.0201 12.7258 41.9985 12.4505L41.9199 11.4536C41.8982 11.1784 41.6574 10.9727 41.3822 10.9944C41.1069 11.0161 40.9013 11.2569 40.923 11.5322L41.0015 12.5291C41.0232 12.8043 41.264 13.0099 41.5393 12.9883ZM41.2451 23.5052C41.5183 23.5447 41.7078 23.7984 41.6682 24.0717L41.5249 25.0613C41.4853 25.3346 41.2316 25.5241 40.9584 25.4845C40.6851 25.4449 40.4956 25.1912 40.5352 24.918L40.6786 23.9283C40.7181 23.6551 40.9718 23.4656 41.2451 23.5052ZM41.5393 20.5016C41.8145 20.5233 42.0201 20.764 41.9984 21.0393L41.9199 22.0361C41.8983 22.3114 41.6575 22.517 41.3822 22.4954C41.1069 22.4737 40.9013 22.2329 40.923 21.9576L41.0016 20.9607C41.0233 20.6855 41.264 20.4799 41.5393 20.5016ZM41.5 17.5C41.7761 17.5 42 17.7239 42 18V19C42 19.2761 41.7761 19.5 41.5 19.5C41.2239 19.5 41 19.2761 41 19V18C41 17.7239 41.2239 17.5 41.5 17.5ZM46.8549 38.8557L46.7922 38.7381C46.5312 38.2964 46.0502 38 45.5 38H4.5C2.56727 38 0.999984 39.5673 0.999984 41.5C0.999984 43.4327 2.56727 45 4.5 45H43.5C43.7761 45 44 45.2239 44 45.5C44 45.7761 43.7761 46 43.5 46H4.5H2.49999C1.6716 46 0.999984 46.6716 0.999984 47.5C0.999984 48.3284 1.6716 49 2.49999 49H43.5C45.4327 49 47 47.4327 47 45.5C47 43.5673 45.4327 42 43.5 42H4.5C4.22388 42 3.99997 41.7761 3.99997 41.5C3.99997 41.2239 4.22388 41 4.5 41H43.5H45.5C46.3284 41 47 40.3284 47 39.5C47 39.2694 46.9479 39.0509 46.8549 38.8557V38.8557Z" fill="#92478E"/>
</svg>
