<svg width="50" height="50" viewBox="0 0 50 50" fill="none" xmlns="http://www.w3.org/2000/svg">
<path fill-rule="evenodd" clip-rule="evenodd" d="M27.0367 41H49V42H26.4654C26.6581 41.6711 26.8486 41.3379 27.0367 41ZM23.4292 43.4909C23.5849 43.6384 23.7177 43.8098 23.8219 43.9991L23.8225 44L23.8224 44.0001C23.8544 44.0584 23.8838 44.1183 23.9103 44.1798C27.9209 38.3003 31.1224 30.5128 33.0351 21.6539C30.2974 28.7256 25.7912 34.9163 20.0585 39.6833C20.1188 39.8983 20.1935 40.0974 20.2763 40.2811C20.4318 40.626 20.6288 40.9206 20.8454 41.1833C21.1337 41.5327 21.4605 41.8255 21.7998 42.0998C22.3676 42.5589 22.9564 42.9686 23.4292 43.4909ZM23.68 46.2237C23.4384 46.5548 23.1014 46.8117 22.7093 46.9541L22.6832 46.9653L22.6844 46.9684C21.8711 47.2602 20.9897 47.4221 20.0652 47.4221C18.9347 47.4221 17.8374 47.3041 16.821 47.0598C16.8491 47.1094 16.8775 47.159 16.9064 47.2088C16.9652 47.2908 17 47.3914 17 47.5C17 47.6413 16.9413 47.7689 16.8471 47.8598L16.845 47.8619L16.8362 47.8701C15.4751 49.1666 13.5985 50 11.5 50C10.4939 50 9.5141 49.9065 8.59419 49.7137C7.93108 49.8993 7.22898 50 6.5 50C4.6058 50 2.80441 49.6686 1.32151 48.9672C1.29639 48.9576 1.27219 48.946 1.24919 48.9326L1.24799 48.932L1.24809 48.9319C1.09978 48.8453 0.999984 48.6842 0.999984 48.5C0.999984 48.4072 1.02538 48.3202 1.06948 48.2457C1.4423 47.3969 1.70508 46.5862 1.91019 45.7954C0.794209 45.36 0 44.2756 0 43C0 42.8045 0.0186972 42.6135 0.0543983 42.4284L1.1158 38.328C1.23081 38.0057 1.42589 37.7218 1.67728 37.5C1.26199 37.1336 0.999984 36.5974 0.999984 36C0.999984 35.2777 1.38201 34.6468 1.95361 34.2954C1.46858 31.4982 0.948408 23.8135 0.999984 19V2.91451C0.417512 2.70859 0 2.15311 0 1.50001C0 0.671583 0.671583 0 1.50001 0H48.5C49.3284 0 50 0.671583 50 1.50001C50 2.17569 49.553 2.74712 48.9387 2.93479L49.9761 6.34689L49.9775 6.3513L49.9784 6.35459C49.9924 6.40059 50 6.44941 50 6.5C50 6.77608 49.7761 6.99999 49.5 6.99999H48.9585L49.9761 10.3469L49.9775 10.3513L49.9784 10.3546C49.9924 10.4006 50 10.4494 50 10.5C50 10.7761 49.7761 11 49.5 11H48.9585L49.9761 14.3469L49.9775 14.3513L49.9784 14.3546C49.9924 14.4006 50 14.4494 50 14.5C50 14.7761 49.7761 15 49.5 15H48.9585L49.9761 18.3469L49.9775 18.3513L49.9784 18.3546C49.9924 18.4006 50 18.4494 50 18.5C50 18.7761 49.7761 19 49.5 19H48.9585L49.9761 22.3469L49.9775 22.3513L49.9784 22.3546C49.9924 22.4006 50 22.4494 50 22.5C50 22.7761 49.7761 23 49.5 23H48.9585L49.9761 26.3469L49.9775 26.3513L49.9784 26.3546C49.9924 26.4006 50 26.4494 50 26.5C50 26.7761 49.7761 27 49.5 27H48.9585L49.9761 30.3469L49.9775 30.3513L49.9784 30.3546C49.9924 30.4006 50 30.4494 50 30.5C50 30.7761 49.7761 31 49.5 31H48V40H49.5C49.7761 40 50 40.2239 50 40.5V42.5C50 42.7761 49.7761 43 49.5 43H25.8637C25.163 44.1348 24.4344 45.2114 23.6802 46.2237H23.68ZM22.3249 46.0315L22.3253 46.0283C22.7618 45.8903 23.0783 45.4821 23.0783 45L23.0785 44.9186C23.0745 44.8321 23.0573 44.7501 23.0307 44.6728L23.0297 44.6701L23.0264 44.6607L23.0253 44.6574C22.9101 44.341 22.6377 44.1027 22.4711 43.939C22.0877 43.5619 21.6123 43.2338 21.1971 42.8978C20.2463 42.1283 19.3411 41.2069 19 39.5626L19.0038 39.5622C19.0013 39.5419 19 39.521 19 39.5C19 39.3396 19.0755 39.1969 19.193 39.1054C27.3252 32.4359 32.9762 22.8534 34.5531 11.9521C34.8439 9.03319 34.9975 6.04121 34.9996 2.99999H25.0002V8.00001H24.9976C24.998 8.06849 25.0002 8.13661 25.0002 8.20519C25.0002 18.7798 20.3568 28.2678 13 34.7479V37.3678C14.738 40.3415 14.8942 42.9611 16.2048 45.8471C17.3641 46.2393 18.6828 46.4221 20.0652 46.4221C20.8457 46.4221 21.5903 46.29 22.2793 46.0512C22.2941 46.0439 22.3093 46.0373 22.3249 46.0315ZM18.3439 12.9999C18.6025 12.9999 18.8153 12.8035 18.8412 12.5518H18.8416C18.9462 11.4506 19.0002 10.3343 19.0002 9.20521C19.0002 7.2698 19 8.4389 19 6.5C19 6.22388 18.7761 6.00001 18.5 6.00001C18.2239 6.00001 18 6.22388 18 6.5C18 8.4389 18.0002 7.2699 18.0002 9.20531C18.0002 10.2945 17.9484 11.372 17.848 12.4352C17.8453 12.4564 17.8439 12.478 17.8439 12.4999C17.8439 12.776 18.0678 12.9999 18.3439 12.9999ZM12 9.49999C12 11.4389 12.0002 8.26989 12.0002 10.2053C12.0002 15.2232 10.9728 19.9966 9.04448 24.2935L9.0442 24.2942L9.04109 24.3012C9.0146 24.3622 9 24.4294 9 24.5C9 24.7761 9.2239 25 9.49999 25C9.7209 25 9.9084 24.8566 9.97451 24.6579C11.9508 20.246 13.0002 15.3544 13.0002 10.2052C13.0002 8.26978 13 11.4389 13 9.49999C13 9.2239 12.7761 9 12.5 9C12.2239 9 12 9.2239 12 9.49999ZM7.4241 34C12.0547 29.5557 15.4392 23.8276 17.0128 17.3871L17.0146 17.3798C17.0684 17.1618 17.2654 17 17.5 17C17.7761 17 18 17.2239 18 17.5C18 17.5467 17.9936 17.592 17.9816 17.6349L17.981 17.6369C16.444 23.9153 13.2342 29.538 8.84668 34H12.3358C19.4865 27.703 24.0002 18.4823 24.0002 8.20529C24.0002 8.13671 23.998 8.06859 23.9976 8.00001H24.0002V2.99999H2V19C1.94899 23.7552 2.43949 31.1395 2.91779 34.0018C2.94509 34.0007 2.97251 34 2.99999 34H7.4241ZM46 40V31H47V40H46ZM45 31V40H27.5804C29.0351 37.2538 30.3387 34.2357 31.4607 31H45ZM31.7995 30C32.1241 29.0186 32.432 28.018 32.7227 27H47.9134L48.8254 30H31.7995ZM33.0019 26C33.2691 25.0154 33.5199 24.0147 33.7542 23H47.9134L48.8254 26H33.0019ZM33.9784 22C34.1936 21.0125 34.393 20.0122 34.5758 19H47.9134L48.8254 22H33.9784ZM34.7511 18C34.9179 17.0105 35.0689 16.0101 35.2035 15H47.9134L48.8254 18H34.7511ZM35.3309 14C35.4518 13.0085 35.5574 12.0084 35.6463 11H47.9134L48.8254 14H35.3309ZM35.7282 10C35.8048 9.00698 35.8662 8.00678 35.9106 6.99999H47.9134L48.8254 10H35.7282ZM35.9485 6.00001C35.9815 5.0056 35.999 4.0054 35.9997 2.99999H47.9134L48.8254 6.00001H35.9485ZM2.99999 35C2.44771 35 2 35.4477 2 36C2 36.5523 2.44771 37 2.99999 37C3.5523 37 4.00001 36.5523 4.00001 36C4.00001 35.4477 3.5523 35 2.99999 35ZM2.86371 45.9969C2.68418 46.7252 2.4601 47.4693 2.14958 48.2429C3.42099 48.7609 4.91889 49 6.5 49C8.19171 49 9.71479 48.3792 10.8682 47.3976C10.5478 46.8226 10.2704 46.2592 10.0442 45.7058H10.0441L10.0427 45.7025C10.0152 45.6407 9.99998 45.5721 9.99998 45.5C9.99998 45.2239 10.2239 45 10.5 45C10.7137 45 10.8962 45.1342 10.9677 45.3229C11.2146 45.9114 11.5481 46.5921 11.9057 47.2078C11.965 47.29 12 47.3909 12 47.5C12 47.6413 11.9413 47.7689 11.8471 47.8598L11.845 47.8619L11.8362 47.8701C11.4015 48.2842 10.9141 48.651 10.3837 48.9585C10.7497 48.9863 11.1225 49 11.5 49C13.1925 49 14.7162 48.3787 15.8698 47.3962C14.0865 44.1305 14.0983 41.2771 12.2153 38H8.5H8.34951C9.13229 39.5006 9.5546 40.9243 9.97511 42.3438L9.97518 42.3444C9.99119 42.3933 9.99998 42.4457 9.99998 42.5C9.99998 42.7761 9.77611 43 9.49999 43C9.26038 43 9.06018 42.8314 9.01139 42.6065C8.5743 41.1422 8.11481 39.5758 7.21508 38H4.7323C4.79231 38.1038 4.84329 38.2135 4.88421 38.328L5.94561 42.4284C5.98131 42.6135 6.00001 42.8045 6.00001 43C6.00001 44.6569 4.65688 46 2.99999 46C2.9543 46 2.90879 45.999 2.86371 45.9969ZM12 35V37H8.5H4.7323C4.90248 36.7058 4.99999 36.3643 4.99999 36C4.99999 35.6357 4.90248 35.2942 4.7323 35H12ZM2.99999 45C4.1046 45 4.99999 44.1046 4.99999 43C4.99999 42.8841 4.98708 42.7774 4.97431 42.6633L3.95411 38.7163L3.92769 38.6261C3.77959 38.259 3.4199 38 2.99999 38C2.58011 38 2.22038 38.259 2.07229 38.6261L2.0459 38.7163L1.0257 42.6633C1.0129 42.7774 0.999984 42.8841 0.999984 43C0.999984 44.1046 1.8954 45 2.99999 45ZM2.91451 2H47.0855H48.5C48.7761 2 49 1.77609 49 1.50001C49 1.22389 48.7761 0.999984 48.5 0.999984H47.0855H2.91451H1.50001C1.22389 0.999984 0.999984 1.22389 0.999984 1.50001C0.999984 1.77609 1.22389 2 1.50001 2H2.91451Z" fill="#92478E"/>
</svg>
