<svg width="50" height="50" viewBox="0 0 50 50" fill="none" xmlns="http://www.w3.org/2000/svg">
<path fill-rule="evenodd" clip-rule="evenodd" d="M4.5 40C4.56861 40 4.63398 40.014 4.6936 40.0389H4.69381L4.69459 40.0393C8.94591 41.8621 16.4506 43 25 43C33.5494 43 41.0541 41.8621 45.3054 40.0393L45.3062 40.0389H45.3064C45.366 40.014 45.4314 40 45.5 40C45.7762 40 46 40.2238 46 40.5L45.9999 40.5065V42H46.4959H46.5C46.7762 42 47 42.2238 47 42.5C47 42.6955 46.8878 42.8649 46.7243 42.947L46.7168 42.9507C46.287 43.1659 46 43.4401 46 44C46 44.5599 46.287 44.8341 46.7168 45.0493L46.7243 45.053C46.8878 45.1352 47 45.3044 47 45.5C47 45.7762 46.7762 46 46.5 46L46.4918 45.9999H46.4878H46.1404L46.8905 49.0001H48.1095L48.8596 45.9999H48.5118H48.5078L48.5 46C48.2238 46 48 45.7762 48 45.5C48 45.3025 48.1145 45.1317 48.2807 45.0505L48.2832 45.0493C48.7129 44.8333 49 44.5612 49 44C49 43.4388 48.7129 43.1667 48.2832 42.9507L48.2807 42.9495C48.1145 42.8683 48 42.6975 48 42.5C48 42.2238 48.2238 42 48.5 42H48.5039H49V27.9999H0.999984V42H1.4961H1.50001C1.7762 42 2 42.2238 2 42.5C2 42.6975 1.88549 42.8683 1.7193 42.9495L1.71679 42.9507C1.28711 43.1667 0.999984 43.4388 0.999984 44C0.999984 44.5612 1.28711 44.8333 1.71679 45.0493L1.7193 45.0505C1.88549 45.1317 2 45.3025 2 45.5C2 45.7762 1.7762 46 1.50001 46L1.49221 45.9999H1.48819H1.14039L1.8905 49.0001H3.10949L3.8596 45.9999H3.51218H3.5082L3.50001 46C3.22379 46 2.99999 45.7762 2.99999 45.5C2.99999 45.3044 3.11221 45.1352 3.27568 45.053L3.2832 45.0493C3.71299 44.8341 4.00001 44.5599 4.00001 44C4.00001 43.4401 3.71299 43.1659 3.2832 42.9507L3.27568 42.947C3.11221 42.8649 2.99999 42.6955 2.99999 42.5C2.99999 42.2238 3.22379 42 3.50001 42H3.50411H4.00011V40.5065L4.00001 40.5C4.00001 40.2238 4.22381 40 4.5 40ZM49.4999 27.0001H49.5C49.7762 27.0002 49.9998 27.2238 49.9999 27.5V27.5001V42.4936L50 42.5C50 42.6865 49.898 42.849 49.7468 42.935C49.9067 43.2139 49.9974 43.5538 49.9999 43.9811C49.9999 43.9941 49.9999 44.0066 49.9999 44.0195C49.9973 44.4465 49.9065 44.7863 49.7467 45.065C49.8979 45.151 50 45.3135 50 45.5C50 45.5451 49.994 45.5889 49.9828 45.6305L48.9884 49.6072C48.9393 49.8319 48.7394 50 48.5 50L48.4936 49.9999H46.5065L46.5 50C46.2606 50 46.0607 49.8319 46.0116 49.6072L45.0172 45.6305C45.006 45.5889 45 45.5451 45 45.5C45 45.3136 45.102 45.151 45.2532 45.065C45.0919 44.784 45.001 44.4406 45 44.0073C45 44.0021 45 43.9974 45 43.9922C45.001 43.5591 45.092 43.2159 45.2532 42.935C45.102 42.8491 45 42.6864 45 42.5V41.0723C40.439 42.8891 33.179 44 25 44C16.821 44 9.56098 42.8891 4.99999 41.0723V42.5C4.99999 42.6864 4.898 42.8491 4.7468 42.935C4.90799 43.2159 4.999 43.5591 4.99999 43.9922C4.99999 43.9974 4.99999 44.0021 4.99999 44.0073C4.999 44.4406 4.90809 44.784 4.7468 45.065C4.898 45.151 4.99999 45.3136 4.99999 45.5C4.99999 45.5451 4.99399 45.5889 4.98281 45.6305L3.9884 49.6072C3.93929 49.8319 3.73941 50 3.50001 50L3.49349 49.9999H1.5064L1.50001 50C1.26062 50 1.0607 49.8319 1.01159 49.6072L0.0172156 45.6305C0.00599722 45.5889 0 45.5451 0 45.5C0 45.3135 0.102094 45.151 0.253294 45.065C0.0934861 44.7863 0.00271639 44.4465 0.000105833 44.0195C0.000105833 44.0066 0.000105833 43.9941 0.000105833 43.9811C0.00261056 43.5538 0.0933097 43.2139 0.253189 42.935C0.101988 42.849 0 42.6865 0 42.5L0.000105833 42.4936V27.5064L0 27.5C0 27.2238 0.223802 27 0.499992 27L0.506412 27.0001H2V4.50003C2 4.27083 2.1541 4.07772 2.36439 4.01863C2.13321 3.61802 2 3.14731 2 2.64361C2 1.18353 3.11919 0 4.5 0C5.8808 0 6.99999 1.18353 6.99999 2.64361C6.99999 3.14731 6.86678 3.61802 6.63561 4.01863C6.8459 4.07772 6.99999 4.27083 6.99999 4.50003L6.99989 4.50642V4.68122C11.2977 2.5588 18.2537 1.03332 25 1.00012C31.7463 1.03332 38.7023 2.5588 43.0001 4.68122V4.50642L43 4.50003C43 4.27083 43.1541 4.07772 43.3644 4.01863C43.1332 3.61802 43 3.14731 43 2.64361C43 1.18353 44.1192 0 45.5 0C46.8808 0 48 1.18353 48 2.64361C48 3.14731 47.8668 3.61802 47.6356 4.01863C47.8459 4.07772 48 4.27083 48 4.50003V27.0001H49.4999ZM25 5.99983H24.9999C18.0671 5.99983 11.1562 7.60663 6.99999 9.79533V14.8602C9.542 14.2597 12.0257 13.9821 14.4957 14.0002C17.166 13.9806 19.8524 14.3067 22.611 15.0128L22.6145 15.0136L22.6146 15.0137C22.7894 15.0554 22.9285 15.1888 22.9783 15.3605L22.9784 15.3606L22.9791 15.3631C23.3388 16.5883 23.6005 17.7987 23.7688 19.0001H26.2293C26.3976 17.7987 26.6593 16.5883 27.019 15.3631L27.0197 15.3606L27.0198 15.3605C27.0696 15.1888 27.2087 15.0554 27.3835 15.0137L27.3836 15.0136L27.3871 15.0128C30.1457 14.3067 32.8321 13.9806 35.5024 14.0002C37.973 13.9821 40.4574 14.2599 43 14.8607V9.79533C38.8438 7.60663 31.9329 5.99983 25 5.99983ZM6.27228 9.05471C6.4086 8.98313 6.82311 8.76871 6.95459 8.70331C11.2486 6.56943 18.2299 5.03343 24.9999 5.00002H25C31.77 5.03343 38.7513 6.56943 43.0453 8.70331C43.1764 8.7685 43.5887 8.98183 43.7263 9.05401L43.7277 9.05471L43.7282 9.05503L43.7344 9.05831C43.8925 9.1422 44 9.3085 44 9.50002L43.9999 9.50641V15.4311C44.6972 17.8295 45.0196 20.1714 44.999 22.5C45.0122 23.9908 44.8846 25.4871 44.6083 27.0001H47V4.99992H46.5092L46.5 5.00002C46.2238 5.00002 46 4.77622 46 4.50003C46 4.32731 46.0874 4.1753 46.2205 4.08541L46.2201 4.08481L46.22 4.08471C46.6848 3.80563 47 3.26471 47 2.6429C47 1.73553 46.3285 1.00002 45.5 1.00002C44.6715 1.00002 44 1.73553 44 2.6429C44 3.26281 44.3133 3.8022 44.7757 4.08213L44.7754 4.08263C44.9107 4.17202 45 4.32562 45 4.50003C45 4.77622 44.7762 5.00002 44.5 5.00002L44.491 4.99992H44.0001L44 5.50002H43.9999C43.9999 5.77621 43.7762 6.00001 43.5 6.00001C43.4341 6.00001 43.3711 5.98713 43.3135 5.96403V5.96413L43.313 5.96381C43.2772 5.94931 43.2433 5.93083 43.2121 5.90892C39.0817 3.6625 32.0522 1.99993 25 1.99993C17.9478 1.99993 10.9184 3.6625 6.7879 5.90892C6.75679 5.9309 6.72289 5.94942 6.68701 5.96381L6.68651 5.96413V5.96403C6.62891 5.98731 6.56601 6.00001 6.5 6.00001C6.22381 6.00001 6.00011 5.77621 6.00011 5.50002H6.00001L5.9999 4.99992H5.50901L5.50002 5.00002C5.22379 5.00002 4.99999 4.77622 4.99999 4.50003C4.99999 4.32562 5.08931 4.17202 5.2246 4.08263L5.22429 4.08213C5.68671 3.8022 6.00001 3.26281 6.00001 2.6429C6.00001 1.73553 5.3285 1.00002 4.5 1.00002C3.6715 1.00002 2.99999 1.73553 2.99999 2.6429C2.99999 3.26471 3.31519 3.80563 3.78001 4.08471L3.77991 4.08481L3.77948 4.08541C3.91259 4.1753 4.00001 4.32731 4.00001 4.50003C4.00001 4.77622 3.7762 5.00002 3.50001 5.00002L3.49081 4.99992H2.99999V27.0001H5.38981C5.11351 25.4871 4.98591 23.9908 4.99911 22.5C4.97851 20.1693 5.30151 17.8252 6.00011 15.4246V9.50641L6.00001 9.50002C6.00001 9.3085 6.1075 9.14231 6.26551 9.05831L6.27168 9.05503L6.27228 9.05471ZM23.8875 20C23.969 20.8363 24.0054 21.6691 23.998 22.5C24.0112 23.9908 23.8837 25.4871 23.6074 27.0001H26.3907C26.1144 25.4871 25.9869 23.9908 26.0001 22.5C25.9927 21.6691 26.0291 20.8363 26.1106 20H23.8875ZM22.5967 27.0001C22.8784 25.4969 22.9982 23.979 22.9983 22.5001C22.9982 20.3297 22.7404 18.0754 22.0913 15.9069C19.649 15.2826 16.9982 15 14.4982 14.9999C11.9982 15 9.3473 15.2826 6.90499 15.9069C6.25591 18.0754 5.9981 20.3296 5.998 22.5C5.9981 23.979 6.11791 25.4969 6.3996 27.0001H22.5967ZM27.4014 27.0001C27.1197 25.4969 26.9999 23.979 26.9998 22.5001C26.9999 20.3297 27.2577 18.0754 27.9068 15.9069C30.3491 15.2826 32.9999 15 35.4999 14.9999C37.9999 15 40.6508 15.2826 43.0931 15.9069C43.7422 18.0754 44 20.3296 44.0001 22.5C44 23.979 43.8802 25.4969 43.5985 27.0001H27.4014ZM16.4981 17L16.4727 17.0007L16.4726 17L16.4644 17.0012C16.4375 17.003 16.4112 17.0068 16.3857 17.0127C13.6862 17.4028 11.1315 17.0678 8.71421 16.049C8.69989 16.0421 8.685 16.0358 8.67001 16.0303L8.66891 16.0299C8.61561 16.0106 8.55811 16 8.4981 16C8.22191 16 7.99811 16.2238 7.99811 16.5C7.99811 16.7031 8.11922 16.878 8.2931 16.9562L8.30351 16.9607L8.31469 16.9653C10.8144 18.0307 13.5437 18.4228 16.5522 17.9971C16.803 17.9701 16.9981 17.7579 16.9981 17.5C16.9981 17.2238 16.7743 17 16.4981 17ZM33.5 17L33.5254 17.0007L33.5255 17L33.5337 17.0012C33.5606 17.003 33.5869 17.0068 33.6124 17.0127C36.3119 17.4028 38.8666 17.0678 41.2839 16.049C41.2982 16.0421 41.3131 16.0358 41.3281 16.0303L41.3292 16.0299C41.3825 16.0106 41.44 16 41.5 16C41.7762 16 42 16.2238 42 16.5C42 16.7031 41.8789 16.878 41.705 16.9562L41.6946 16.9607L41.6834 16.9653C39.1837 18.0307 36.4544 18.4228 33.4459 17.9971C33.1951 17.9701 33 17.7579 33 17.5C33 17.2238 33.2238 17 33.5 17ZM9.49808 20C9.77431 20 9.99811 19.7762 9.99811 19.5C9.99811 19.23 9.78429 19.0101 9.51671 19.0004C9.5027 18.9999 9.49268 18.9998 9.47861 18.9986C8.83581 18.946 8.30019 18.6212 7.86839 18.1641C7.77691 18.0634 7.64501 18 7.49811 18C7.22189 18 6.99809 18.2238 6.99809 18.5C6.99809 18.6002 7.02751 18.6935 7.0781 18.7716C7.0951 18.7982 7.11711 18.8253 7.13881 18.8478C7.64289 19.4276 8.36179 19.838 9.15338 19.9637C9.25809 19.9802 9.392 20 9.49808 20ZM40.5 20C40.2238 20 40 19.7762 40 19.5C40 19.23 40.2138 19.0101 40.4814 19.0004C40.4954 18.9999 40.5054 18.9998 40.5195 18.9986C41.1623 18.946 41.6979 18.6212 42.1297 18.1641C42.2212 18.0634 42.3531 18 42.5 18C42.7762 18 43 18.2238 43 18.5C43 18.6002 42.9706 18.6935 42.92 18.7716C42.903 18.7982 42.881 18.8253 42.8593 18.8478C42.3552 19.4276 41.6363 19.838 40.8447 19.9637C40.74 19.9802 40.6061 20 40.5 20V20Z" fill="#92478E"/>
</svg>
