<svg width="50" height="50" viewBox="0 0 50 50" fill="none" xmlns="http://www.w3.org/2000/svg">
<path fill-rule="evenodd" clip-rule="evenodd" d="M6.91451 2H47.0855H48.5C48.7761 2 49 1.77609 49 1.50001C49 1.22389 48.7761 1.00002 48.5 1.00002H47.0855H6.91451H5.50002C5.2239 1.00002 5.00002 1.22389 5.00002 1.50001C5.00002 1.77609 5.2239 2 5.50002 2H6.91451ZM26.8333 38.8727C26.7448 38.9519 26.628 39 26.5 39C26.2239 39 26 38.7761 26 38.5C26 38.3753 26.0456 38.2612 26.1212 38.1736C25.8443 37.8581 25.5813 37.4995 25.3387 37.0865C25.2781 36.9833 25.2825 36.9909 25.2367 36.8647C25.0844 36.4454 25 35.9841 25 35.5C25 35.3632 25.0551 35.2393 25.144 35.149L25.1443 35.1487C25.1566 35.1362 25.1695 35.1244 25.1831 35.1133C30.6874 30.1036 40.4369 19.9948 41.4629 13.1786C41.8142 9.96791 41.9999 6.66499 41.9999 3.30189H42V2.99999H6.00001V8.00001V8.0082C6.00001 25.4889 3.9745 40.2932 1.17792 45.3388C1.49031 45.5338 1.80072 45.7193 2.1094 45.8956C3.1653 46.4987 4.20021 46.9648 5.22242 47.3695C6.09081 47.7134 6.95942 47.9791 7.81681 48.2027C8.75421 48.4471 9.6798 48.6392 10.6037 48.7638C11.9146 48.9406 13.2041 49.0123 14.5227 48.9979C15.8127 48.9839 17.281 48.9735 18.6267 48.8717C19.0807 48.8374 19.5231 48.7961 19.9381 48.7388C20.4051 48.6744 20.8385 48.591 21.2257 48.5089C21.5736 48.4352 21.8838 48.33 22.1424 48.2218C22.421 48.1052 22.6408 47.9828 22.7882 47.8527C22.9255 47.7316 23 47.6102 23 47.5C23 47.3432 22.9294 47.2046 22.8166 47.113C21.3527 45.7635 16 47 16 44C16 41.092 18.9084 35.7704 22.0557 30.2706C23.4801 27.7815 24.95 25.2544 26.1686 22.8744C26.0652 22.7828 26 22.649 26 22.5C26 22.2239 26.2239 22 26.5 22C26.5352 22 26.5696 22.0037 26.6027 22.0106C28.0178 19.1371 29 16.5191 29 14.5C29 14.2239 29.2239 14 29.5 14C29.7761 14 30 14.2239 30 14.5C30 15.942 29.5325 17.7271 28.7464 19.6807C28.1906 21.062 27.4746 22.5272 26.6838 24.0349C26.869 24.1081 27 24.2888 27 24.5C27 24.7761 26.7761 25 26.5 25C26.3953 25 26.2982 24.9678 26.2179 24.9128C26.072 25.1849 25.9242 25.458 25.7751 25.732C24.8554 27.4218 23.8848 29.0845 22.9144 30.7798C20.8369 34.4088 18.8773 37.9312 17.8186 40.6889C17.6055 41.244 17.4248 41.7652 17.2878 42.2506C17.6469 42.091 18.0601 42 18.5 42C20.1203 42 21.2048 42.4289 22.5972 42.8893C24.2057 43.4212 26.9782 43.9954 29.9649 44H30C31.1046 44 32 43.3284 32 42.5C32 42.0567 31.7437 41.6584 31.3361 41.3838C30.177 40.5283 28.3827 40.183 26.8333 38.8727ZM18.5 40C18.7761 40 19 40.2239 19 40.5C19 40.7761 18.7761 41 18.5 41C18.2239 41 18 40.7761 18 40.5C18 40.2239 18.2239 40 18.5 40ZM23.989 47.6329C23.7182 49.958 18.0103 49.9595 14.5227 49.9983C10.0002 50.0488 5.08522 49.0682 0.232128 45.9222C0.0926042 45.8335 0 45.6775 0 45.5C0 45.416 0.0207081 45.3367 0.0573969 45.2672L0.0567267 45.2668C0.737129 44.0127 1.3735 42.18 1.94843 39.9807C3.76721 33.0229 4.97032 21.3103 4.99932 8.00001H5.00002V2.91451C4.41752 2.70859 4.00001 2.15311 4.00001 1.50001C4.00001 0.671618 4.67162 0 5.50002 0H48.5C49.3284 0 50 0.671618 50 1.50001C50 2.3284 49.3284 2.99999 48.5 2.99999H48V40H49.5C49.7761 40 50 40.2239 50 40.5V42.5C50 42.7761 49.7761 43 49.5 43H33.0734C32.9426 43.216 32.8112 43.4303 32.6784 43.642L32.6732 43.6358C32.1768 44.4455 31.1662 45 30 45C28.3713 45 26.7348 44.8244 25.3133 44.5749C24.8912 45.6222 24.4492 46.6422 23.989 47.6329ZM24.3287 44.3836C24.0552 45.057 23.7735 45.7185 23.4837 46.3678L23.4632 46.3503L23.4639 46.3495C22.6721 45.6027 21.1967 45.4539 19.7709 45.2875C18.3262 45.1188 17 44.9065 17 44C17 43.4477 17.6716 43 18.5 43V42.9999C19.9893 42.9999 21.0427 43.4223 22.3134 43.848C22.8555 44.0296 23.5435 44.2156 24.3287 44.3836ZM26.0066 35.705C28.8282 33.1314 32.7361 29.2449 36.0174 25.1539C37.6607 23.1052 39.1394 21.0131 40.2574 19.0465C40.4455 18.7156 40.6235 18.3885 40.7902 18.0651C39.2871 27.0847 36.4638 35.1829 32.7805 41.5597C32.607 41.2038 32.3379 40.8888 31.9999 40.6367L32 40.6366C30.436 39.4822 27.7905 38.9961 26.4309 37.044C26.3966 36.9945 26.3735 36.9567 26.3442 36.9028C26.1558 36.556 26.0353 36.1467 26.0066 35.705ZM43 3.30189V2.99999H45V40H34.7586C39.8106 30.2976 43 17.2922 43 3.30189ZM7.50002 38C7.7761 38 8.00001 38.2239 8.00001 38.5C8.00001 38.7761 7.7761 39 7.50002 39C7.2239 39 7.00003 38.7761 7.00003 38.5C7.00003 38.2239 7.2239 38 7.50002 38ZM7.50002 36C7.7761 36 8.00001 36.2239 8.00001 36.5C8.00001 36.7761 7.7761 37 7.50002 37C7.2239 37 7.00003 36.7761 7.00003 36.5C7.00003 36.2239 7.2239 36 7.50002 36ZM24.5 40C24.7761 40 25 40.2239 25 40.5C25 40.7761 24.7761 41 24.5 41C24.2239 41 24 40.7761 24 40.5C24 40.2239 24.2239 40 24.5 40ZM26.5 40C26.7761 40 27 40.2239 27 40.5C27 40.7761 26.7761 41 26.5 41C26.2239 41 26 40.7761 26 40.5C26 40.2239 26.2239 40 26.5 40ZM26.5 32C26.7761 32 27 32.2239 27 32.5C27 32.7761 26.7761 33 26.5 33C26.2239 33 26 32.7761 26 32.5C26 32.2239 26.2239 32 26.5 32ZM26.5 30C26.7761 30 27 30.2239 27 30.5C27 30.7761 26.7761 31 26.5 31C26.2239 31 26 30.7761 26 30.5C26 30.2239 26.2239 30 26.5 30ZM26.5 28C26.7761 28 27 28.2239 27 28.5C27 28.7761 26.7761 29 26.5 29C26.2239 29 26 28.7761 26 28.5C26 28.2239 26.2239 28 26.5 28ZM26.5 26C26.7761 26 27 26.2239 27 26.5C27 26.7761 26.7761 27 26.5 27C26.2239 27 26 26.7761 26 26.5C26 26.2239 26.2239 26 26.5 26ZM26.5 20C26.7761 20 27 20.2239 27 20.5C27 20.7761 26.7761 21 26.5 21C26.2239 21 26 20.7761 26 20.5C26 20.2239 26.2239 20 26.5 20ZM26.5 18.25C26.7761 18.25 27 18.4739 27 18.75C27 19.0261 26.7761 19.25 26.5 19.25C26.2239 19.25 26 19.0261 26 18.75C26 18.4739 26.2239 18.25 26.5 18.25ZM26.5 16.25C26.7761 16.25 27 16.4739 27 16.75C27 17.0261 26.7761 17.25 26.5 17.25C26.2239 17.25 26 17.0261 26 16.75C26 16.4739 26.2239 16.25 26.5 16.25ZM26.5 14C26.7761 14 27 14.2239 27 14.5C27 14.7761 26.7761 15 26.5 15C26.2239 15 26 14.7761 26 14.5C26 14.2239 26.2239 14 26.5 14ZM26.5 12C26.7761 12 27 12.2239 27 12.5C27 12.7761 26.7761 13 26.5 13C26.2239 13 26 12.7761 26 12.5C26 12.2239 26.2239 12 26.5 12ZM26.5 10C26.7761 10 27 10.2239 27 10.5C27 10.7761 26.7761 11 26.5 11C26.2239 11 26 10.7761 26 10.5C26 10.2239 26.2239 10 26.5 10ZM26.5 8.00001C26.7761 8.00001 27 8.22392 27 8.5C27 8.77609 26.7761 9 26.5 9C26.2239 9 26 8.77609 26 8.5C26 8.22392 26.2239 8.00001 26.5 8.00001ZM26.5 6.00001C26.7761 6.00001 27 6.22392 27 6.5C27 6.77612 26.7761 6.99999 26.5 6.99999C26.2239 6.99999 26 6.77612 26 6.5C26 6.22392 26.2239 6.00001 26.5 6.00001ZM26.5 4.00001C26.7761 4.00001 27 4.22391 27 4.5C27 4.77612 26.7761 4.99999 26.5 4.99999C26.2239 4.99999 26 4.77612 26 4.5C26 4.22391 26.2239 4.00001 26.5 4.00001ZM22.5 40C22.7761 40 23 40.2239 23 40.5C23 40.7761 22.7761 41 22.5 41C22.2239 41 22 40.7761 22 40.5C22 40.2239 22.2239 40 22.5 40ZM20.5 40C20.7761 40 21 40.2239 21 40.5C21 40.7761 20.7761 41 20.5 41C20.2239 41 20 40.7761 20 40.5C20 40.2239 20.2239 40 20.5 40ZM15.5 40C15.7761 40 16 40.2239 16 40.5C16 40.7761 15.7761 41 15.5 41C15.2239 41 15 40.7761 15 40.5C15 40.2239 15.2239 40 15.5 40ZM13.5 40C13.7761 40 14 40.2239 14 40.5C14 40.7761 13.7761 41 13.5 41C13.2239 41 13 40.7761 13 40.5C13 40.2239 13.2239 40 13.5 40ZM11.5 40C11.7761 40 12 40.2239 12 40.5C12 40.7761 11.7761 41 11.5 41C11.2239 41 11 40.7761 11 40.5C11 40.2239 11.2239 40 11.5 40ZM9.50002 40C9.77611 40 10 40.2239 10 40.5C10 40.7761 9.77611 41 9.50002 41C9.2239 41 9 40.7761 9 40.5C9 40.2239 9.2239 40 9.50002 40ZM7.50002 40C7.7761 40 8.00001 40.2239 8.00001 40.5C8.00001 40.7761 7.7761 41 7.50002 41C7.2239 41 7.00003 40.7761 7.00003 40.5C7.00003 40.2239 7.2239 40 7.50002 40ZM7.50002 34C7.7761 34 8.00001 34.2239 8.00001 34.5C8.00001 34.7761 7.7761 35 7.50002 35C7.2239 35 7.00003 34.7761 7.00003 34.5C7.00003 34.2239 7.2239 34 7.50002 34ZM7.50002 32C7.7761 32 8.00001 32.2239 8.00001 32.5C8.00001 32.7761 7.7761 33 7.50002 33C7.2239 33 7.00003 32.7761 7.00003 32.5C7.00003 32.2239 7.2239 32 7.50002 32ZM7.50002 30C7.7761 30 8.00001 30.2239 8.00001 30.5C8.00001 30.7761 7.7761 31 7.50002 31C7.2239 31 7.00003 30.7761 7.00003 30.5C7.00003 30.2239 7.2239 30 7.50002 30ZM7.50002 28C7.7761 28 8.00001 28.2239 8.00001 28.5C8.00001 28.7761 7.7761 29 7.50002 29C7.2239 29 7.00003 28.7761 7.00003 28.5C7.00003 28.2239 7.2239 28 7.50002 28ZM7.50002 26C7.7761 26 8.00001 26.2239 8.00001 26.5C8.00001 26.7761 7.7761 27 7.50002 27C7.2239 27 7.00003 26.7761 7.00003 26.5C7.00003 26.2239 7.2239 26 7.50002 26ZM7.50002 24C7.7761 24 8.00001 24.2239 8.00001 24.5C8.00001 24.7761 7.7761 25 7.50002 25C7.2239 25 7.00003 24.7761 7.00003 24.5C7.00003 24.2239 7.2239 24 7.50002 24ZM7.50002 22C7.7761 22 8.00001 22.2239 8.00001 22.5C8.00001 22.7761 7.7761 23 7.50002 23C7.2239 23 7.00003 22.7761 7.00003 22.5C7.00003 22.2239 7.2239 22 7.50002 22ZM7.50002 20C7.7761 20 8.00001 20.2239 8.00001 20.5C8.00001 20.7761 7.7761 21 7.50002 21C7.2239 21 7.00003 20.7761 7.00003 20.5C7.00003 20.2239 7.2239 20 7.50002 20ZM7.50002 18.25C7.7761 18.25 8.00001 18.4739 8.00001 18.75C8.00001 19.0261 7.7761 19.25 7.50002 19.25C7.2239 19.25 7.00003 19.0261 7.00003 18.75C7.00003 18.4739 7.2239 18.25 7.50002 18.25ZM7.50002 16.25C7.7761 16.25 8.00001 16.4739 8.00001 16.75C8.00001 17.0261 7.7761 17.25 7.50002 17.25C7.2239 17.25 7.00003 17.0261 7.00003 16.75C7.00003 16.4739 7.2239 16.25 7.50002 16.25ZM7.50002 14C7.7761 14 8.00001 14.2239 8.00001 14.5C8.00001 14.7761 7.7761 15 7.50002 15C7.2239 15 7.00003 14.7761 7.00003 14.5C7.00003 14.2239 7.2239 14 7.50002 14ZM7.50002 12C7.7761 12 8.00001 12.2239 8.00001 12.5C8.00001 12.7761 7.7761 13 7.50002 13C7.2239 13 7.00003 12.7761 7.00003 12.5C7.00003 12.2239 7.2239 12 7.50002 12ZM7.50002 10C7.7761 10 8.00001 10.2239 8.00001 10.5C8.00001 10.7761 7.7761 11 7.50002 11C7.2239 11 7.00003 10.7761 7.00003 10.5C7.00003 10.2239 7.2239 10 7.50002 10ZM7.50002 8.00001C7.7761 8.00001 8.00001 8.22392 8.00001 8.5C8.00001 8.77609 7.7761 9 7.50002 9C7.2239 9 7.00003 8.77609 7.00003 8.5C7.00003 8.22392 7.2239 8.00001 7.50002 8.00001ZM7.50002 6.00001C7.7761 6.00001 8.00001 6.22392 8.00001 6.5C8.00001 6.77612 7.7761 6.99999 7.50002 6.99999C7.2239 6.99999 7.00003 6.77612 7.00003 6.5C7.00003 6.22392 7.2239 6.00001 7.50002 6.00001ZM7.50002 4.00001C7.7761 4.00001 8.00001 4.22391 8.00001 4.5C8.00001 4.77612 7.7761 4.99999 7.50002 4.99999C7.2239 4.99999 7.00003 4.77612 7.00003 4.5C7.00003 4.22391 7.2239 4.00001 7.50002 4.00001ZM33.6639 42C33.8531 41.6709 34.0401 41.3378 34.2248 41H49V42H33.6639ZM47 2.99999V40H46V2.99999H47Z" fill="#92478E"/>
</svg>
