<svg width="50" height="50" viewBox="0 0 50 50" fill="none" xmlns="http://www.w3.org/2000/svg">
<path fill-rule="evenodd" clip-rule="evenodd" d="M2.91451 2H47.0855H48.5C48.7761 2 49 1.77609 49 1.50001C49 1.22389 48.7761 0.999984 48.5 0.999984H47.0855H2.91451H1.50001C1.22389 0.999984 0.999984 1.22389 0.999984 1.50001C0.999984 1.77609 1.22389 2 1.50001 2H2.91451ZM2 16H3.05008C3.24901 15.0202 4.02068 14.2486 5.00048 14.05L4.99999 14C4.99999 12.6192 6.11928 11.5 7.49998 11.5C7.9992 11.5 8.46409 11.6463 8.8543 11.8984C9.39839 11.3432 10.1583 11 11 11C12.6569 11 14 12.3431 14 14L13.9996 14.05C14.5399 14.1595 15.0169 14.4434 15.3694 14.8401C15.7647 14.3321 16 13.6936 16 13C16 11.5135 14.9189 10.2797 13.5 10.0417V10C13.2239 10 13 9.77611 13 9.49999C13 7.56701 11.433 6.00001 9.49999 6.00001C7.56701 6.00001 6.00001 7.56701 6.00001 9.49999C6.00001 9.77611 5.7761 10 5.49998 10C5.2239 10 4.99999 9.77611 4.99999 9.49999C4.99999 8.7454 5.18601 8.0343 5.5143 7.40971C5.06991 7.14929 4.55239 6.99999 4.00001 6.99999C3.23159 6.99999 2.53069 7.28899 2 7.76411V16ZM3.05008 17H2V19C1.9927 19.6762 1.99651 20.4056 2.0096 21.1675C2.31958 21.059 2.65289 21 2.99999 21C3.84168 21 4.6016 21.3432 5.14569 21.8984C5.53589 21.6463 6.00078 21.5 6.5 21.5C7.8807 21.5 9 22.6192 9 24L8.9995 24.05C10.1409 24.2814 11 25.2903 11 26.5C11 27.8807 9.8807 29 8.5 29H2.3845C2.54208 31.0733 2.73078 32.883 2.91779 34.0018C2.94509 34.0007 2.97251 34 2.99999 34H8.42409C13.0547 29.5558 16.4392 23.8276 18.0128 17.3871L18.0146 17.3798C18.0684 17.1618 18.2654 17 18.5 17C18.7761 17 19 17.2239 19 17.5C19 17.5467 18.9936 17.592 18.9816 17.6349L18.981 17.6369C17.444 23.9153 14.2342 29.538 9.8467 34H12.3743C19.2286 28.791 23.9957 17.2575 24 3.86168V2.99999H2V6.53531C2.5883 6.19488 3.27138 6.00001 4.00001 6.00001C4.76031 6.00001 5.47081 6.21231 6.07589 6.5805C6.90128 5.6134 8.12888 4.99999 9.49999 4.99999C11.8581 4.99999 13.7922 6.8138 13.9841 9.1223C15.7174 9.56091 17 11.1305 17 13C17 14.0729 16.5776 15.0469 15.8901 15.7652C15.9614 15.9975 16 16.2443 16 16.5C16 17.8807 14.8808 19 13.5 19H5.49998C4.29059 19 3.28179 18.1411 3.05008 17ZM6.5 22.5C6.21291 22.5 5.94459 22.5807 5.71659 22.7206C5.8088 22.9176 5.88021 23.1264 5.9279 23.3444C5.94109 23.4272 5.94268 23.4934 5.93471 23.5459C5.9115 23.8004 5.6975 24 5.4369 24C5.16079 24 4.93691 23.7761 4.93691 23.5C4.71491 22.6373 3.93188 22 2.99999 22C2.6495 22 2.32011 22.0903 2.03369 22.2487C2.0847 24.1278 2.18479 26.1378 2.31228 28H8.5C9.3284 28 9.99998 27.3284 9.99998 26.5C9.99998 25.6715 9.3284 25 8.5 25C8.22388 25 8.00001 24.7761 8.00001 24.5V24C8.00001 23.1715 7.32839 22.5 6.5 22.5ZM13 14.5V14C13 12.8954 12.1046 12 11 12C10.0681 12 9.28511 12.6373 9.06311 13.5C9.06311 13.7761 8.8392 14 8.56308 14C8.30248 14 8.08849 13.8004 8.06531 13.5459C8.0573 13.4934 8.05889 13.4272 8.07208 13.3444C8.11978 13.1264 8.19118 12.9176 8.2834 12.7206C8.0554 12.5807 7.78711 12.5 7.49998 12.5C6.67159 12.5 6.00001 13.1715 6.00001 14V14.5C6.00001 14.7761 5.7761 15 5.49998 15C4.67159 15 4.00001 15.6715 4.00001 16.5C4.00001 17.3284 4.67159 18 5.49998 18H13.5C14.3285 18 15 17.3284 15 16.5C15 15.6715 14.3285 15 13.5 15C13.2239 15 13 14.7761 13 14.5ZM38 9.49999C38 9.36209 37.9441 9.23741 37.8538 9.14689L37.8539 9.14679L37.8535 9.1465L37 8.29299V4.5C37 4.22391 36.7761 4.00001 36.5 4.00001C36.2239 4.00001 36 4.22391 36 4.5V8.29299L35.1465 9.1465L35.1461 9.14679L35.1462 9.14689C35.0559 9.23741 35 9.36209 35 9.49999V21.5C35 27.8803 31.3128 44.1344 27.2865 49H25V43V42V41V40V3.87929L25.0002 3.8438H25V2.99999H48V49H45.7135C41.6872 44.1344 38 27.8803 38 21.5V9.49999ZM36.5 9.20711L37 9.7071V21.5C37 24.4445 37.7691 29.5419 39.0105 34.6026C39.9607 38.4766 41.2405 42.594 42.6305 45.6903C43.2252 47.0151 43.8439 48.139 44.4596 49H41.9772C41.7245 46.1967 39.369 44 36.5 44C33.631 44 31.2755 46.1967 31.0228 49H28.5404C29.1561 48.139 29.7748 47.0151 30.3695 45.6903C31.7595 42.594 33.0393 38.4766 33.9895 34.6026C35.2309 29.5419 36 24.4445 36 21.5V9.7071L36.5 9.20711ZM37.8863 40C37.5349 38.2819 37.304 36.7638 37.0651 35H35.9371C35.6982 36.7638 35.4673 38.2819 35.1159 40H37.8863ZM37.998 34.4554L38 34.4558C38.2651 36.4682 38.599 38.4935 38.9957 40.406C39.0003 40.4283 39.0009 40.4463 38.9984 40.4607C38.9994 40.4736 39 40.4868 39 40.5C39 40.7761 38.7761 41 38.5 41H34.5H34.485V40.9997C34.2158 40.9917 34 40.7711 34 40.5C34 40.4831 34.0008 40.4663 34.0025 40.4498C34.0018 40.4375 34.003 40.423 34.0065 40.406C34.4029 38.4949 34.7366 36.4712 35.0016 34.4603C35.0218 34.2028 35.2373 34 35.5 34H37.5C37.7611 34 37.9754 34.2002 37.998 34.4554ZM32.0278 49C32.2765 46.7501 34.1837 45 36.5 45C38.8163 45 40.7235 46.7501 40.9722 49H32.0278ZM24.5 50H27.5H48.5C48.7761 50 49 49.7761 49 49.5V2.91451C49.5825 2.70859 50 2.15311 50 1.50001C50 0.671583 49.3284 0 48.5 0H1.50001C0.671583 0 0 0.671583 0 1.50001C0 2.15311 0.417512 2.70859 0.999984 2.91451V19C0.948408 23.8135 1.46858 31.4982 1.95361 34.2954C1.38201 34.6468 0.999984 35.2777 0.999984 36C0.999984 36.5974 1.26199 37.1336 1.67728 37.5C1.42589 37.7218 1.23081 38.0057 1.1158 38.328L0.0543983 42.4284C0.0186972 42.6135 0 42.8045 0 43C0 44.2755 0.794103 45.3602 1.91008 45.7957C1.7049 46.5864 1.4423 47.397 1.06948 48.2457C1.02538 48.3202 0.999984 48.4072 0.999984 48.5C0.999984 48.6842 1.09978 48.8453 1.24809 48.9319L1.24799 48.932L1.24919 48.9326C1.27219 48.946 1.29639 48.9576 1.32151 48.9672C2.80441 49.6686 4.6058 50 6.5 50C7.22898 50 7.93108 49.8993 8.59419 49.7137C9.5141 49.9065 10.4939 50 11.5 50C13.5985 50 15.4751 49.1666 16.8362 47.8701L16.845 47.8619L16.8471 47.8598C16.9413 47.7689 17 47.6413 17 47.5C17 47.3914 16.9652 47.2908 16.9064 47.2088C16.0546 45.743 15.5838 44.3645 15.1693 43H24V49.5C24 49.7761 24.2239 50 24.5 50ZM24 14.3159V40H14.2235C13.9106 39.1436 13.5285 38.2721 13 37.3678V34.7495C18.1948 30.7614 22.2198 23.3641 24 14.3159ZM24 41V42H14.8704C14.7711 41.6673 14.6705 41.3343 14.5638 41H24ZM2.86378 45.9968C2.68429 46.7252 2.4601 47.4692 2.14958 48.2429C3.42099 48.7609 4.91889 49 6.5 49C8.19171 49 9.71479 48.3792 10.8682 47.3976C10.5478 46.8226 10.2704 46.2593 10.0442 45.7058H10.0441L10.0427 45.7025C10.0152 45.6407 9.99998 45.5721 9.99998 45.5C9.99998 45.2239 10.2239 45 10.5 45C10.717 45 10.9018 45.1384 10.9709 45.3317H10.971C11.2178 45.9201 11.548 46.5922 11.9055 47.2075C11.965 47.2897 12 47.3908 12 47.5C12 47.6413 11.9413 47.7689 11.8471 47.8598L11.845 47.8619L11.8362 47.8701C11.4015 48.2842 10.9141 48.651 10.3837 48.9585C10.7497 48.9863 11.1225 49 11.5 49C13.1925 49 14.7162 48.3787 15.8698 47.3962C14.0864 44.1305 14.0983 41.2771 12.2153 38H8.34951C9.13229 39.5006 9.5546 40.9243 9.97511 42.3438L9.97518 42.3444C9.99119 42.3933 9.99998 42.4457 9.99998 42.5C9.99998 42.7761 9.77611 43 9.49999 43C9.26038 43 9.06018 42.8314 9.01139 42.6065C8.5743 41.1422 8.11481 39.5758 7.21508 38H4.7323C4.79231 38.1038 4.84329 38.2135 4.88421 38.328L5.94561 42.4284C5.98131 42.6135 6.00001 42.8045 6.00001 43C6.00001 44.6569 4.65691 46 2.99999 46C2.9543 46 2.9089 45.9988 2.86378 45.9968ZM19.3439 12.9999C19.6025 12.9999 19.8153 12.8035 19.8412 12.5518H19.8416C19.9462 11.4506 20.0002 10.3343 20.0002 9.20521C20.0002 7.2698 20 8.4389 20 6.5C20 6.22388 19.7761 6.00001 19.5 6.00001C19.2239 6.00001 19 6.22388 19 6.5C19 8.4389 19.0002 7.2699 19.0002 9.20531C19.0002 10.2945 18.9484 11.372 18.848 12.4352C18.8453 12.4564 18.8439 12.478 18.8439 12.4999C18.8439 12.776 19.0678 12.9999 19.3439 12.9999ZM12 35V35.4661V37H4.7323C4.90248 36.7058 4.99999 36.3643 4.99999 36C4.99999 35.6357 4.90248 35.2942 4.7323 35H12ZM2.99999 35C2.44771 35 2 35.4477 2 36C2 36.5523 2.44771 37 2.99999 37C3.5523 37 4.00001 36.5523 4.00001 36C4.00001 35.4477 3.5523 35 2.99999 35ZM2.99999 45C4.1046 45 4.99999 44.1046 4.99999 43C4.99999 42.8841 4.98711 42.7774 4.97431 42.6633L3.95411 38.7163L3.92769 38.6261C3.77959 38.259 3.4199 38 2.99999 38C2.58011 38 2.22038 38.259 2.07229 38.6261L2.0459 38.7163L1.0257 42.6633C1.0129 42.7774 0.999984 42.8841 0.999984 43C0.999984 44.1046 1.8954 45 2.99999 45V45Z" fill="#92478E"/>
</svg>
